Halibut.glyphspackage
{
glyphname = dollar;
layers = (
{
background = {
shapes = (
{
closed = 1;
nodes = (
(351,-90,l),
(391,-90,l),
(391,700,l),
(351,700,l)
);
},
{
closed = 1;
nodes = (
(131,7,o),
(249,-20,o),
(374,-20,cs),
(582,-20,o),
(713,59,o),
(713,185,cs),
(713,275,o),
(644,319,o),
(495,336,cs),
(282,361,ls),
(173,374,o),
(122,402,o),
(123,458,cs),
(125,536,o),
(210,585,o),
(344,585,cs),
(425,585,o),
(516,567,o),
(595,536,c),
(612,399,l),
(620,397,l),
(681,568,l),
(568,606,o),
(461,625,o),
(364,625,cs),
(182,625,o),
(63,552,o),
(59,439,cs),
(56,354,o),
(119,310,o),
(249,295,cs),
(462,270,ls),
(584,256,o),
(648,219,o),
(647,154,cs),
(645,73,o),
(553,23,o),
(404,23,cs),
(294,23,o),
(180,50,o),
(111,92,c),
(94,251,l),
(86,253,l),
(25,59,l)
);
}
);
};
layerId = "0CCC0E2D-406A-4672-8E6C-854B1DF78A27";
shapes = (
{
closed = 1;
nodes = (
(356,-80,l),
(388,-80,l),
(388,690,l),
(356,690,l)
);
},
{
closed = 1;
nodes = (
(144,5,o),
(246,-20,o),
(371,-20,cs),
(565,-20,o),
(680,48,o),
(680,162,cs),
(680,248,o),
(615,299,o),
(482,317,cs),
(259,347,ls),
(160,361,o),
(118,394,o),
(120,456,cs),
(122,545,o),
(212,598,o),
(361,598,cs),
(427,598,o),
(493,587,o),
(559,565,c),
(576,408,l),
(584,406,l),
(645,568,l),
(550,607,o),
(459,625,o),
(361,625,cs),
(191,625,o),
(86,559,o),
(82,449,cs),
(79,371,o),
(128,331,o),
(246,315,cs),
(469,285,ls),
(586,269,o),
(645,223,o),
(644,148,cs),
(642,58,o),
(553,10,o),
(391,10,cs),
(285,10,o),
(190,30,o),
(131,66,c),
(114,225,l),
(106,227,l),
(45,61,l)
);
}
);
width = 740;
},
{
layerId = m002;
shapes = (
{
closed = 1;
nodes = (
(357,-96,l),
(401,-96,l),
(401,706,l),
(357,706,l)
);
},
{
closed = 1;
nodes = (
(110,14,o),
(262,-20,o),
(383,-20,cs),
(584,-20,o),
(731,72,o),
(731,198,cs),
(731,287,o),
(657,336,o),
(499,350,cs),
(299,368,ls),
(182,379,o),
(133,406,o),
(134,459,cs),
(136,529,o),
(232,578,o),
(367,578,cs),
(444,578,o),
(530,561,o),
(606,531,c),
(625,396,l),
(633,394,l),
(690,584,l),
(594,608,o),
(470,625,o),
(383,625,cs),
(192,625,o),
(59,547,o),
(56,434,cs),
(54,349,o),
(128,295,o),
(264,283,cs),
(464,265,ls),
(590,253,o),
(645,220,o),
(644,157,cs),
(642,81,o),
(555,34,o),
(416,34,cs),
(301,34,o),
(168,66,o),
(114,107,c),
(94,266,l),
(86,268,l),
(29,58,l)
);
}
);
width = 775;
},
{
layerId = m003;
shapes = (
{
closed = 1;
nodes = (
(181,-92,l),
(217,-92,l),
(217,692,l),
(181,692,l)
);
},
{
closed = 1;
nodes = (
(60,-6,o),
(124,-20,o),
(194,-20,cs),
(296,-20,o),
(378,63,o),
(378,167,cs),
(378,242,o),
(337,291,o),
(242,337,cs),
(184,365,ls),
(127,392,o),
(101,434,o),
(101,486,cs),
(101,544,o),
(131,577,o),
(188,577,cs),
(220,577,o),
(257,568,o),
(272,557,c),
(288,415,l),
(296,413,l),
(346,587,l),
(312,607,o),
(246,620,o),
(191,620,cs),
(103,620,o),
(38,564,o),
(36,464,cs),
(35,390,o),
(69,328,o),
(146,291,cs),
(214,258,ls),
(281,225,o),
(312,184,o),
(312,132,cs),
(312,64,o),
(270,27,o),
(204,27,cs),
(166,27,o),
(121,33,o),
(88,45,c),
(73,210,l),
(65,212,l),
(14,12,l)
);
}
);
width = 392;
},
{
layerId = "2C26E880-80A5-4D19-8A94-7D905A372841";
shapes = (
{
closed = 1;
nodes = (
(155,-81,l),
(185,-81,l),
(185,681,l),
(155,681,l)
);
},
{
closed = 1;
nodes = (
(52,-3,o),
(112,-20,o),
(161,-20,cs),
(253,-20,o),
(311,45,o),
(311,149,cs),
(311,220,o),
(284,266,o),
(217,309,cs),
(149,353,ls),
(102,384,o),
(81,428,o),
(82,493,cs),
(83,557,o),
(112,592,o),
(163,592,cs),
(177,592,o),
(197,589,o),
(219,583,c),
(235,417,l),
(243,415,l),
(296,598,l),
(260,611,o),
(210,620,o),
(176,620,cs),
(95,620,o),
(48,572,o),
(46,485,cs),
(45,410,o),
(74,353,o),
(135,313,cs),
(206,267,ls),
(259,232,o),
(279,197,o),
(279,134,cs),
(278,50,o),
(242,8,o),
(172,8,cs),
(145,8,o),
(122,14,o),
(96,28,c),
(80,187,l),
(72,189,l),
(20,21,l)
);
}
);
width = 331;
},
{
associatedMasterId = m003;
layerId = "F11FF43B-E705-4E1E-BF04-2AF954DD10EA";
name = "24 Sep 22, 16:37";
shapes = (
{
closed = 1;
nodes = (
(182,-92,l),
(218,-92,l),
(218,692,l),
(182,692,l)
);
},
{
closed = 1;
nodes = (
(42,-1,o),
(135,-20,o),
(194,-20,cs),
(307,-20,o),
(379,52,o),
(379,164,cs),
(379,240,o),
(349,294,o),
(246,336,cs),
(183,362,ls),
(130,384,o),
(102,421,o),
(102,483,cs),
(102,545,o),
(131,577,o),
(188,577,cs),
(216,577,o),
(241,568,o),
(266,549,c),
(282,407,l),
(290,405,l),
(343,573,l),
(324,597,o),
(251,620,o),
(191,620,cs),
(101,620,o),
(38,563,o),
(36,461,cs),
(35,384,o),
(72,323,o),
(144,292,cs),
(216,261,ls),
(286,231,o),
(312,187,o),
(312,129,cs),
(312,63,o),
(275,27,o),
(209,27,cs),
(167,27,o),
(122,40,o),
(90,58,c),
(74,217,l),
(66,219,l),
(14,19,l)
);
}
);
width = 393;
}
);
metricLeft = S;
metricRight = S;
unicode = 36;
}
{
glyphname = ampersand;
layers = (
{
associatedMasterId = "0CCC0E2D-406A-4672-8E6C-854B1DF78A27";
layerId = "AB2A046C-AB26-4F14-823B-3002C3FD6FF8";
name = "Oct 1 18, 14:02";
shapes = (
{
closed = 1;
nodes = (
(396,329,l),
(196,329,o),
(60,254,o),
(60,169,cs),
(60,58,o),
(224,-20,o),
(455,-20,cs),
(685,-20,o),
(881,65,o),
(881,305,c),
(811,284,l),
(811,85,o),
(657,25,o),
(499,25,cs),
(289,25,o),
(140,95,o),
(140,195,cs),
(140,247,o),
(264,304,o),
(406,296,c)
);
},
{
closed = 1;
nodes = (
(174,384,o),
(386,255,o),
(580,132,c),
(869,-16,l),
(874,-6,l),
(611,188,l),
(439,301,o),
(254,415,o),
(254,489,cs),
(254,544,o),
(292,579,o),
(413,579,cs),
(556,579,o),
(641,526,o),
(641,451,cs),
(641,403,o),
(604,351,o),
(396,329,c),
(406,296,l),
(644,322,o),
(721,402,o),
(721,476,cs),
(721,563,o),
(610,624,o),
(449,624,cs),
(269,624,o),
(174,559,o),
(174,468,cs)
);
},
{
closed = 1;
nodes = (
(811,284,l),
(881,304,l),
(890,354,l),
(661,284,l),
(663,279,l)
);
}
);
width = 908;
},
{
associatedMasterId = "0CCC0E2D-406A-4672-8E6C-854B1DF78A27";
layerId = "15DFB75C-B9D9-42E5-94B3-90A46CE2AE10";
name = "Extended Oct 1 18, 14:24";
shapes = (
{
closed = 1;
nodes = (
(330,329,l),
(216,330,o),
(60,270,o),
(60,169,cs),
(60,58,o),
(214,-20,o),
(435,-20,cs),
(675,-20,o),
(861,117,o),
(861,305,c),
(791,284,l),
(791,137,o),
(647,25,o),
(479,25,cs),
(279,25,o),
(140,95,o),
(140,195,cs),
(140,263,o),
(284,305,o),
(340,296,c)
);
},
{
closed = 1;
nodes = (
(791,284,l),
(861,304,l),
(870,354,l),
(641,284,l),
(643,279,l)
);
},
{
closed = 1;
nodes = (
(715,542,l),
(648,595,o),
(522,632,o),
(439,632,cs),
(284,632,o),
(154,562,o),
(154,464,cs),
(154,352,o),
(391,264,o),
(580,132,cs),
(676,65,o),
(773,33,o),
(869,-16,c),
(874,-6,l),
(786,59,o),
(699,123,o),
(611,188,cs),
(439,301,o),
(234,383,o),
(234,485,cs),
(234,549,o),
(309,587,o),
(403,587,cs),
(484,587,o),
(581,566,o),
(629,531,c)
);
},
{
closed = 1;
nodes = (
(629,531,l),
(647,363,l),
(654,361,l),
(715,542,l)
);
}
);
width = 908;
},
{
associatedMasterId = "0CCC0E2D-406A-4672-8E6C-854B1DF78A27";
layerId = "24FC8502-3E6C-4086-81FB-F173D7BC7433";
name = "Oct 1 18, 14:41";
shapes = (
{
closed = 1;
nodes = (
(295,342,l),
(181,343,o),
(60,270,o),
(60,169,cs),
(60,58,o),
(224,-20,o),
(445,-20,cs),
(743,-20,o),
(851,124,o),
(851,304,c),
(781,284,l),
(781,142,o),
(697,25,o),
(479,25,cs),
(289,25,o),
(140,95,o),
(140,195,cs),
(140,263,o),
(249,318,o),
(305,309,c)
);
},
{
closed = 1;
nodes = (
(781,284,l),
(851,304,l),
(860,354,l),
(631,284,l),
(633,279,l)
);
},
{
closed = 1;
nodes = (
(685,542,l),
(618,595,o),
(507,632,o),
(424,632,cs),
(269,632,o),
(144,562,o),
(144,464,cs),
(144,352,o),
(501,182,o),
(682,65,c),
(869,-16,l),
(874,-6,l),
(723,115,l),
(551,228,o),
(224,383,o),
(224,485,cs),
(224,549,o),
(294,587,o),
(388,587,cs),
(469,587,o),
(551,566,o),
(599,531,c)
);
},
{
closed = 1;
nodes = (
(599,531,l),
(617,363,l),
(624,361,l),
(685,542,l)
);
}
);
width = 924;
},
{
associatedMasterId = "0CCC0E2D-406A-4672-8E6C-854B1DF78A27";
layerId = "60CA8A49-56B3-4114-8223-56FC49FE038C";
name = "Oct 1 18, 14:02";
shapes = (
{
closed = 1;
nodes = (
(396,329,l),
(196,329,o),
(60,254,o),
(60,169,cs),
(60,58,o),
(224,-20,o),
(455,-20,cs),
(685,-20,o),
(881,65,o),
(881,305,c),
(811,284,l),
(811,85,o),
(657,25,o),
(499,25,cs),
(289,25,o),
(140,95,o),
(140,195,cs),
(140,247,o),
(264,304,o),
(406,296,c)
);
},
{
closed = 1;
nodes = (
(174,384,o),
(386,255,o),
(580,132,c),
(869,-16,l),
(874,-6,l),
(611,188,l),
(439,301,o),
(254,415,o),
(254,489,cs),
(254,544,o),
(292,579,o),
(413,579,cs),
(556,579,o),
(641,526,o),
(641,451,cs),
(641,403,o),
(604,351,o),
(396,329,c),
(406,296,l),
(644,322,o),
(721,402,o),
(721,476,cs),
(721,563,o),
(610,624,o),
(449,624,cs),
(269,624,o),
(174,559,o),
(174,468,cs)
);
},
{
closed = 1;
nodes = (
(811,284,l),
(881,304,l),
(890,354,l),
(661,284,l),
(663,279,l)
);
}
);
width = 908;
},
{
associatedMasterId = "0CCC0E2D-406A-4672-8E6C-854B1DF78A27";
layerId = "DEFC823C-2C89-45E6-8086-53F454547B43";
name = "Extended Oct 1 18, 14:24";
shapes = (
{
closed = 1;
nodes = (
(330,329,l),
(216,330,o),
(60,270,o),
(60,169,cs),
(60,58,o),
(214,-20,o),
(435,-20,cs),
(675,-20,o),
(861,117,o),
(861,305,c),
(791,284,l),
(791,137,o),
(647,25,o),
(479,25,cs),
(279,25,o),
(140,95,o),
(140,195,cs),
(140,263,o),
(284,305,o),
(340,296,c)
);
},
{
closed = 1;
nodes = (
(791,284,l),
(861,304,l),
(870,354,l),
(641,284,l),
(643,279,l)
);
},
{
closed = 1;
nodes = (
(715,542,l),
(648,595,o),
(522,632,o),
(439,632,cs),
(284,632,o),
(154,562,o),
(154,464,cs),
(154,352,o),
(391,264,o),
(580,132,cs),
(676,65,o),
(773,33,o),
(869,-16,c),
(874,-6,l),
(786,59,o),
(699,123,o),
(611,188,cs),
(439,301,o),
(234,383,o),
(234,485,cs),
(234,549,o),
(309,587,o),
(403,587,cs),
(484,587,o),
(581,566,o),
(629,531,c)
);
},
{
closed = 1;
nodes = (
(629,531,l),
(647,363,l),
(654,361,l),
(715,542,l)
);
}
);
width = 908;
},
{
associatedMasterId = "0CCC0E2D-406A-4672-8E6C-854B1DF78A27";
layerId = "2C37AD95-B55A-444C-830A-1742DFAE4765";
name = "Oct 1 18, 14:41";
shapes = (
{
closed = 1;
nodes = (
(295,342,l),
(181,343,o),
(60,270,o),
(60,169,cs),
(60,58,o),
(224,-20,o),
(445,-20,cs),
(743,-20,o),
(851,124,o),
(851,304,c),
(781,284,l),
(781,142,o),
(697,25,o),
(479,25,cs),
(289,25,o),
(140,95,o),
(140,195,cs),
(140,263,o),
(249,318,o),
(305,309,c)
);
},
{
closed = 1;
nodes = (
(781,284,l),
(851,304,l),
(860,354,l),
(631,284,l),
(633,279,l)
);
},
{
closed = 1;
nodes = (
(685,542,l),
(618,595,o),
(507,632,o),
(424,632,cs),
(269,632,o),
(144,562,o),
(144,464,cs),
(144,352,o),
(501,182,o),
(682,65,c),
(869,-16,l),
(874,-6,l),
(723,115,l),
(551,228,o),
(224,383,o),
(224,485,cs),
(224,549,o),
(294,587,o),
(388,587,cs),
(469,587,o),
(551,566,o),
(599,531,c)
);
},
{
closed = 1;
nodes = (
(599,531,l),
(617,363,l),
(624,361,l),
(685,542,l)
);
}
);
width = 924;
},
{
associatedMasterId = "0CCC0E2D-406A-4672-8E6C-854B1DF78A27";
layerId = "FD9D652D-FA8A-4017-B589-1DAA66857ED9";
name = "8 Dec 21, 12:49";
shapes = (
{
closed = 1;
nodes = (
(60,58,o),
(224,-20,o),
(445,-20,cs),
(568.82,-20,o),
(659.839,4.861,o),
(723.936,46.835,c),
(869,-16,l),
(874,-6,l),
(766.095,80.467,l),
(825.782,138.448,o),
(851,217.021,o),
(851,304,c),
(781,284,l),
(781,219.317,o),
(763.571,159.822,o),
(723.987,114.209,c),
(550,228,o),
(224,383,o),
(224,485,cs),
(224,549,o),
(294,587,o),
(388,587,cs),
(469,587,o),
(551,566,o),
(599,531,c),
(617,363,l),
(624,361,l),
(685,542,l),
(618,595,o),
(507,632,o),
(424,632,cs),
(269,632,o),
(144,562,o),
(144,464,cs),
(144,426.833,o),
(183.314,383.279,o),
(242.463,337.395,c),
(146.699,319.926,o),
(60,254.494,o),
(60,169,cs)
);
},
{
closed = 1;
nodes = (
(140,254.068,o),
(222.246,303.327,o),
(280.557,309.349,c),
(397.417,227.187,o),
(563.586,140.338,o),
(672.721,70.947,c),
(625.788,42.017,o),
(562.139,25,o),
(479,25,cs),
(289,25,o),
(140,95,o),
(140,195,cs)
);
}
);
width = 924;
},
{
associatedMasterId = "0CCC0E2D-406A-4672-8E6C-854B1DF78A27";
layerId = "648DD6C3-A152-4474-B839-6E5A0DFDA1A0";
name = "8 Dec 21, 15:04";
shapes = (
{
closed = 1;
nodes = (
(808,387,o),
(807,338,o),
(792,284,cs),
(748,126,o),
(613,25,o),
(434,25,cs),
(247,25,o),
(154,168,o),
(192,315,cs),
(236,479,o),
(389,583,o),
(531,583,cs),
(625,583,o),
(651,557,o),
(634,493,cs),
(613,414,o),
(518,364,o),
(329,336,c),
(341,314,l),
(571,347,o),
(698,410,o),
(723,504,cs),
(744,585,o),
(682,620,o),
(538,620,cs),
(356,620,o),
(157,485,o),
(105,289,cs),
(64,135,o),
(167,-20,o),
(388,-20,cs),
(639,-20,o),
(811,96,o),
(864,295,cs),
(880,353,o),
(882,405,o),
(870,449,c),
(795,429,l)
);
},
{
closed = 1;
nodes = (
(185,296,l),
(974,296,l),
(985,336,l),
(196,336,l),
(123,339,l),
(1,304,l),
(0,294,l),
(111,294,l)
);
}
);
width = 985;
},
{
associatedMasterId = "0CCC0E2D-406A-4672-8E6C-854B1DF78A27";
layerId = "15FF4BD2-A3D4-476A-8A84-862877E93D8C";
name = "8 Dec 21, 15:12";
shapes = (
{
closed = 1;
nodes = (
(593,-2,o),
(557,-79,o),
(510,-106,c),
(520,-116,l),
(596,-89,o),
(663,16,o),
(663,108,cs),
(663,220,o),
(564,305,o),
(373,346,cs),
(274,367,o),
(224,403,o),
(224,473,cs),
(224,546,o),
(270,575,o),
(388,575,cs),
(470,575,o),
(530,562,o),
(579,533,c),
(616,393,l),
(624,391,l),
(665,544,l),
(585,597,o),
(513,620,o),
(424,620,cs),
(263,620,o),
(144,549,o),
(144,453,cs),
(144,402,o),
(176,358,o),
(228,334,c),
(129,313,o),
(60,246,o),
(60,169,cs),
(60,57,o),
(205,-20,o),
(415,-20,cs),
(669,-20,o),
(818,117,o),
(818,315,cs),
(818,336,o),
(816,366,o),
(811,390,c),
(582,323,l),
(584,315,l),
(748,320,l),
(753,135,o),
(644,25,o),
(449,25,cs),
(267,25,o),
(140,95,o),
(140,195,cs),
(140,260,o),
(192,297,o),
(288,300,c),
(487,267,o),
(593,186,o),
(593,68,cs)
);
}
);
width = 878;
},
{
associatedMasterId = "0CCC0E2D-406A-4672-8E6C-854B1DF78A27";
layerId = "149330EF-8134-4155-A05D-20989C4C3885";
name = "8 Dec 21, 15:49";
shapes = (
{
closed = 1;
nodes = (
(719,319,o),
(748,252,o),
(748,187,cs),
(748,91,o),
(638,29,o),
(469,29,cs),
(264,29,o),
(156,82,o),
(156,182,cs),
(156,266,o),
(244,310,o),
(437,309,cs),
(771,308,l),
(888,308,l),
(890,316,l),
(771,351,l),
(449,352,ls),
(317,352,o),
(224,408,o),
(224,473,cs),
(224,542,o),
(277,575,o),
(388,575,cs),
(460,575,o),
(532,559,o),
(579,533,c),
(616,393,l),
(624,391,l),
(665,544,l),
(584,598,o),
(514,620,o),
(424,620,cs),
(269,620,o),
(144,546,o),
(144,453,cs),
(144,378,o),
(207,335,o),
(390,317,c),
(387,341,l),
(191,343,o),
(70,267,o),
(70,159,cs),
(70,50,o),
(216,-20,o),
(445,-20,cs),
(666,-20,o),
(823,82,o),
(823,225,cs),
(823,279,o),
(804,323,o),
(741,419,c),
(661,389,l)
);
}
);
width = 900;
},
{
associatedMasterId = "0CCC0E2D-406A-4672-8E6C-854B1DF78A27";
layerId = "E6760DAA-42FE-49D0-AE15-00D5D9CD9B94";
name = "8 Dec 21, 15:42";
shapes = (
{
closed = 1;
nodes = (
(735,331,o),
(738,299,o),
(738,274,cs),
(738,110,o),
(639,25,o),
(449,25,cs),
(267,25,o),
(140,95,o),
(140,195,cs),
(140,270,o),
(207,311,o),
(328,309,c),
(340,342,l),
(274,355,o),
(224,411,o),
(224,473,cs),
(224,542,o),
(277,575,o),
(388,575,cs),
(465,575,o),
(535,560,o),
(579,533,c),
(616,403,l),
(624,401,l),
(665,544,l),
(585,597,o),
(513,620,o),
(424,620,cs),
(263,620,o),
(144,549,o),
(144,453,cs),
(144,388,o),
(197,336,o),
(281,317,c),
(278,341,l),
(155,334,o),
(60,259,o),
(60,169,cs),
(60,59,o),
(208,-20,o),
(415,-20,cs),
(669,-20,o),
(818,93,o),
(818,285,cs),
(818,312,o),
(816,341,o),
(811,369,c),
(731,349,l)
);
},
{
closed = 1;
nodes = (
(998,453,l),
(973,411,o),
(895,376,o),
(815,370,cs),
(678,360,ls),
(548,351,o),
(488,310,o),
(457,210,c),
(463,202,l),
(478,242,o),
(568,278,o),
(677,287,cs),
(835,300,ls),
(908,306,o),
(961,350,o),
(1009,448,c)
);
}
);
width = 924;
},
{
associatedMasterId = "0CCC0E2D-406A-4672-8E6C-854B1DF78A27";
layerId = "509A3F24-752E-42A8-9A8F-7189B0E6A4EA";
name = "12 Dec 21, 19:52";
shapes = (
{
closed = 1;
nodes = (
(715,330,o),
(748,252,o),
(748,187,cs),
(748,91,o),
(638,29,o),
(469,29,cs),
(264,29,o),
(156,82,o),
(156,182,cs),
(156,266,o),
(245,310,o),
(438,309,cs),
(781,308,l),
(876,308,l),
(878,316,l),
(776,351,l),
(450,352,ls),
(318,352,o),
(224,408,o),
(224,473,cs),
(224,542,o),
(277,575,o),
(388,575,cs),
(460,575,o),
(532,559,o),
(579,533,c),
(616,393,l),
(624,391,l),
(665,544,l),
(584,598,o),
(514,620,o),
(424,620,cs),
(269,620,o),
(144,546,o),
(144,453,cs),
(144,378,o),
(208,335,o),
(391,317,c),
(388,341,l),
(192,343,o),
(70,267,o),
(70,159,cs),
(70,50,o),
(216,-20,o),
(445,-20,cs),
(666,-20,o),
(823,82,o),
(823,225,cs),
(823,279,o),
(800,334,o),
(737,430,c),
(657,400,l)
);
}
);
width = 918;
},
{
associatedMasterId = "0CCC0E2D-406A-4672-8E6C-854B1DF78A27";
layerId = "FFF3563C-7220-4F10-9125-96659178194B";
name = "12 Dec 21, 19:52";
shapes = (
{
closed = 1;
nodes = (
(715,330,o),
(748,252,o),
(748,187,cs),
(748,91,o),
(638,29,o),
(469,29,cs),
(264,29,o),
(156,82,o),
(156,182,cs),
(156,266,o),
(245,310,o),
(438,309,cs),
(781,308,l),
(876,308,l),
(878,316,l),
(776,351,l),
(450,352,ls),
(318,352,o),
(224,408,o),
(224,473,cs),
(224,542,o),
(277,575,o),
(388,575,cs),
(460,575,o),
(532,559,o),
(579,533,c),
(616,393,l),
(624,391,l),
(665,544,l),
(584,598,o),
(514,620,o),
(424,620,cs),
(269,620,o),
(144,546,o),
(144,453,cs),
(144,378,o),
(208,335,o),
(391,317,c),
(388,341,l),
(192,343,o),
(70,267,o),
(70,159,cs),
(70,50,o),
(216,-20,o),
(445,-20,cs),
(666,-20,o),
(823,82,o),
(823,225,cs),
(823,279,o),
(800,334,o),
(737,430,c),
(657,400,l)
);
}
);
width = 918;
},
{
layerId = "0CCC0E2D-406A-4672-8E6C-854B1DF78A27";
name = Extended;
shapes = (
{
closed = 1;
nodes = (
(10,69,o),
(155,-20,o),
(362,-20,cs),
(622,-20,o),
(721,111,o),
(704,306,c),
(801,331,l),
(799,339,l),
(369,341,l),
(408,164,l),
(416,166,l),
(450,315,l),
(680,315,l),
(663,327,l),
(708,104,o),
(571,10,o),
(369,10,cs),
(177,10,o),
(49,98,o),
(49,185,cs),
(49,262,o),
(114,316,o),
(237,314,c),
(243,335,l),
(177,348,o),
(133,404,o),
(133,466,cs),
(133,549,o),
(197,595,o),
(332,595,cs),
(412,595,o),
(462,582,o),
(503,563,c),
(530,408,l),
(538,406,l),
(589,559,l),
(517,600,o),
(419,625,o),
(338,625,cs),
(177,625,o),
(94,559,o),
(94,463,cs),
(94,402,o),
(131,340,o),
(209,319,c),
(212,339,l),
(92,329,o),
(10,265,o),
(10,179,cs)
);
}
);
width = 761;
},
{
associatedMasterId = m002;
layerId = "956F5D53-C103-4E3A-98D1-A0934A9EA7B1";
name = "Oct 1 18, 14:02";
shapes = (
{
closed = 1;
nodes = (
(396,329,l),
(196,329,o),
(60,254,o),
(60,169,cs),
(60,58,o),
(224,-20,o),
(455,-20,cs),
(685,-20,o),
(881,65,o),
(881,305,c),
(811,284,l),
(811,85,o),
(657,25,o),
(499,25,cs),
(289,25,o),
(140,95,o),
(140,195,cs),
(140,247,o),
(264,304,o),
(406,296,c)
);
},
{
closed = 1;
nodes = (
(174,384,o),
(386,255,o),
(580,132,c),
(869,-16,l),
(874,-6,l),
(611,188,l),
(439,301,o),
(254,415,o),
(254,489,cs),
(254,544,o),
(292,579,o),
(413,579,cs),
(556,579,o),
(641,526,o),
(641,451,cs),
(641,403,o),
(604,351,o),
(396,329,c),
(406,296,l),
(644,322,o),
(721,402,o),
(721,476,cs),
(721,563,o),
(610,624,o),
(449,624,cs),
(269,624,o),
(174,559,o),
(174,468,cs)
);
},
{
closed = 1;
nodes = (
(811,284,l),
(881,304,l),
(890,354,l),
(661,284,l),
(663,279,l)
);
}
);
width = 908;
},
{
associatedMasterId = m002;
layerId = "01AB8EA7-1E1B-4186-8C37-1BF14B49FF9D";
name = "Extended Oct 1 18, 14:24";
shapes = (
{
closed = 1;
nodes = (
(330,329,l),
(216,330,o),
(60,270,o),
(60,169,cs),
(60,58,o),
(214,-20,o),
(435,-20,cs),
(675,-20,o),
(861,117,o),
(861,305,c),
(791,284,l),
(791,137,o),
(647,25,o),
(479,25,cs),
(279,25,o),
(140,95,o),
(140,195,cs),
(140,263,o),
(284,305,o),
(340,296,c)
);
},
{
closed = 1;
nodes = (
(791,284,l),
(861,304,l),
(870,354,l),
(641,284,l),
(643,279,l)
);
},
{
closed = 1;
nodes = (
(715,542,l),
(648,595,o),
(522,632,o),
(439,632,cs),
(284,632,o),
(154,562,o),
(154,464,cs),
(154,352,o),
(391,264,o),
(580,132,cs),
(676,65,o),
(773,33,o),
(869,-16,c),
(874,-6,l),
(786,59,o),
(699,123,o),
(611,188,cs),
(439,301,o),
(234,383,o),
(234,485,cs),
(234,549,o),
(309,587,o),
(403,587,cs),
(484,587,o),
(581,566,o),
(629,531,c)
);
},
{
closed = 1;
nodes = (
(629,531,l),
(647,363,l),
(654,361,l),
(715,542,l)
);
}
);
width = 908;
},
{
associatedMasterId = m002;
layerId = "B92B3D9D-B028-4200-8D57-254AE0A78C99";
name = "Oct 1 18, 14:41";
shapes = (
{
closed = 1;
nodes = (
(295,342,l),
(181,343,o),
(60,270,o),
(60,169,cs),
(60,58,o),
(224,-20,o),
(445,-20,cs),
(743,-20,o),
(851,124,o),
(851,304,c),
(781,284,l),
(781,142,o),
(697,25,o),
(479,25,cs),
(289,25,o),
(140,95,o),
(140,195,cs),
(140,263,o),
(249,318,o),
(305,309,c)
);
},
{
closed = 1;
nodes = (
(781,284,l),
(851,304,l),
(860,354,l),
(631,284,l),
(633,279,l)
);
},
{
closed = 1;
nodes = (
(685,542,l),
(618,595,o),
(507,632,o),
(424,632,cs),
(269,632,o),
(144,562,o),
(144,464,cs),
(144,352,o),
(501,182,o),
(682,65,c),
(869,-16,l),
(874,-6,l),
(723,115,l),
(551,228,o),
(224,383,o),
(224,485,cs),
(224,549,o),
(294,587,o),
(388,587,cs),
(469,587,o),
(551,566,o),
(599,531,c)
);
},
{
closed = 1;
nodes = (
(599,531,l),
(617,363,l),
(624,361,l),
(685,542,l)
);
}
);
width = 924;
},
{
associatedMasterId = m002;
layerId = "897B02FC-4699-404D-8A33-E64C180B76E6";
name = "Oct 1 18, 14:02";
shapes = (
{
closed = 1;
nodes = (
(396,329,l),
(196,329,o),
(60,254,o),
(60,169,cs),
(60,58,o),
(224,-20,o),
(455,-20,cs),
(685,-20,o),
(881,65,o),
(881,305,c),
(811,284,l),
(811,85,o),
(657,25,o),
(499,25,cs),
(289,25,o),
(140,95,o),
(140,195,cs),
(140,247,o),
(264,304,o),
(406,296,c)
);
},
{
closed = 1;
nodes = (
(174,384,o),
(386,255,o),
(580,132,c),
(869,-16,l),
(874,-6,l),
(611,188,l),
(439,301,o),
(254,415,o),
(254,489,cs),
(254,544,o),
(292,579,o),
(413,579,cs),
(556,579,o),
(641,526,o),
(641,451,cs),
(641,403,o),
(604,351,o),
(396,329,c),
(406,296,l),
(644,322,o),
(721,402,o),
(721,476,cs),
(721,563,o),
(610,624,o),
(449,624,cs),
(269,624,o),
(174,559,o),
(174,468,cs)
);
},
{
closed = 1;
nodes = (
(811,284,l),
(881,304,l),
(890,354,l),
(661,284,l),
(663,279,l)
);
}
);
width = 908;
},
{
associatedMasterId = m002;
layerId = "ECE1184B-9A24-44A0-8751-39994C2E16BD";
name = "Extended Oct 1 18, 14:24";
shapes = (
{
closed = 1;
nodes = (
(330,329,l),
(216,330,o),
(60,270,o),
(60,169,cs),
(60,58,o),
(214,-20,o),
(435,-20,cs),
(675,-20,o),
(861,117,o),
(861,305,c),
(791,284,l),
(791,137,o),
(647,25,o),
(479,25,cs),
(279,25,o),
(140,95,o),
(140,195,cs),
(140,263,o),
(284,305,o),
(340,296,c)
);
},
{
closed = 1;
nodes = (
(791,284,l),
(861,304,l),
(870,354,l),
(641,284,l),
(643,279,l)
);
},
{
closed = 1;
nodes = (
(715,542,l),
(648,595,o),
(522,632,o),
(439,632,cs),
(284,632,o),
(154,562,o),
(154,464,cs),
(154,352,o),
(391,264,o),
(580,132,cs),
(676,65,o),
(773,33,o),
(869,-16,c),
(874,-6,l),
(786,59,o),
(699,123,o),
(611,188,cs),
(439,301,o),
(234,383,o),
(234,485,cs),
(234,549,o),
(309,587,o),
(403,587,cs),
(484,587,o),
(581,566,o),
(629,531,c)
);
},
{
closed = 1;
nodes = (
(629,531,l),
(647,363,l),
(654,361,l),
(715,542,l)
);
}
);
width = 908;
},
{
associatedMasterId = m002;
layerId = "29C7B9DF-42EA-4F7F-BF58-E5B2B130248B";
name = "Oct 1 18, 14:41";
shapes = (
{
closed = 1;
nodes = (
(295,342,l),
(181,343,o),
(60,270,o),
(60,169,cs),
(60,58,o),
(224,-20,o),
(445,-20,cs),
(743,-20,o),
(851,124,o),
(851,304,c),
(781,284,l),
(781,142,o),
(697,25,o),
(479,25,cs),
(289,25,o),
(140,95,o),
(140,195,cs),
(140,263,o),
(249,318,o),
(305,309,c)
);
},
{
closed = 1;
nodes = (
(781,284,l),
(851,304,l),
(860,354,l),
(631,284,l),
(633,279,l)
);
},
{
closed = 1;
nodes = (
(685,542,l),
(618,595,o),
(507,632,o),
(424,632,cs),
(269,632,o),
(144,562,o),
(144,464,cs),
(144,352,o),
(501,182,o),
(682,65,c),
(869,-16,l),
(874,-6,l),
(723,115,l),
(551,228,o),
(224,383,o),
(224,485,cs),
(224,549,o),
(294,587,o),
(388,587,cs),
(469,587,o),
(551,566,o),
(599,531,c)
);
},
{
closed = 1;
nodes = (
(599,531,l),
(617,363,l),
(624,361,l),
(685,542,l)
);
}
);
width = 924;
},
{
associatedMasterId = m002;
layerId = "94D757DA-7530-4F34-8C4C-03F468CEFBF6";
name = "8 Dec 21, 12:49";
shapes = (
{
closed = 1;
nodes = (
(60,58,o),
(224,-20,o),
(445,-20,cs),
(568.82,-20,o),
(659.839,4.861,o),
(723.936,46.835,c),
(869,-16,l),
(874,-6,l),
(766.095,80.467,l),
(825.782,138.448,o),
(851,217.021,o),
(851,304,c),
(781,284,l),
(781,219.317,o),
(763.571,159.822,o),
(723.987,114.209,c),
(550,228,o),
(224,383,o),
(224,485,cs),
(224,549,o),
(294,587,o),
(388,587,cs),
(469,587,o),
(551,566,o),
(599,531,c),
(617,363,l),
(624,361,l),
(685,542,l),
(618,595,o),
(507,632,o),
(424,632,cs),
(269,632,o),
(144,562,o),
(144,464,cs),
(144,426.833,o),
(183.314,383.279,o),
(242.463,337.395,c),
(146.699,319.926,o),
(60,254.494,o),
(60,169,cs)
);
},
{
closed = 1;
nodes = (
(140,254.068,o),
(222.246,303.327,o),
(280.557,309.349,c),
(397.417,227.187,o),
(563.586,140.338,o),
(672.721,70.947,c),
(625.788,42.017,o),
(562.139,25,o),
(479,25,cs),
(289,25,o),
(140,95,o),
(140,195,cs)
);
}
);
width = 924;
},
{
associatedMasterId = m002;
layerId = "C84EE84F-38EA-4261-8896-C558982926AE";
name = "8 Dec 21, 15:04";
shapes = (
{
closed = 1;
nodes = (
(808,387,o),
(807,338,o),
(792,284,cs),
(748,126,o),
(613,25,o),
(434,25,cs),
(247,25,o),
(154,168,o),
(192,315,cs),
(236,479,o),
(389,583,o),
(531,583,cs),
(625,583,o),
(651,557,o),
(634,493,cs),
(613,414,o),
(518,364,o),
(329,336,c),
(341,314,l),
(571,347,o),
(698,410,o),
(723,504,cs),
(744,585,o),
(682,620,o),
(538,620,cs),
(356,620,o),
(157,485,o),
(105,289,cs),
(64,135,o),
(167,-20,o),
(388,-20,cs),
(639,-20,o),
(811,96,o),
(864,295,cs),
(880,353,o),
(882,405,o),
(870,449,c),
(795,429,l)
);
},
{
closed = 1;
nodes = (
(185,296,l),
(974,296,l),
(985,336,l),
(196,336,l),
(123,339,l),
(1,304,l),
(0,294,l),
(111,294,l)
);
}
);
width = 985;
},
{
associatedMasterId = m002;
layerId = "115CF86A-33DB-4A19-9D33-1B246CA3B399";
name = "8 Dec 21, 15:12";
shapes = (
{
closed = 1;
nodes = (
(593,-2,o),
(557,-79,o),
(510,-106,c),
(520,-116,l),
(596,-89,o),
(663,16,o),
(663,108,cs),
(663,220,o),
(564,305,o),
(373,346,cs),
(274,367,o),
(224,403,o),
(224,473,cs),
(224,546,o),
(270,575,o),
(388,575,cs),
(470,575,o),
(530,562,o),
(579,533,c),
(616,393,l),
(624,391,l),
(665,544,l),
(585,597,o),
(513,620,o),
(424,620,cs),
(263,620,o),
(144,549,o),
(144,453,cs),
(144,402,o),
(176,358,o),
(228,334,c),
(129,313,o),
(60,246,o),
(60,169,cs),
(60,57,o),
(205,-20,o),
(415,-20,cs),
(669,-20,o),
(818,117,o),
(818,315,cs),
(818,336,o),
(816,366,o),
(811,390,c),
(582,323,l),
(584,315,l),
(748,320,l),
(753,135,o),
(644,25,o),
(449,25,cs),
(267,25,o),
(140,95,o),
(140,195,cs),
(140,260,o),
(192,297,o),
(288,300,c),
(487,267,o),
(593,186,o),
(593,68,cs)
);
}
);
width = 878;
},
{
associatedMasterId = m002;
layerId = "06CE656D-B7FA-4188-95B4-C3D165C4AC56";
name = "8 Dec 21, 15:49";
shapes = (
{
closed = 1;
nodes = (
(719,319,o),
(748,252,o),
(748,187,cs),
(748,91,o),
(638,29,o),
(469,29,cs),
(264,29,o),
(156,82,o),
(156,182,cs),
(156,266,o),
(244,310,o),
(437,309,cs),
(771,308,l),
(888,308,l),
(890,316,l),
(771,351,l),
(449,352,ls),
(317,352,o),
(224,408,o),
(224,473,cs),
(224,542,o),
(277,575,o),
(388,575,cs),
(460,575,o),
(532,559,o),
(579,533,c),
(616,393,l),
(624,391,l),
(665,544,l),
(584,598,o),
(514,620,o),
(424,620,cs),
(269,620,o),
(144,546,o),
(144,453,cs),
(144,378,o),
(207,335,o),
(390,317,c),
(387,341,l),
(191,343,o),
(70,267,o),
(70,159,cs),
(70,50,o),
(216,-20,o),
(445,-20,cs),
(666,-20,o),
(823,82,o),
(823,225,cs),
(823,279,o),
(804,323,o),
(741,419,c),
(661,389,l)
);
}
);
width = 900;
},
{
associatedMasterId = m002;
layerId = "5FE0F365-EA40-47AB-AEE0-8CBC2BFB92C5";
name = "8 Dec 21, 15:42";
shapes = (
{
closed = 1;
nodes = (
(735,331,o),
(738,299,o),
(738,274,cs),
(738,110,o),
(639,25,o),
(449,25,cs),
(267,25,o),
(140,95,o),
(140,195,cs),
(140,270,o),
(207,311,o),
(328,309,c),
(340,342,l),
(274,355,o),
(224,411,o),
(224,473,cs),
(224,542,o),
(277,575,o),
(388,575,cs),
(465,575,o),
(535,560,o),
(579,533,c),
(616,403,l),
(624,401,l),
(665,544,l),
(585,597,o),
(513,620,o),
(424,620,cs),
(263,620,o),
(144,549,o),
(144,453,cs),
(144,388,o),
(197,336,o),
(281,317,c),
(278,341,l),
(155,334,o),
(60,259,o),
(60,169,cs),
(60,59,o),
(208,-20,o),
(415,-20,cs),
(669,-20,o),
(818,93,o),
(818,285,cs),
(818,312,o),
(816,341,o),
(811,369,c),
(731,349,l)
);
},
{
closed = 1;
nodes = (
(998,453,l),
(973,411,o),
(895,376,o),
(815,370,cs),
(678,360,ls),
(548,351,o),
(488,310,o),
(457,210,c),
(463,202,l),
(478,242,o),
(568,278,o),
(677,287,cs),
(835,300,ls),
(908,306,o),
(961,350,o),
(1009,448,c)
);
}
);
width = 924;
},
{
associatedMasterId = m002;
layerId = "A4502EC4-CE21-4E7C-A756-0FA97F21B865";
name = "12 Dec 21, 19:52";
shapes = (
{
closed = 1;
nodes = (
(715,330,o),
(748,252,o),
(748,187,cs),
(748,91,o),
(638,29,o),
(469,29,cs),
(264,29,o),
(156,82,o),
(156,182,cs),
(156,266,o),
(245,310,o),
(438,309,cs),
(781,308,l),
(876,308,l),
(878,316,l),
(776,351,l),
(450,352,ls),
(318,352,o),
(224,408,o),
(224,473,cs),
(224,542,o),
(277,575,o),
(388,575,cs),
(460,575,o),
(532,559,o),
(579,533,c),
(616,393,l),
(624,391,l),
(665,544,l),
(584,598,o),
(514,620,o),
(424,620,cs),
(269,620,o),
(144,546,o),
(144,453,cs),
(144,378,o),
(208,335,o),
(391,317,c),
(388,341,l),
(192,343,o),
(70,267,o),
(70,159,cs),
(70,50,o),
(216,-20,o),
(445,-20,cs),
(666,-20,o),
(823,82,o),
(823,225,cs),
(823,279,o),
(800,334,o),
(737,430,c),
(657,400,l)
);
}
);
width = 918;
},
{
associatedMasterId = m002;
layerId = "453B1FDD-04DB-4EB8-A416-113B2ED646AA";
name = "12 Dec 21, 19:52";
shapes = (
{
closed = 1;
nodes = (
(715,330,o),
(748,252,o),
(748,187,cs),
(748,91,o),
(638,29,o),
(469,29,cs),
(264,29,o),
(156,82,o),
(156,182,cs),
(156,266,o),
(245,310,o),
(438,309,cs),
(781,308,l),
(876,308,l),
(878,316,l),
(776,351,l),
(450,352,ls),
(318,352,o),
(224,408,o),
(224,473,cs),
(224,542,o),
(277,575,o),
(388,575,cs),
(460,575,o),
(532,559,o),
(579,533,c),
(616,393,l),
(624,391,l),
(665,544,l),
(584,598,o),
(514,620,o),
(424,620,cs),
(269,620,o),
(144,546,o),
(144,453,cs),
(144,378,o),
(208,335,o),
(391,317,c),
(388,341,l),
(192,343,o),
(70,267,o),
(70,159,cs),
(70,50,o),
(216,-20,o),
(445,-20,cs),
(666,-20,o),
(823,82,o),
(823,225,cs),
(823,279,o),
(800,334,o),
(737,430,c),
(657,400,l)
);
}
);
width = 918;
},
{
layerId = m002;
name = Extended;
shapes = (
{
closed = 1;
nodes = (
(-6,53,o),
(145,-20,o),
(351,-20,cs),
(608,-20,o),
(783,111,o),
(766,306,c),
(863,331,l),
(861,339,l),
(394,357,l),
(433,148,l),
(441,150,l),
(475,299,l),
(742,299,l),
(673,327,l),
(718,138,o),
(604,34,o),
(399,34,cs),
(207,34,o),
(96,114,o),
(96,201,cs),
(96,276,o),
(161,308,o),
(284,306,c),
(300,346,l),
(232,359,o),
(180,417,o),
(180,477,cs),
(180,531,o),
(226,571,o),
(325,571,cs),
(408,571,o),
(473,558,o),
(528,525,c),
(570,392,l),
(578,390,l),
(614,559,l),
(540,601,o),
(456,625,o),
(378,625,cs),
(216,625,o),
(78,543,o),
(78,447,cs),
(78,389,o),
(116,341,o),
(198,319,c),
(201,339,l),
(79,329,o),
(-6,248,o),
(-6,163,cs)
);
}
);
width = 839;
},
{
associatedMasterId = m003;
layerId = "2E82B84E-2C12-4A0E-9D72-03B928A73FB6";
name = "Oct 1 18, 14:02";
shapes = (
{
closed = 1;
nodes = (
(396,329,l),
(196,329,o),
(60,254,o),
(60,169,cs),
(60,58,o),
(224,-20,o),
(455,-20,cs),
(685,-20,o),
(881,65,o),
(881,305,c),
(811,284,l),
(811,85,o),
(657,25,o),
(499,25,cs),
(289,25,o),
(140,95,o),
(140,195,cs),
(140,247,o),
(264,304,o),
(406,296,c)
);
},
{
closed = 1;
nodes = (
(174,384,o),
(386,255,o),
(580,132,c),
(869,-16,l),
(874,-6,l),
(611,188,l),
(439,301,o),
(254,415,o),
(254,489,cs),
(254,544,o),
(292,579,o),
(413,579,cs),
(556,579,o),
(641,526,o),
(641,451,cs),
(641,403,o),
(604,351,o),
(396,329,c),
(406,296,l),
(644,322,o),
(721,402,o),
(721,476,cs),
(721,563,o),
(610,624,o),
(449,624,cs),
(269,624,o),
(174,559,o),
(174,468,cs)
);
},
{
closed = 1;
nodes = (
(811,284,l),
(881,304,l),
(890,354,l),
(661,284,l),
(663,279,l)
);
}
);
width = 908;
},
{
associatedMasterId = m003;
layerId = "DBF16E7C-5D1B-4AD2-9BE0-AF17D4D7F48B";
name = "Extended Oct 1 18, 14:24";
shapes = (
{
closed = 1;
nodes = (
(330,329,l),
(216,330,o),
(60,270,o),
(60,169,cs),
(60,58,o),
(214,-20,o),
(435,-20,cs),
(675,-20,o),
(861,117,o),
(861,305,c),
(791,284,l),
(791,137,o),
(647,25,o),
(479,25,cs),
(279,25,o),
(140,95,o),
(140,195,cs),
(140,263,o),
(284,305,o),
(340,296,c)
);
},
{
closed = 1;
nodes = (
(791,284,l),
(861,304,l),
(870,354,l),
(641,284,l),
(643,279,l)
);
},
{
closed = 1;
nodes = (
(715,542,l),
(648,595,o),
(522,632,o),
(439,632,cs),
(284,632,o),
(154,562,o),
(154,464,cs),
(154,352,o),
(391,264,o),
(580,132,cs),
(676,65,o),
(773,33,o),
(869,-16,c),
(874,-6,l),
(786,59,o),
(699,123,o),
(611,188,cs),
(439,301,o),
(234,383,o),
(234,485,cs),
(234,549,o),
(309,587,o),
(403,587,cs),
(484,587,o),
(581,566,o),
(629,531,c)
);
},
{
closed = 1;
nodes = (
(629,531,l),
(647,363,l),
(654,361,l),
(715,542,l)
);
}
);
width = 908;
},
{
associatedMasterId = m003;
layerId = "38BE6C52-8492-42F1-ADF7-039F726ACF37";
name = "Oct 1 18, 14:41";
shapes = (
{
closed = 1;
nodes = (
(295,342,l),
(181,343,o),
(60,270,o),
(60,169,cs),
(60,58,o),
(224,-20,o),
(445,-20,cs),
(743,-20,o),
(851,124,o),
(851,304,c),
(781,284,l),
(781,142,o),
(697,25,o),
(479,25,cs),
(289,25,o),
(140,95,o),
(140,195,cs),
(140,263,o),
(249,318,o),
(305,309,c)
);
},
{
closed = 1;
nodes = (
(781,284,l),
(851,304,l),
(860,354,l),
(631,284,l),
(633,279,l)
);
},
{
closed = 1;
nodes = (
(685,542,l),
(618,595,o),
(507,632,o),
(424,632,cs),
(269,632,o),
(144,562,o),
(144,464,cs),
(144,352,o),
(501,182,o),
(682,65,c),
(869,-16,l),
(874,-6,l),
(723,115,l),
(551,228,o),
(224,383,o),
(224,485,cs),
(224,549,o),
(294,587,o),
(388,587,cs),
(469,587,o),
(551,566,o),
(599,531,c)
);
},
{
closed = 1;
nodes = (
(599,531,l),
(617,363,l),
(624,361,l),
(685,542,l)
);
}
);
width = 924;
},
{
associatedMasterId = m003;
layerId = "6EFDBEC0-07C5-4D4D-93EA-541C9BE6D44C";
name = "Oct 1 18, 14:02";
shapes = (
{
closed = 1;
nodes = (
(396,329,l),
(196,329,o),
(60,254,o),
(60,169,cs),
(60,58,o),
(224,-20,o),
(455,-20,cs),
(685,-20,o),
(881,65,o),
(881,305,c),
(811,284,l),
(811,85,o),
(657,25,o),
(499,25,cs),
(289,25,o),
(140,95,o),
(140,195,cs),
(140,247,o),
(264,304,o),
(406,296,c)
);
},
{
closed = 1;
nodes = (
(174,384,o),
(386,255,o),
(580,132,c),
(869,-16,l),
(874,-6,l),
(611,188,l),
(439,301,o),
(254,415,o),
(254,489,cs),
(254,544,o),
(292,579,o),
(413,579,cs),
(556,579,o),
(641,526,o),
(641,451,cs),
(641,403,o),
(604,351,o),
(396,329,c),
(406,296,l),
(644,322,o),
(721,402,o),
(721,476,cs),
(721,563,o),
(610,624,o),
(449,624,cs),
(269,624,o),
(174,559,o),
(174,468,cs)
);
},
{
closed = 1;
nodes = (
(811,284,l),
(881,304,l),
(890,354,l),
(661,284,l),
(663,279,l)
);
}
);
width = 908;
},
{
associatedMasterId = m003;
layerId = "EBF1D8CA-7B9D-4B06-AE25-199A4CFA412F";
name = "Extended Oct 1 18, 14:24";
shapes = (
{
closed = 1;
nodes = (
(330,329,l),
(216,330,o),
(60,270,o),
(60,169,cs),
(60,58,o),
(214,-20,o),
(435,-20,cs),
(675,-20,o),
(861,117,o),
(861,305,c),
(791,284,l),
(791,137,o),
(647,25,o),
(479,25,cs),
(279,25,o),
(140,95,o),
(140,195,cs),
(140,263,o),
(284,305,o),
(340,296,c)
);
},
{
closed = 1;
nodes = (
(791,284,l),
(861,304,l),
(870,354,l),
(641,284,l),
(643,279,l)
);
},
{
closed = 1;
nodes = (
(715,542,l),
(648,595,o),
(522,632,o),
(439,632,cs),
(284,632,o),
(154,562,o),
(154,464,cs),
(154,352,o),
(391,264,o),
(580,132,cs),
(676,65,o),
(773,33,o),
(869,-16,c),
(874,-6,l),
(786,59,o),
(699,123,o),
(611,188,cs),
(439,301,o),
(234,383,o),
(234,485,cs),
(234,549,o),
(309,587,o),
(403,587,cs),
(484,587,o),
(581,566,o),
(629,531,c)
);
},
{
closed = 1;
nodes = (
(629,531,l),
(647,363,l),
(654,361,l),
(715,542,l)
);
}
);
width = 908;
},
{
associatedMasterId = m003;
layerId = "E3F4E7BC-4A00-4F62-BFCB-4269E7D5323B";
name = "Oct 1 18, 14:41";
shapes = (
{
closed = 1;
nodes = (
(295,342,l),
(181,343,o),
(60,270,o),
(60,169,cs),
(60,58,o),
(224,-20,o),
(445,-20,cs),
(743,-20,o),
(851,124,o),
(851,304,c),
(781,284,l),
(781,142,o),
(697,25,o),
(479,25,cs),
(289,25,o),
(140,95,o),
(140,195,cs),
(140,263,o),
(249,318,o),
(305,309,c)
);
},
{
closed = 1;
nodes = (
(781,284,l),
(851,304,l),
(860,354,l),
(631,284,l),
(633,279,l)
);
},
{
closed = 1;
nodes = (
(685,542,l),
(618,595,o),
(507,632,o),
(424,632,cs),
(269,632,o),
(144,562,o),
(144,464,cs),
(144,352,o),
(501,182,o),
(682,65,c),
(869,-16,l),
(874,-6,l),
(723,115,l),
(551,228,o),
(224,383,o),
(224,485,cs),
(224,549,o),
(294,587,o),
(388,587,cs),
(469,587,o),
(551,566,o),
(599,531,c)
);
},
{
closed = 1;
nodes = (
(599,531,l),
(617,363,l),
(624,361,l),
(685,542,l)
);
}
);
width = 924;
},
{
associatedMasterId = m003;
layerId = "7B605DAC-4F52-4CDA-9EC7-EB72D5112A5C";
name = "8 Dec 21, 12:49";
shapes = (
{
closed = 1;
nodes = (
(60,58,o),
(224,-20,o),
(445,-20,cs),
(568.82,-20,o),
(659.839,4.861,o),
(723.936,46.835,c),
(869,-16,l),
(874,-6,l),
(766.095,80.467,l),
(825.782,138.448,o),
(851,217.021,o),
(851,304,c),
(781,284,l),
(781,219.317,o),
(763.571,159.822,o),
(723.987,114.209,c),
(550,228,o),
(224,383,o),
(224,485,cs),
(224,549,o),
(294,587,o),
(388,587,cs),
(469,587,o),
(551,566,o),
(599,531,c),
(617,363,l),
(624,361,l),
(685,542,l),
(618,595,o),
(507,632,o),
(424,632,cs),
(269,632,o),
(144,562,o),
(144,464,cs),
(144,426.833,o),
(183.314,383.279,o),
(242.463,337.395,c),
(146.699,319.926,o),
(60,254.494,o),
(60,169,cs)
);
},
{
closed = 1;
nodes = (
(140,254.068,o),
(222.246,303.327,o),
(280.557,309.349,c),
(397.417,227.187,o),
(563.586,140.338,o),
(672.721,70.947,c),
(625.788,42.017,o),
(562.139,25,o),
(479,25,cs),
(289,25,o),
(140,95,o),
(140,195,cs)
);
}
);
width = 924;
},
{
associatedMasterId = m003;
layerId = "D1C199B0-055B-4370-94E0-F6A89929EB7C";
name = "8 Dec 21, 15:04";
shapes = (
{
closed = 1;
nodes = (
(808,387,o),
(807,338,o),
(792,284,cs),
(748,126,o),
(613,25,o),
(434,25,cs),
(247,25,o),
(154,168,o),
(192,315,cs),
(236,479,o),
(389,583,o),
(531,583,cs),
(625,583,o),
(651,557,o),
(634,493,cs),
(613,414,o),
(518,364,o),
(329,336,c),
(341,314,l),
(571,347,o),
(698,410,o),
(723,504,cs),
(744,585,o),
(682,620,o),
(538,620,cs),
(356,620,o),
(157,485,o),
(105,289,cs),
(64,135,o),
(167,-20,o),
(388,-20,cs),
(639,-20,o),
(811,96,o),
(864,295,cs),
(880,353,o),
(882,405,o),
(870,449,c),
(795,429,l)
);
},
{
closed = 1;
nodes = (
(185,296,l),
(974,296,l),
(985,336,l),
(196,336,l),
(123,339,l),
(1,304,l),
(0,294,l),
(111,294,l)
);
}
);
width = 985;
},
{
associatedMasterId = m003;
layerId = "ED25453C-FAC4-4049-94C0-2F86DD3B5A04";
name = "8 Dec 21, 15:12";
shapes = (
{
closed = 1;
nodes = (
(593,-2,o),
(557,-79,o),
(510,-106,c),
(520,-116,l),
(596,-89,o),
(663,16,o),
(663,108,cs),
(663,220,o),
(564,305,o),
(373,346,cs),
(274,367,o),
(224,403,o),
(224,473,cs),
(224,546,o),
(270,575,o),
(388,575,cs),
(470,575,o),
(530,562,o),
(579,533,c),
(616,393,l),
(624,391,l),
(665,544,l),
(585,597,o),
(513,620,o),
(424,620,cs),
(263,620,o),
(144,549,o),
(144,453,cs),
(144,402,o),
(176,358,o),
(228,334,c),
(129,313,o),
(60,246,o),
(60,169,cs),
(60,57,o),
(205,-20,o),
(415,-20,cs),
(669,-20,o),
(818,117,o),
(818,315,cs),
(818,336,o),
(816,366,o),
(811,390,c),
(582,323,l),
(584,315,l),
(748,320,l),
(753,135,o),
(644,25,o),
(449,25,cs),
(267,25,o),
(140,95,o),
(140,195,cs),
(140,260,o),
(192,297,o),
(288,300,c),
(487,267,o),
(593,186,o),
(593,68,cs)
);
}
);
width = 878;
},
{
associatedMasterId = m003;
layerId = "7A8D54BB-B479-44A8-A61F-17F04FF90751";
name = "8 Dec 21, 15:49";
shapes = (
{
closed = 1;
nodes = (
(719,319,o),
(748,252,o),
(748,187,cs),
(748,91,o),
(638,29,o),
(469,29,cs),
(264,29,o),
(156,82,o),
(156,182,cs),
(156,266,o),
(244,310,o),
(437,309,cs),
(771,308,l),
(888,308,l),
(890,316,l),
(771,351,l),
(449,352,ls),
(317,352,o),
(224,408,o),
(224,473,cs),
(224,542,o),
(277,575,o),
(388,575,cs),
(460,575,o),
(532,559,o),
(579,533,c),
(616,393,l),
(624,391,l),
(665,544,l),
(584,598,o),
(514,620,o),
(424,620,cs),
(269,620,o),
(144,546,o),
(144,453,cs),
(144,378,o),
(207,335,o),
(390,317,c),
(387,341,l),
(191,343,o),
(70,267,o),
(70,159,cs),
(70,50,o),
(216,-20,o),
(445,-20,cs),
(666,-20,o),
(823,82,o),
(823,225,cs),
(823,279,o),
(804,323,o),
(741,419,c),
(661,389,l)
);
}
);
width = 900;
},
{
associatedMasterId = m003;
layerId = "A569EF65-0739-47F1-A11F-CADC26B1365D";
name = "8 Dec 21, 15:42";
shapes = (
{
closed = 1;
nodes = (
(735,331,o),
(738,299,o),
(738,274,cs),
(738,110,o),
(639,25,o),
(449,25,cs),
(267,25,o),
(140,95,o),
(140,195,cs),
(140,270,o),
(207,311,o),
(328,309,c),
(340,342,l),
(274,355,o),
(224,411,o),
(224,473,cs),
(224,542,o),
(277,575,o),
(388,575,cs),
(465,575,o),
(535,560,o),
(579,533,c),
(616,403,l),
(624,401,l),
(665,544,l),
(585,597,o),
(513,620,o),
(424,620,cs),
(263,620,o),
(144,549,o),
(144,453,cs),
(144,388,o),
(197,336,o),
(281,317,c),
(278,341,l),
(155,334,o),
(60,259,o),
(60,169,cs),
(60,59,o),
(208,-20,o),
(415,-20,cs),
(669,-20,o),
(818,93,o),
(818,285,cs),
(818,312,o),
(816,341,o),
(811,369,c),
(731,349,l)
);
},
{
closed = 1;
nodes = (
(998,453,l),
(973,411,o),
(895,376,o),
(815,370,cs),
(678,360,ls),
(548,351,o),
(488,310,o),
(457,210,c),
(463,202,l),
(478,242,o),
(568,278,o),
(677,287,cs),
(835,300,ls),
(908,306,o),
(961,350,o),
(1009,448,c)
);
}
);
width = 924;
},
{
associatedMasterId = m003;
layerId = "B07CD2F7-3694-4B93-A2AF-25C9CA15E155";
name = "12 Dec 21, 19:52";
shapes = (
{
closed = 1;
nodes = (
(715,330,o),
(748,252,o),
(748,187,cs),
(748,91,o),
(638,29,o),
(469,29,cs),
(264,29,o),
(156,82,o),
(156,182,cs),
(156,266,o),
(245,310,o),
(438,309,cs),
(781,308,l),
(876,308,l),
(878,316,l),
(776,351,l),
(450,352,ls),
(318,352,o),
(224,408,o),
(224,473,cs),
(224,542,o),
(277,575,o),
(388,575,cs),
(460,575,o),
(532,559,o),
(579,533,c),
(616,393,l),
(624,391,l),
(665,544,l),
(584,598,o),
(514,620,o),
(424,620,cs),
(269,620,o),
(144,546,o),
(144,453,cs),
(144,378,o),
(208,335,o),
(391,317,c),
(388,341,l),
(192,343,o),
(70,267,o),
(70,159,cs),
(70,50,o),
(216,-20,o),
(445,-20,cs),
(666,-20,o),
(823,82,o),
(823,225,cs),
(823,279,o),
(800,334,o),
(737,430,c),
(657,400,l)
);
}
);
width = 918;
},
{
associatedMasterId = m003;
layerId = "A60495C2-93AA-4393-AE17-498B519921EB";
name = "12 Dec 21, 19:52";
shapes = (
{
closed = 1;
nodes = (
(715,330,o),
(748,252,o),
(748,187,cs),
(748,91,o),
(638,29,o),
(469,29,cs),
(264,29,o),
(156,82,o),
(156,182,cs),
(156,266,o),
(245,310,o),
(438,309,cs),
(781,308,l),
(876,308,l),
(878,316,l),
(776,351,l),
(450,352,ls),
(318,352,o),
(224,408,o),
(224,473,cs),
(224,542,o),
(277,575,o),
(388,575,cs),
(460,575,o),
(532,559,o),
(579,533,c),
(616,393,l),
(624,391,l),
(665,544,l),
(584,598,o),
(514,620,o),
(424,620,cs),
(269,620,o),
(144,546,o),
(144,453,cs),
(144,378,o),
(208,335,o),
(391,317,c),
(388,341,l),
(192,343,o),
(70,267,o),
(70,159,cs),
(70,50,o),
(216,-20,o),
(445,-20,cs),
(666,-20,o),
(823,82,o),
(823,225,cs),
(823,279,o),
(800,334,o),
(737,430,c),
(657,400,l)
);
}
);
width = 918;
},
{
layerId = m003;
name = Extended;
shapes = (
{
closed = 1;
nodes = (
(-3,51,o),
(85,-20,o),
(216,-20,cs),
(400,-20,o),
(499,114,o),
(454,312,c),
(534,331,l),
(532,339,l),
(231,354,l),
(270,158,l),
(278,160,l),
(307,311,l),
(451,326,l),
(370,332,l),
(453,161,o),
(383,23,o),
(244,23,cs),
(154,23,o),
(88,91,o),
(88,187,cs),
(88,263,o),
(129,313,o),
(190,311,c),
(193,341,l),
(155,356,o),
(123,419,o),
(123,475,cs),
(123,541,o),
(156,579,o),
(217,579,cs),
(247,579,o),
(279,566,o),
(301,551,c),
(316,408,l),
(324,406,l),
(378,575,l),
(358,600,o),
(291,620,o),
(235,620,cs),
(121,620,o),
(32,546,o),
(32,451,cs),
(32,396,o),
(81,339,o),
(146,320,c),
(153,338,l),
(71,325,o),
(-3,240,o),
(-3,157,cs)
);
}
);
width = 491;
},
{
layerId = "2C26E880-80A5-4D19-8A94-7D905A372841";
name = Extended;
shapes = (
{
closed = 1;
nodes = (
(10,60,o),
(95,-20,o),
(211,-20,cs),
(378,-20,o),
(453,108,o),
(407,312,c),
(487,331,l),
(485,339,l),
(211,343,l),
(250,169,l),
(258,171,l),
(287,313,l),
(404,321,l),
(367,332,l),
(422,130,o),
(367,10,o),
(219,10,cs),
(124,10,o),
(46,85,o),
(46,176,cs),
(46,251,o),
(98,314,o),
(160,312,c),
(171,337,l),
(115,358,o),
(81,408,o),
(81,466,cs),
(81,539,o),
(129,589,o),
(199,589,cs),
(230,589,o),
(267,584,o),
(281,577,c),
(298,415,l),
(306,413,l),
(357,589,l),
(326,606,o),
(257,620,o),
(204,620,cs),
(109,620,o),
(45,556,o),
(45,462,cs),
(45,393,o),
(83,344,o),
(154,324,c),
(161,334,l),
(78,339,o),
(10,264,o),
(10,168,cs)
);
}
);
width = 457;
}
);
unicode = 38;
}
{
glyphname = two;
kernLeft = two;
kernRight = two;
layers = (
{
layerId = "0CCC0E2D-406A-4672-8E6C-854B1DF78A27";
shapes = (
{
closed = 1;
nodes = (
(527,595,o),
(620,548,o),
(619,463,cs),
(618,350,o),
(465,232,o),
(70,34,c),
(88,0,l),
(710,0,l),
(690,210,l),
(682,208,l),
(640,30,l),
(89,23,l),
(95,14,l),
(523,227,o),
(660,338,o),
(659,469,cs),
(658,569,o),
(555,623,o),
(394,623,cs),
(308,623,o),
(213,612,o),
(100,580,c),
(161,383,l),
(169,385,l),
(186,570,l),
(241,587,o),
(313,595,o),
(385,595,cs)
);
}
);
width = 810;
},
{
associatedMasterId = "0CCC0E2D-406A-4672-8E6C-854B1DF78A27";
layerId = "83270E91-6366-499E-8DDA-1D62836B17AE";
name = "Apr 9 18, 21:54";
shapes = (
{
closed = 1;
nodes = (
(166,20,l),
(161,109,o),
(212,142,o),
(303,189,cs),
(481,281,o),
(753,310,o),
(753,448,cs),
(753,586,o),
(588,623,o),
(422,623,cs),
(225,623,o),
(141,570,o),
(80,525,c),
(166,514,l),
(201,536,o),
(256,578,o),
(422,578,cs),
(543,578,o),
(688,542,o),
(687,462,cs),
(686,389,o),
(448,343,o),
(271,256,cs),
(164,203,o),
(79,136,o),
(82,39,c)
);
},
{
closed = 1;
nodes = (
(166,514,l),
(148,366,l),
(141,364,l),
(80,525,l)
);
},
{
closed = 1;
nodes = (
(787,0,l),
(767,220,l),
(761,218,l),
(707,45,l),
(82,39,l),
(83,0,l)
);
}
);
width = 847;
},
{
associatedMasterId = "0CCC0E2D-406A-4672-8E6C-854B1DF78A27";
layerId = "08DD110C-0E3B-4F51-9975-9FEE6F8F895B";
name = "Apr 9 18, 21:54";
shapes = (
{
closed = 1;
nodes = (
(166,20,l),
(161,109,o),
(212,142,o),
(303,189,cs),
(481,281,o),
(753,310,o),
(753,448,cs),
(753,586,o),
(588,623,o),
(422,623,cs),
(225,623,o),
(141,570,o),
(80,525,c),
(166,514,l),
(201,536,o),
(256,578,o),
(422,578,cs),
(543,578,o),
(688,542,o),
(687,462,cs),
(686,389,o),
(448,343,o),
(271,256,cs),
(164,203,o),
(79,136,o),
(82,39,c)
);
},
{
closed = 1;
nodes = (
(166,514,l),
(148,366,l),
(141,364,l),
(80,525,l)
);
},
{
closed = 1;
nodes = (
(787,0,l),
(767,220,l),
(761,218,l),
(707,45,l),
(82,39,l),
(83,0,l)
);
}
);
width = 847;
},
{
layerId = m002;
shapes = (
{
closed = 1;
nodes = (
(533,569,o),
(617,502,o),
(616,397,cs),
(615,295,o),
(534,243,o),
(56,34,c),
(74,0,l),
(792,0,l),
(772,226,l),
(764,224,l),
(692,64,l),
(136,48,l),
(142,6,l),
(585,199,o),
(739,306,o),
(738,423,cs),
(737,536,o),
(611,623,o),
(430,623,cs),
(314,623,o),
(168,599,o),
(80,574,c),
(127,363,l),
(135,365,l),
(172,546,l),
(233,560,o),
(308,569,o),
(398,569,cs)
);
}
);
width = 876;
},
{
associatedMasterId = m002;
layerId = "FE6A2B2F-9211-49B6-874C-72886F8EF03C";
name = "Apr 9 18, 21:54";
shapes = (
{
closed = 1;
nodes = (
(166,20,l),
(161,109,o),
(212,142,o),
(303,189,cs),
(481,281,o),
(753,310,o),
(753,448,cs),
(753,586,o),
(588,623,o),
(422,623,cs),
(225,623,o),
(141,570,o),
(80,525,c),
(166,514,l),
(201,536,o),
(256,578,o),
(422,578,cs),
(543,578,o),
(688,542,o),
(687,462,cs),
(686,389,o),
(448,343,o),
(271,256,cs),
(164,203,o),
(79,136,o),
(82,39,c)
);
},
{
closed = 1;
nodes = (
(166,514,l),
(148,366,l),
(141,364,l),
(80,525,l)
);
},
{
closed = 1;
nodes = (
(787,0,l),
(767,220,l),
(761,218,l),
(707,45,l),
(82,39,l),
(83,0,l)
);
}
);
width = 847;
},
{
associatedMasterId = m002;
layerId = "80FEE268-362D-4B10-8B52-DC945FBA42C1";
name = "Apr 9 18, 21:54";
shapes = (
{
closed = 1;
nodes = (
(166,20,l),
(161,109,o),
(212,142,o),
(303,189,cs),
(481,281,o),
(753,310,o),
(753,448,cs),
(753,586,o),
(588,623,o),
(422,623,cs),
(225,623,o),
(141,570,o),
(80,525,c),
(166,514,l),
(201,536,o),
(256,578,o),
(422,578,cs),
(543,578,o),
(688,542,o),
(687,462,cs),
(686,389,o),
(448,343,o),
(271,256,cs),
(164,203,o),
(79,136,o),
(82,39,c)
);
},
{
closed = 1;
nodes = (
(166,514,l),
(148,366,l),
(141,364,l),
(80,525,l)
);
},
{
closed = 1;
nodes = (
(787,0,l),
(767,220,l),
(761,218,l),
(707,45,l),
(82,39,l),
(83,0,l)
);
}
);
width = 847;
},
{
layerId = m003;
shapes = (
{
closed = 1;
nodes = (
(268,576,o),
(302,527,o),
(301,421,cs),
(300,287,o),
(221,182,o),
(28,35,c),
(46,0,l),
(425,0,l),
(405,220,l),
(397,218,l),
(341,51,l),
(83,36,l),
(78,16,l),
(309,203,o),
(396,317,o),
(395,442,cs),
(394,549,o),
(330,620,o),
(234,620,cs),
(170,620,o),
(110,602,o),
(70,587,c),
(119,385,l),
(127,387,l),
(148,567,l),
(169,573,o),
(199,576,o),
(216,576,cs)
);
}
);
width = 483;
},
{
associatedMasterId = m003;
layerId = "7F14443A-4973-4B51-8F72-201255F90D43";
name = "Apr 9 18, 21:54";
shapes = (
{
closed = 1;
nodes = (
(166,20,l),
(161,109,o),
(212,142,o),
(303,189,cs),
(481,281,o),
(753,310,o),
(753,448,cs),
(753,586,o),
(588,623,o),
(422,623,cs),
(225,623,o),
(141,570,o),
(80,525,c),
(166,514,l),
(201,536,o),
(256,578,o),
(422,578,cs),
(543,578,o),
(688,542,o),
(687,462,cs),
(686,389,o),
(448,343,o),
(271,256,cs),
(164,203,o),
(79,136,o),
(82,39,c)
);
},
{
closed = 1;
nodes = (
(166,514,l),
(148,366,l),
(141,364,l),
(80,525,l)
);
},
{
closed = 1;
nodes = (
(787,0,l),
(767,220,l),
(761,218,l),
(707,45,l),
(82,39,l),
(83,0,l)
);
}
);
width = 847;
},
{
associatedMasterId = m003;
layerId = "0DE8049B-58FB-49FD-B479-FD354079AC20";
name = "Apr 9 18, 21:54";
shapes = (
{
closed = 1;
nodes = (
(166,20,l),
(161,109,o),
(212,142,o),
(303,189,cs),
(481,281,o),
(753,310,o),
(753,448,cs),
(753,586,o),
(588,623,o),
(422,623,cs),
(225,623,o),
(141,570,o),
(80,525,c),
(166,514,l),
(201,536,o),
(256,578,o),
(422,578,cs),
(543,578,o),
(688,542,o),
(687,462,cs),
(686,389,o),
(448,343,o),
(271,256,cs),
(164,203,o),
(79,136,o),
(82,39,c)
);
},
{
closed = 1;
nodes = (
(166,514,l),
(148,366,l),
(141,364,l),
(80,525,l)
);
},
{
closed = 1;
nodes = (
(787,0,l),
(767,220,l),
(761,218,l),
(707,45,l),
(82,39,l),
(83,0,l)
);
}
);
width = 847;
},
{
background = {
shapes = (
{
closed = 1;
nodes = (
(363,0,l),
(342,195,l),
(334,193,l),
(297,32,l),
(44,26,l),
(59,0,l),
(363,1,l)
);
}
);
};
layerId = "2C26E880-80A5-4D19-8A94-7D905A372841";
shapes = (
{
closed = 1;
nodes = (
(274,591,o),
(310,548,o),
(309,470,cs),
(308,363,o),
(213,210,o),
(40,29,c),
(58,0,l),
(369,0,l),
(348,196,l),
(340,194,l),
(303,32,l),
(52,26,l),
(62,16,l),
(235,174,o),
(347,350,o),
(346,477,cs),
(345,569,o),
(295,620,o),
(207,620,cs),
(163,620,o),
(114,608,o),
(81,598,c),
(118,404,l),
(126,406,l),
(148,583,l),
(156,587,o),
(180,591,o),
(208,591,cs)
);
}
);
width = 439;
}
);
unicode = 50;
}
{
glyphname = five;
kernLeft = five;
layers = (
{
layerId = "0CCC0E2D-406A-4672-8E6C-854B1DF78A27";
shapes = (
{
closed = 1;
nodes = (
(766,305,o),
(634,380,o),
(435,380,cs),
(320,380,o),
(201,351,o),
(136,318,c),
(147,305,l),
(214,592,l),
(197,583,l),
(637,581,l),
(671,422,l),
(679,420,l),
(708,612,l),
(188,600,l),
(122,315,l),
(137,295,l),
(224,331,o),
(340,355,o),
(428,355,cs),
(608,355,o),
(728,287,o),
(728,186,cs),
(728,77,o),
(602,5,o),
(412,5,cs),
(306,5,o),
(204,27,o),
(141,59,c),
(124,208,l),
(116,210,l),
(65,49,l),
(156,8,o),
(287,-20,o),
(408,-20,cs),
(623,-20,o),
(766,65,o),
(766,192,cs)
);
}
);
width = 836;
},
{
layerId = m002;
shapes = (
{
closed = 1;
nodes = (
(815,330,o),
(663,396,o),
(465,396,cs),
(343,396,o),
(230,363,o),
(170,306,c),
(181,289,l),
(249,592,l),
(182,559,l),
(683,551,l),
(717,392,l),
(725,390,l),
(785,612,l),
(168,600,l),
(102,315,l),
(159,265,l),
(224,293,o),
(317,312,o),
(412,312,cs),
(575,312,o),
(712,262,o),
(712,170,cs),
(712,84,o),
(575,29,o),
(428,29,cs),
(316,29,o),
(228,54,o),
(141,89,c),
(124,250,l),
(116,252,l),
(49,55,l),
(120,18,o),
(276,-20,o),
(429,-20,cs),
(634,-20,o),
(815,72,o),
(815,208,cs)
);
}
);
width = 869;
},
{
layerId = m003;
shapes = (
{
closed = 1;
nodes = (
(425,309,o),
(362,372,o),
(265,372,cs),
(201,372,o),
(149,342,o),
(120,290,c),
(148,293,l),
(178,592,l),
(126,571,l),
(312,564,l),
(343,403,l),
(351,401,l),
(389,612,l),
(109,600,l),
(80,305,l),
(128,271,l),
(153,298,o),
(191,313,o),
(237,313,cs),
(302,313,o),
(348,255,o),
(348,176,cs),
(348,75,o),
(302,26,o),
(222,26,cs),
(177,26,o),
(162,31,o),
(127,43,c),
(110,209,l),
(102,211,l),
(48,11,l),
(92,-6,o),
(148,-20,o),
(205,-20,cs),
(335,-20,o),
(425,72,o),
(425,204,cs)
);
}
);
width = 463;
},
{
layerId = "2C26E880-80A5-4D19-8A94-7D905A372841";
shapes = (
{
closed = 1;
nodes = (
(402,292,o),
(349,364,o),
(239,364,cs),
(190,364,o),
(146,347,o),
(109,314,c),
(130,318,l),
(152,592,l),
(133,581,l),
(301,575,l),
(321,423,l),
(329,421,l),
(368,612,l),
(116,600,l),
(93,307,l),
(109,293,l),
(151,324,o),
(186,334,o),
(235,334,cs),
(305,334,o),
(362,284,o),
(362,178,cs),
(362,69,o),
(304,10,o),
(218,10,cs),
(181,10,o),
(147,16,o),
(126,29,c),
(111,175,l),
(103,177,l),
(60,4,l),
(98,-10,o),
(147,-20,o),
(211,-20,cs),
(327,-20,o),
(402,56,o),
(402,195,cs)
);
}
);
width = 452;
}
);
unicode = 53;
}
{
glyphname = seven;
layers = (
{
layerId = "0CCC0E2D-406A-4672-8E6C-854B1DF78A27";
shapes = (
{
closed = 1;
nodes = (
(75,405,l),
(83,407,l),
(115,580,l),
(605,577,l),
(595,588,l),
(274,50,l),
(114,8,l),
(116,0,l),
(469,0,l),
(471,8,l),
(311,50,l),
(630,577,l),
(619,600,l),
(45,612,l)
);
}
);
width = 690;
},
{
layerId = m002;
shapes = (
{
closed = 1;
nodes = (
(59,367,l),
(67,369,l),
(115,542,l),
(651,551,l),
(607,588,l),
(269,50,l),
(109,8,l),
(111,0,l),
(531,0,l),
(533,8,l),
(373,50,l),
(676,552,l),
(665,600,l),
(29,612,l)
);
}
);
width = 720;
},
{
layerId = m003;
shapes = (
{
closed = 1;
nodes = (
(61,377,l),
(69,379,l),
(110,556,l),
(356,562,l),
(315,588,l),
(158,45,l),
(38,8,l),
(40,0,l),
(348,0,l),
(350,8,l),
(230,45,l),
(381,562,l),
(373,600,l),
(33,612,l)
);
}
);
width = 429;
},
{
background = {
shapes = (
{
closed = 0;
nodes = (
(351,584,l),
(336,600,l),
(35,612,l),
(74,421,l),
(82,423,l),
(102,575,l),
(330,580,l),
(313,590,l)
);
}
);
};
layerId = "2C26E880-80A5-4D19-8A94-7D905A372841";
shapes = (
{
closed = 1;
nodes = (
(75,418,l),
(83,420,l),
(102,575,l),
(320,579,l),
(306,588,l),
(144,45,l),
(24,8,l),
(26,0,l),
(301,0,l),
(303,8,l),
(183,45,l),
(345,581,l),
(336,600,l),
(35,612,l)
);
}
);
width = 404;
}
);
unicode = 55;
}
{
glyphname = equal;
layers = (
{
layerId = "0CCC0E2D-406A-4672-8E6C-854B1DF78A27";
shapes = (
{
closed = 1;
nodes = (
(70,347,l),
(430,347,l),
(430,375,l),
(70,375,l)
);
},
{
closed = 1;
nodes = (
(70,187,l),
(430,187,l),
(430,215,l),
(70,215,l)
);
}
);
width = 500;
},
{
layerId = m002;
shapes = (
{
closed = 1;
nodes = (
(54,330,l),
(476,329,l),
(476,392,l),
(54,392,l)
);
},
{
closed = 1;
nodes = (
(54,170,l),
(476,169,l),
(476,232,l),
(54,232,l)
);
}
);
width = 530;
},
{
layerId = m003;
shapes = (
{
closed = 1;
nodes = (
(58,329,l),
(429,327,l),
(429,379,l),
(58,379,l)
);
},
{
closed = 1;
nodes = (
(58,184,l),
(429,182,l),
(429,234,l),
(58,234,l)
);
}
);
width = 487;
},
{
layerId = "2C26E880-80A5-4D19-8A94-7D905A372841";
shapes = (
{
closed = 1;
nodes = (
(69,341,l),
(394,341,l),
(394,366,l),
(69,366,l)
);
},
{
closed = 1;
nodes = (
(69,196,l),
(394,196,l),
(394,221,l),
(69,221,l)
);
}
);
width = 463;
}
);
unicode = 61;
}
{
glyphname = S;
kernLeft = S;
kernRight = S;
layers = (
{
anchors = (
{
name = bottom;
pos = (411,0);
},
{
name = top;
pos = (411,600);
}
);
layerId = "0CCC0E2D-406A-4672-8E6C-854B1DF78A27";
shapes = (
{
closed = 1;
nodes = (
(153,6,o),
(272,-20,o),
(431,-20,cs),
(657,-20,o),
(780,44,o),
(780,162,cs),
(780,253,o),
(708,300,o),
(542,318,cs),
(299,344,ls),
(169,358,o),
(118,390,o),
(120,456,cs),
(122,549,o),
(219,598,o),
(401,598,cs),
(495,598,o),
(597,585,o),
(659,571,c),
(676,414,l),
(684,412,l),
(745,589,l),
(660,609,o),
(525,625,o),
(401,625,cs),
(198,625,o),
(86,563,o),
(82,449,cs),
(79,366,o),
(135,329,o),
(286,313,cs),
(529,287,ls),
(672,272,o),
(745,225,o),
(744,148,cs),
(742,59,o),
(639,10,o),
(451,10,cs),
(324,10,o),
(214,28,o),
(131,59,c),
(114,218,l),
(106,220,l),
(45,50,l)
);
}
);
width = 840;
},
{
associatedMasterId = "0CCC0E2D-406A-4672-8E6C-854B1DF78A27";
layerId = "9A359F69-7A44-4B2C-B582-FDEDCD665DE8";
name = "Apr 3 18, 11:50";
shapes = (
{
closed = 1;
nodes = (
(143,23,o),
(304,-10,o),
(459,-10,cs),
(689,-10,o),
(848,49,o),
(848,195,cs),
(848,326,o),
(681,353,o),
(449,353,cs),
(259,353,o),
(147,364,o),
(149,448,cs),
(151,532,o),
(288,578,o),
(449,578,cs),
(550,578,o),
(681,555,o),
(720,524,c),
(806,535,l),
(729,598,o),
(551,623,o),
(449,623,cs),
(180,623,o),
(86,522,o),
(83,418,cs),
(79,295,o),
(230,273,o),
(449,273,cs),
(650,273,o),
(782,252,o),
(781,174,cs),
(780,82,o),
(640,35,o),
(459,35,cs),
(348,35,o),
(184,65,o),
(136,102,c),
(50,91,l)
);
},
{
closed = 1;
nodes = (
(745,354,l),
(738,356,l),
(720,524,l),
(806,535,l)
);
},
{
closed = 1;
nodes = (
(111,272,l),
(118,270,l),
(136,102,l),
(50,91,l)
);
}
);
width = 878;
},
{
associatedMasterId = "0CCC0E2D-406A-4672-8E6C-854B1DF78A27";
layerId = "A8B821C7-36AA-44CB-84BC-D34DB5EED9F4";
name = "Apr 3 18, 11:50";
shapes = (
{
closed = 1;
nodes = (
(143,23,o),
(304,-10,o),
(459,-10,cs),
(689,-10,o),
(848,49,o),
(848,195,cs),
(848,326,o),
(681,353,o),
(449,353,cs),
(259,353,o),
(147,364,o),
(149,448,cs),
(151,532,o),
(288,578,o),
(449,578,cs),
(550,578,o),
(681,555,o),
(720,524,c),
(806,535,l),
(729,598,o),
(551,623,o),
(449,623,cs),
(180,623,o),
(86,522,o),
(83,418,cs),
(79,295,o),
(230,273,o),
(449,273,cs),
(650,273,o),
(782,252,o),
(781,174,cs),
(780,82,o),
(640,35,o),
(459,35,cs),
(348,35,o),
(184,65,o),
(136,102,c),
(50,91,l)
);
},
{
closed = 1;
nodes = (
(745,354,l),
(738,356,l),
(720,524,l),
(806,535,l)
);
},
{
closed = 1;
nodes = (
(111,272,l),
(118,270,l),
(136,102,l),
(50,91,l)
);
}
);
width = 878;
},
{
anchors = (
{
name = bottom;
pos = (446,0);
},
{
name = top;
pos = (446,600);
}
);
layerId = m002;
shapes = (
{
closed = 1;
nodes = (
(127,13,o),
(304,-20,o),
(451,-20,cs),
(693,-20,o),
(862,69,o),
(862,198,cs),
(862,288,o),
(779,336,o),
(592,350,cs),
(349,368,ls),
(197,379,o),
(139,406,o),
(140,459,cs),
(142,529,o),
(284,578,o),
(441,578,cs),
(537,578,o),
(645,559,o),
(730,531,c),
(745,396,l),
(753,394,l),
(814,584,l),
(695,609,o),
(566,625,o),
(461,625,cs),
(230,625,o),
(66,547,o),
(62,434,cs),
(59,347,o),
(145,295,o),
(306,283,cs),
(549,265,ls),
(718,252,o),
(780,224,o),
(779,157,cs),
(777,84,o),
(652,34,o),
(491,34,cs),
(356,34,o),
(179,67,o),
(115,107,c),
(98,266,l),
(90,268,l),
(29,58,l)
);
}
);
width = 906;
},
{
associatedMasterId = m002;
layerId = "3CD49650-8184-45EA-873A-FDEEE6AA1B09";
name = "Apr 3 18, 11:50";
shapes = (
{
closed = 1;
nodes = (
(143,23,o),
(304,-10,o),
(459,-10,cs),
(689,-10,o),
(848,49,o),
(848,195,cs),
(848,326,o),
(681,353,o),
(449,353,cs),
(259,353,o),
(147,364,o),
(149,448,cs),
(151,532,o),
(288,578,o),
(449,578,cs),
(550,578,o),
(681,555,o),
(720,524,c),
(806,535,l),
(729,598,o),
(551,623,o),
(449,623,cs),
(180,623,o),
(86,522,o),
(83,418,cs),
(79,295,o),
(230,273,o),
(449,273,cs),
(650,273,o),
(782,252,o),
(781,174,cs),
(780,82,o),
(640,35,o),
(459,35,cs),
(348,35,o),
(184,65,o),
(136,102,c),
(50,91,l)
);
},
{
closed = 1;
nodes = (
(745,354,l),
(738,356,l),
(720,524,l),
(806,535,l)
);
},
{
closed = 1;
nodes = (
(111,272,l),
(118,270,l),
(136,102,l),
(50,91,l)
);
}
);
width = 878;
},
{
associatedMasterId = m002;
layerId = "FF34C2C3-E629-40EC-B18C-562382FD2B12";
name = "Apr 3 18, 11:50";
shapes = (
{
closed = 1;
nodes = (
(143,23,o),
(304,-10,o),
(459,-10,cs),
(689,-10,o),
(848,49,o),
(848,195,cs),
(848,326,o),
(681,353,o),
(449,353,cs),
(259,353,o),
(147,364,o),
(149,448,cs),
(151,532,o),
(288,578,o),
(449,578,cs),
(550,578,o),
(681,555,o),
(720,524,c),
(806,535,l),
(729,598,o),
(551,623,o),
(449,623,cs),
(180,623,o),
(86,522,o),
(83,418,cs),
(79,295,o),
(230,273,o),
(449,273,cs),
(650,273,o),
(782,252,o),
(781,174,cs),
(780,82,o),
(640,35,o),
(459,35,cs),
(348,35,o),
(184,65,o),
(136,102,c),
(50,91,l)
);
},
{
closed = 1;
nodes = (
(745,354,l),
(738,356,l),
(720,524,l),
(806,535,l)
);
},
{
closed = 1;
nodes = (
(111,272,l),
(118,270,l),
(136,102,l),
(50,91,l)
);
}
);
width = 878;
},
{
anchors = (
{
name = bottom;
pos = (204,0);
},
{
name = top;
pos = (198,600);
}
);
layerId = m003;
shapes = (
{
closed = 1;
nodes = (
(57,-4,o),
(140,-20,o),
(201,-20,cs),
(316,-20,o),
(392,55,o),
(392,167,cs),
(392,244,o),
(355,289,o),
(251,337,cs),
(190,365,ls),
(131,393,o),
(101,433,o),
(101,486,cs),
(101,544,o),
(135,577,o),
(195,577,cs),
(227,577,o),
(268,568,o),
(284,557,c),
(300,415,l),
(307,413,l),
(359,587,l),
(327,605,o),
(253,620,o),
(198,620,cs),
(98,620,o),
(38,563,o),
(36,464,cs),
(35,385,o),
(72,328,o),
(151,291,cs),
(222,258,ls),
(296,223,o),
(326,186,o),
(326,132,cs),
(326,62,o),
(289,27,o),
(215,27,cs),
(168,27,o),
(112,38,o),
(88,52,c),
(73,217,l),
(65,219,l),
(14,17,l)
);
}
);
width = 406;
},
{
associatedMasterId = m003;
layerId = "8C43811E-9CF8-47C6-A89B-E5D626EB4865";
name = "Apr 3 18, 11:50";
shapes = (
{
closed = 1;
nodes = (
(143,23,o),
(304,-10,o),
(459,-10,cs),
(689,-10,o),
(848,49,o),
(848,195,cs),
(848,326,o),
(681,353,o),
(449,353,cs),
(259,353,o),
(147,364,o),
(149,448,cs),
(151,532,o),
(288,578,o),
(449,578,cs),
(550,578,o),
(681,555,o),
(720,524,c),
(806,535,l),
(729,598,o),
(551,623,o),
(449,623,cs),
(180,623,o),
(86,522,o),
(83,418,cs),
(79,295,o),
(230,273,o),
(449,273,cs),
(650,273,o),
(782,252,o),
(781,174,cs),
(780,82,o),
(640,35,o),
(459,35,cs),
(348,35,o),
(184,65,o),
(136,102,c),
(50,91,l)
);
},
{
closed = 1;
nodes = (
(745,354,l),
(738,356,l),
(720,524,l),
(806,535,l)
);
},
{
closed = 1;
nodes = (
(111,272,l),
(118,270,l),
(136,102,l),
(50,91,l)
);
}
);
width = 878;
},
{
associatedMasterId = m003;
layerId = "95B1B325-6487-47BB-AD9E-BB874A5EF258";
name = "Apr 3 18, 11:50";
shapes = (
{
closed = 1;
nodes = (
(143,23,o),
(304,-10,o),
(459,-10,cs),
(689,-10,o),
(848,49,o),
(848,195,cs),
(848,326,o),
(681,353,o),
(449,353,cs),
(259,353,o),
(147,364,o),
(149,448,cs),
(151,532,o),
(288,578,o),
(449,578,cs),
(550,578,o),
(681,555,o),
(720,524,c),
(806,535,l),
(729,598,o),
(551,623,o),
(449,623,cs),
(180,623,o),
(86,522,o),
(83,418,cs),
(79,295,o),
(230,273,o),
(449,273,cs),
(650,273,o),
(782,252,o),
(781,174,cs),
(780,82,o),
(640,35,o),
(459,35,cs),
(348,35,o),
(184,65,o),
(136,102,c),
(50,91,l)
);
},
{
closed = 1;
nodes = (
(745,354,l),
(738,356,l),
(720,524,l),
(806,535,l)
);
},
{
closed = 1;
nodes = (
(111,272,l),
(118,270,l),
(136,102,l),
(50,91,l)
);
}
);
width = 878;
},
{
anchors = (
{
name = bottom;
pos = (204,0);
},
{
name = top;
pos = (180,600);
}
);
layerId = "2C26E880-80A5-4D19-8A94-7D905A372841";
shapes = (
{
closed = 1;
nodes = (
(56,-3,o),
(124,-20,o),
(183,-20,cs),
(292,-20,o),
(359,34,o),
(359,138,cs),
(359,207,o),
(321,261,o),
(245,307,cs),
(170,352,ls),
(111,388,o),
(85,428,o),
(86,483,cs),
(87,551,o),
(126,593,o),
(186,593,cs),
(202,593,o),
(227,589,o),
(245,584,c),
(263,417,l),
(272,415,l),
(330,599,l),
(292,611,o),
(239,620,o),
(201,620,cs),
(109,620,o),
(51,565,o),
(49,476,cs),
(48,408,o),
(80,363,o),
(157,315,cs),
(234,267,ls),
(294,230,o),
(324,184,o),
(324,124,cs),
(324,49,o),
(278,7,o),
(195,7,cs),
(161,7,o),
(129,14,o),
(104,27,c),
(86,186,l),
(77,188,l),
(20,21,l)
);
}
);
width = 379;
}
);
unicode = 83;
}
{
glyphname = T;
kernLeft = T;
kernRight = T;
layers = (
{
anchors = (
{
name = bottom;
pos = (427,0);
},
{
name = center;
pos = (414,300);
},
{
name = top;
pos = (414,600);
}
);
layerId = "0CCC0E2D-406A-4672-8E6C-854B1DF78A27";
shapes = (
{
closed = 1;
nodes = (
(73,419,l),
(81,421,l),
(107,579,l),
(395,579,l),
(396,50,l),
(246,8,l),
(248,0,l),
(581,0,l),
(583,8,l),
(433,50,l),
(432,579,l),
(721,580,l),
(760,421,l),
(768,419,l),
(792,610,l),
(414,600,l),
(35,610,l)
);
}
);
width = 827;
},
{
anchors = (
{
name = bottom;
pos = (492,0);
},
{
name = center;
pos = (473,300);
},
{
name = top;
pos = (473,600);
}
);
layerId = m002;
shapes = (
{
closed = 1;
nodes = (
(65,420,l),
(73,422,l),
(123,550,l),
(425,558,l),
(426,50,l),
(276,8,l),
(278,0,l),
(671,0,l),
(673,8,l),
(523,50,l),
(522,558,l),
(824,551,l),
(888,422,l),
(896,420,l),
(928,610,l),
(473,600,l),
(19,610,l)
);
}
);
width = 947;
},
{
anchors = (
{
name = bottom;
pos = (268,0);
},
{
name = center;
pos = (247,300);
},
{
name = top;
pos = (250,600);
}
);
layerId = m003;
shapes = (
{
closed = 1;
nodes = (
(62,401,l),
(70,403,l),
(101,564,l),
(210,571,l),
(210,45,l),
(100,8,l),
(102,0,l),
(398,0,l),
(400,8,l),
(290,45,l),
(290,571,l),
(398,564,l),
(429,403,l),
(437,401,l),
(476,612,l),
(250,600,l),
(23,612,l)
);
}
);
width = 499;
},
{
anchors = (
{
name = bottom;
pos = (234,0);
},
{
name = center;
pos = (238,300);
},
{
name = top;
pos = (241,600);
}
);
layerId = "2C26E880-80A5-4D19-8A94-7D905A372841";
shapes = (
{
closed = 1;
nodes = (
(74,421,l),
(82,423,l),
(102,575,l),
(223,578,l),
(223,45,l),
(113,8,l),
(115,0,l),
(366,0,l),
(368,8,l),
(258,45,l),
(258,578,l),
(380,575,l),
(400,423,l),
(408,421,l),
(447,612,l),
(241,600,l),
(35,612,l)
);
}
);
width = 482;
}
);
unicode = 84;
}
{
glyphname = a;
kernLeft = a;
kernRight = a;
layers = (
{
anchors = (
{
name = bottom;
pos = (309,0);
},
{
name = ogonek;
pos = (527,10);
},
{
name = top;
pos = (309,401);
}
);
layerId = "0CCC0E2D-406A-4672-8E6C-854B1DF78A27";
shapes = (
{
closed = 1;
nodes = (
(39,36,o),
(108,-20,o),
(261,-20,cs),
(349,-20,o),
(433,5,o),
(506,46,c),
(506,-23,l),
(644,50,l),
(642,58,l),
(536,48,l),
(542,175,ls),
(551,355,o),
(481,421,o),
(320,421,cs),
(225,421,o),
(127,399,o),
(46,366,c),
(87,259,l),
(95,261,l),
(106,360,l),
(146,375,o),
(234,392,o),
(301,392,cs),
(453,392,o),
(512,332,o),
(506,175,c),
(522,185,l),
(482,210,o),
(396,239,o),
(289,239,cs),
(120,239,o),
(39,184,o),
(39,109,cs)
);
},
{
closed = 1;
nodes = (
(80,175,o),
(149,212,o),
(282,212,cs),
(375,212,o),
(457,190,o),
(506,163,c),
(506,75,l),
(433,33,o),
(363,10,o),
(274,10,cs),
(153,10,o),
(80,46,o),
(80,113,cs)
);
}
);
width = 648;
},
{
associatedMasterId = "0CCC0E2D-406A-4672-8E6C-854B1DF78A27";
layerId = "3579564A-0441-4A8A-B195-9A8D515AF430";
name = "May 21 19, 15:50";
shapes = (
{
closed = 1;
nodes = (
(60,43,o),
(143,-15,o),
(295,-15,cs),
(399,-15,o),
(486,22,o),
(541,72,c),
(553,-8,l),
(754,29,l),
(751,34,l),
(604,47,l),
(609,184,ls),
(609,347,o),
(548,430,o),
(385,430,cs),
(299,430,o),
(210,413,o),
(75,341,c),
(146,247,l),
(153,248,l),
(152,350,l),
(189,373,o),
(254,388,o),
(339,388,cs),
(485,388,o),
(534.851,321.434,o),
(538.761,196.471,c),
(490.434,232.274,o),
(417.071,251.222,o),
(333,255,cs),
(170,262,o),
(60,201,o),
(60,124,cs)
);
},
{
closed = 1;
nodes = (
(140,184,o),
(194,220,o),
(310,220,cs),
(406.669,220,o),
(492.769,197.098,o),
(539.363,163.694,c),
(540.449,102.848,l),
(486.091,54.057,o),
(416.209,20,o),
(317,20,cs),
(194,20,o),
(140,68,o),
(140,124,cs)
);
}
);
width = 754;
},
{
associatedMasterId = "0CCC0E2D-406A-4672-8E6C-854B1DF78A27";
layerId = "91CC11DD-F4B2-43D3-A364-F6B4C7026FA7";
name = "2 Dec 21, 16:02";
shapes = (
{
closed = 1;
nodes = (
(60,39,o),
(151,-15,o),
(295,-15,cs),
(389,-15,o),
(479,17,o),
(540,72,c),
(553,-8,l),
(754,29,l),
(751,34,l),
(607,47,l),
(607,184,ls),
(613,358,o),
(547,433,o),
(385,433,cs),
(284,433,o),
(193,407,o),
(75,344,c),
(146,250,l),
(153,251,l),
(152,353,l),
(191,377,o),
(259,391,o),
(339,391,cs),
(480,391,o),
(536,337,o),
(540,196,c),
(497,231,o),
(425,251,o),
(333,255,cs),
(178,262,o),
(60,205,o),
(60,124,cs)
);
},
{
closed = 1;
nodes = (
(140,187,o),
(199,220,o),
(310,220,cs),
(402,220,o),
(492,198,o),
(540,164,c),
(540,103,l),
(477,47,o),
(405,20,o),
(317,20,cs),
(208,20,o),
(140,60,o),
(140,124,cs)
);
}
);
width = 754;
},
{
anchors = (
{
name = bottom;
pos = (347,0);
},
{
name = ogonek;
pos = (544,10);
},
{
name = top;
pos = (326,410);
}
);
associatedMasterId = "0CCC0E2D-406A-4672-8E6C-854B1DF78A27";
layerId = "7C1D6698-0A2B-4F23-9FB0-CACCE011AC68";
name = "27 Jan 22, 18:14";
shapes = (
{
closed = 1;
nodes = (
(30,37,o),
(124,-20,o),
(265,-20,cs),
(350,-20,o),
(441,10,o),
(510,61,c),
(520,-13,l),
(699,39,l),
(697,47,l),
(577,47,l),
(577,184,ls),
(577,362,o),
(514,430,o),
(355,430,cs),
(254,430,o),
(163,407,o),
(45,344,c),
(95,249,l),
(103,251,l),
(114,346,l),
(148,363,o),
(221,388,o),
(309,388,cs),
(460,388,o),
(516,330,o),
(510,175,c),
(526,191,l),
(484,227,o),
(403,250,o),
(303,255,cs),
(148,262,o),
(30,205,o),
(30,114,cs)
);
},
{
closed = 1;
nodes = (
(110,188,o),
(169,220,o),
(280,220,cs),
(363,220,o),
(456,202,o),
(510,162,c),
(510,92,l),
(444,44,o),
(371,20,o),
(287,20,cs),
(178,20,o),
(110,61,o),
(110,127,cs)
);
}
);
width = 674;
},
{
anchors = (
{
name = bottom;
pos = (369,0);
},
{
name = ogonek;
pos = (555,10);
},
{
name = top;
pos = (337,415);
}
);
layerId = m002;
shapes = (
{
closed = 1;
nodes = (
(26,37,o),
(135,-20,o),
(268,-20,cs),
(352,-20,o),
(446,13,o),
(513,70,c),
(513,-23,l),
(700,64,l),
(698,72,l),
(592,62,l),
(597,188,ls),
(604,370,o),
(528,435,o),
(355,435,cs),
(241,435,o),
(139,415,o),
(59,383,c),
(110,259,l),
(118,261,l),
(129,357,l),
(172,375,o),
(231,386,o),
(303,386,cs),
(469,386,o),
(519,324,o),
(513,175,c),
(529,194,l),
(484,239,o),
(390,265,o),
(273,265,cs),
(145,265,o),
(26,209,o),
(26,117,cs)
);
},
{
closed = 1;
nodes = (
(128,195,o),
(181,224,o),
(280,224,cs),
(365,224,o),
(462,205,o),
(513,162,c),
(513,101,l),
(448,48,o),
(373,26,o),
(295,26,cs),
(193,26,o),
(128,70,o),
(128,134,cs)
);
}
);
width = 695;
},
{
associatedMasterId = m002;
layerId = "3BEFB6E7-895D-455F-B358-DA0166F50908";
name = "May 21 19, 15:50";
shapes = (
{
closed = 1;
nodes = (
(60,43,o),
(143,-15,o),
(295,-15,cs),
(399,-15,o),
(486,22,o),
(541,72,c),
(553,-8,l),
(754,29,l),
(751,34,l),
(604,47,l),
(609,184,ls),
(609,347,o),
(548,430,o),
(385,430,cs),
(299,430,o),
(210,413,o),
(75,341,c),
(146,247,l),
(153,248,l),
(152,350,l),
(189,373,o),
(254,388,o),
(339,388,cs),
(485,388,o),
(534.851,321.434,o),
(538.761,196.471,c),
(490.434,232.274,o),
(417.071,251.222,o),
(333,255,cs),
(170,262,o),
(60,201,o),
(60,124,cs)
);
},
{
closed = 1;
nodes = (
(140,184,o),
(194,220,o),
(310,220,cs),
(406.669,220,o),
(492.769,197.098,o),
(539.363,163.694,c),
(540.449,102.848,l),
(486.091,54.057,o),
(416.209,20,o),
(317,20,cs),
(194,20,o),
(140,68,o),
(140,124,cs)
);
}
);
width = 754;
},
{
associatedMasterId = m002;
layerId = "62CE75E4-4188-4726-8EDD-84CC4FCCF9FF";
name = "2 Dec 21, 16:02";
shapes = (
{
closed = 1;
nodes = (
(60,39,o),
(151,-15,o),
(295,-15,cs),
(389,-15,o),
(479,17,o),
(540,72,c),
(553,-8,l),
(754,29,l),
(751,34,l),
(607,47,l),
(607,184,ls),
(613,358,o),
(547,433,o),
(385,433,cs),
(284,433,o),
(193,407,o),
(75,344,c),
(146,250,l),
(153,251,l),
(152,353,l),
(191,377,o),
(259,391,o),
(339,391,cs),
(480,391,o),
(536,337,o),
(540,196,c),
(497,231,o),
(425,251,o),
(333,255,cs),
(178,262,o),
(60,205,o),
(60,124,cs)
);
},
{
closed = 1;
nodes = (
(140,187,o),
(199,220,o),
(310,220,cs),
(402,220,o),
(492,198,o),
(540,164,c),
(540,103,l),
(477,47,o),
(405,20,o),
(317,20,cs),
(208,20,o),
(140,60,o),
(140,124,cs)
);
}
);
width = 754;
},
{
anchors = (
{
name = bottom;
pos = (347,0);
},
{
name = ogonek;
pos = (544,10);
},
{
name = top;
pos = (326,410);
}
);
associatedMasterId = m002;
layerId = "A9F2DBAD-E81C-48A0-96D8-B47C59A988EB";
name = "27 Jan 22, 18:14";
shapes = (
{
closed = 1;
nodes = (
(30,37,o),
(124,-20,o),
(265,-20,cs),
(350,-20,o),
(441,10,o),
(510,61,c),
(520,-13,l),
(699,39,l),
(697,47,l),
(577,47,l),
(577,184,ls),
(577,362,o),
(514,430,o),
(355,430,cs),
(254,430,o),
(163,407,o),
(45,344,c),
(95,249,l),
(103,251,l),
(114,346,l),
(148,363,o),
(221,388,o),
(309,388,cs),
(460,388,o),
(516,330,o),
(510,175,c),
(526,191,l),
(484,227,o),
(403,250,o),
(303,255,cs),
(148,262,o),
(30,205,o),
(30,114,cs)
);
},
{
closed = 1;
nodes = (
(110,188,o),
(169,220,o),
(280,220,cs),
(363,220,o),
(456,202,o),
(510,162,c),
(510,92,l),
(444,44,o),
(371,20,o),
(287,20,cs),
(178,20,o),
(110,61,o),
(110,127,cs)
);
}
);
width = 674;
},
{
anchors = (
{
name = bottom;
pos = (222,0);
},
{
name = ogonek;
pos = (278,10);
},
{
name = top;
pos = (194,402);
}
);
layerId = m003;
shapes = (
{
closed = 1;
nodes = (
(28,34,o),
(77,-20,o),
(152,-20,cs),
(194,-20,o),
(230,-2,o),
(262,35,c),
(262,-23,l),
(425,51,l),
(423,59,l),
(323,56,l),
(328,254,ls),
(331,376,o),
(295,422,o),
(196,422,cs),
(146,422,o),
(104,411,o),
(44,382,c),
(91,269,l),
(99,271,l),
(100,369,l),
(115,377,o),
(139,382,o),
(164,382,cs),
(242,382,o),
(269,335,o),
(262,214,c),
(278,228,l),
(246,247,o),
(198,260,o),
(161,260,cs),
(83,260,o),
(28,201,o),
(28,115,cs)
);
},
{
closed = 1;
nodes = (
(98,189,o),
(128,223,o),
(179,223,cs),
(206,223,o),
(240,214,o),
(262,201,c),
(262,65,l),
(249,42,o),
(210,23,o),
(179,23,cs),
(132,23,o),
(98,67,o),
(98,130,cs)
);
}
);
width = 425;
},
{
associatedMasterId = m003;
layerId = "F7CA146F-475E-4969-AC32-67B6DF3EF1B0";
name = "May 21 19, 15:50";
shapes = (
{
closed = 1;
nodes = (
(60,43,o),
(143,-15,o),
(295,-15,cs),
(399,-15,o),
(486,22,o),
(541,72,c),
(553,-8,l),
(754,29,l),
(751,34,l),
(604,47,l),
(609,184,ls),
(609,347,o),
(548,430,o),
(385,430,cs),
(299,430,o),
(210,413,o),
(75,341,c),
(146,247,l),
(153,248,l),
(152,350,l),
(189,373,o),
(254,388,o),
(339,388,cs),
(485,388,o),
(534.851,321.434,o),
(538.761,196.471,c),
(490.434,232.274,o),
(417.071,251.222,o),
(333,255,cs),
(170,262,o),
(60,201,o),
(60,124,cs)
);
},
{
closed = 1;
nodes = (
(140,184,o),
(194,220,o),
(310,220,cs),
(406.669,220,o),
(492.769,197.098,o),
(539.363,163.694,c),
(540.449,102.848,l),
(486.091,54.057,o),
(416.209,20,o),
(317,20,cs),
(194,20,o),
(140,68,o),
(140,124,cs)
);
}
);
width = 754;
},
{
associatedMasterId = m003;
layerId = "D1C9A7C8-7F5C-4831-8DBB-F1CC3D4410FC";
name = "2 Dec 21, 16:02";
shapes = (
{
closed = 1;
nodes = (
(60,39,o),
(151,-15,o),
(295,-15,cs),
(389,-15,o),
(479,17,o),
(540,72,c),
(553,-8,l),
(754,29,l),
(751,34,l),
(607,47,l),
(607,184,ls),
(613,358,o),
(547,433,o),
(385,433,cs),
(284,433,o),
(193,407,o),
(75,344,c),
(146,250,l),
(153,251,l),
(152,353,l),
(191,377,o),
(259,391,o),
(339,391,cs),
(480,391,o),
(536,337,o),
(540,196,c),
(497,231,o),
(425,251,o),
(333,255,cs),
(178,262,o),
(60,205,o),
(60,124,cs)
);
},
{
closed = 1;
nodes = (
(140,187,o),
(199,220,o),
(310,220,cs),
(402,220,o),
(492,198,o),
(540,164,c),
(540,103,l),
(477,47,o),
(405,20,o),
(317,20,cs),
(208,20,o),
(140,60,o),
(140,124,cs)
);
}
);
width = 754;
},
{
anchors = (
{
name = bottom;
pos = (347,0);
},
{
name = ogonek;
pos = (544,10);
},
{
name = top;
pos = (326,410);
}
);
associatedMasterId = m003;
layerId = "FCF18F07-E2C3-4F05-A921-643A2F9FEB88";
name = "27 Jan 22, 18:14";
shapes = (
{
closed = 1;
nodes = (
(30,37,o),
(124,-20,o),
(265,-20,cs),
(350,-20,o),
(441,10,o),
(510,61,c),
(520,-13,l),
(699,39,l),
(697,47,l),
(577,47,l),
(577,184,ls),
(577,362,o),
(514,430,o),
(355,430,cs),
(254,430,o),
(163,407,o),
(45,344,c),
(95,249,l),
(103,251,l),
(114,346,l),
(148,363,o),
(221,388,o),
(309,388,cs),
(460,388,o),
(516,330,o),
(510,175,c),
(526,191,l),
(484,227,o),
(403,250,o),
(303,255,cs),
(148,262,o),
(30,205,o),
(30,114,cs)
);
},
{
closed = 1;
nodes = (
(110,188,o),
(169,220,o),
(280,220,cs),
(363,220,o),
(456,202,o),
(510,162,c),
(510,92,l),
(444,44,o),
(371,20,o),
(287,20,cs),
(178,20,o),
(110,61,o),
(110,127,cs)
);
}
);
width = 674;
},
{
anchors = (
{
name = bottom;
pos = (175,0);
},
{
name = ogonek;
pos = (286,10);
},
{
name = top;
pos = (171,392);
}
);
layerId = "2C26E880-80A5-4D19-8A94-7D905A372841";
shapes = (
{
closed = 1;
nodes = (
(29,35,o),
(79,-20,o),
(144,-20,cs),
(178,-20,o),
(223,-6,o),
(254,17,c),
(254,-23,l),
(382,40,l),
(380,48,l),
(283,38,l),
(288,244,ls),
(291,364,o),
(256,412,o),
(167,412,cs),
(130,412,o),
(83,399,o),
(51,378,c),
(89,279,l),
(97,281,l),
(98,373,l),
(112,381,o),
(141,386,o),
(166,386,cs),
(237,386,o),
(261,337,o),
(254,210,c),
(270,217,l),
(247,231,o),
(206,240,o),
(171,240,cs),
(81,240,o),
(29,192,o),
(29,109,cs)
);
},
{
closed = 1;
nodes = (
(65,178,o),
(102,214,o),
(167,214,cs),
(199,214,o),
(238,208,o),
(254,198,c),
(254,45,l),
(227,23,o),
(186,7,o),
(161,7,cs),
(99,7,o),
(65,47,o),
(65,114,cs)
);
}
);
width = 381;
},
{
anchors = (
{
name = bottom;
pos = (175,0);
},
{
name = ogonek;
pos = (286,10);
},
{
name = top;
pos = (171,392);
}
);
associatedMasterId = "2C26E880-80A5-4D19-8A94-7D905A372841";
layerId = "2A647253-3E0F-4327-9044-E2EA32E13360";
name = "15 Sep 22, 16:05";
shapes = (
{
closed = 1;
nodes = (
(29,35,o),
(79,-20,o),
(144,-20,cs),
(178,-20,o),
(223,-6,o),
(254,17,c),
(254,-23,l),
(382,26,l),
(380,34,l),
(283,34,l),
(288,244,ls),
(291,364,o),
(256,412,o),
(167,412,cs),
(130,412,o),
(83,399,o),
(51,378,c),
(89,279,l),
(97,281,l),
(98,373,l),
(112,381,o),
(141,386,o),
(166,386,cs),
(237,386,o),
(261,337,o),
(254,210,c),
(270,217,l),
(247,231,o),
(206,240,o),
(171,240,cs),
(81,240,o),
(29,192,o),
(29,109,cs)
);
},
{
closed = 1;
nodes = (
(65,178,o),
(102,214,o),
(167,214,cs),
(199,214,o),
(238,208,o),
(254,198,c),
(254,45,l),
(227,23,o),
(186,7,o),
(161,7,cs),
(99,7,o),
(65,47,o),
(65,114,cs)
);
}
);
width = 381;
},
{
anchors = (
{
name = bottom;
pos = (212,0);
},
{
name = ogonek;
pos = (279,10);
},
{
name = top;
pos = (189,400);
}
);
associatedMasterId = m003;
layerId = "6156C79B-33AC-468F-88CA-BDFF4A1A5C0D";
name = "15 Sep 22, 16:10";
shapes = (
{
closed = 1;
nodes = (
(20,37,o),
(75,-20,o),
(150,-20,cs),
(191,-20,o),
(228,-3,o),
(260,31,c),
(260,-23,l),
(416,34,l),
(414,42,l),
(315,42,l),
(320,252,ls),
(323,371,o),
(291,420,o),
(210,420,cs),
(166,420,o),
(101,404,o),
(45,381,c),
(90,279,l),
(98,281,l),
(99,371,l),
(112,376,o),
(161,383,o),
(184,383,cs),
(245,383,o),
(267,334,o),
(260,213,c),
(276,226,l),
(246,244,o),
(200,256,o),
(163,256,cs),
(80,256,o),
(20,197,o),
(20,114,cs)
);
},
{
closed = 1;
nodes = (
(95,187,o),
(125,221,o),
(176,221,cs),
(200,221,o),
(237,212,o),
(260,200,c),
(260,61,l),
(244,38,o),
(207,20,o),
(175,20,cs),
(128,20,o),
(95,65,o),
(95,127,cs)
);
}
);
width = 406;
},
{
anchors = (
{
name = bottom;
pos = (369,0);
},
{
name = ogonek;
pos = (555,10);
},
{
name = top;
pos = (337,415);
}
);
associatedMasterId = m002;
layerId = "4F316F20-F6CB-4837-B626-B78563727AD3";
name = "23 Sep 22, 14:29";
shapes = (
{
closed = 1;
nodes = (
(26,37,o),
(135,-20,o),
(268,-20,cs),
(352,-20,o),
(446,13,o),
(513,70,c),
(513,-23,l),
(700,64,l),
(698,72,l),
(592,62,l),
(597,188,ls),
(604,370,o),
(528,435,o),
(376,435,cs),
(255,435,o),
(153,415,o),
(49,373,c),
(100,259,l),
(108,261,l),
(119,354,l),
(168,375,o),
(242,386,o),
(314,386,cs),
(469,386,o),
(519,324,o),
(513,175,c),
(529,194,l),
(484,239,o),
(390,265,o),
(273,265,cs),
(145,265,o),
(26,209,o),
(26,117,cs)
);
},
{
closed = 1;
nodes = (
(128,195,o),
(181,224,o),
(280,224,cs),
(365,224,o),
(462,205,o),
(513,162,c),
(513,101,l),
(448,48,o),
(373,26,o),
(295,26,cs),
(193,26,o),
(128,70,o),
(128,134,cs)
);
}
);
width = 690;
},
{
anchors = (
{
name = bottom;
pos = (309,0);
},
{
name = ogonek;
pos = (527,10);
},
{
name = top;
pos = (309,401);
}
);
associatedMasterId = "0CCC0E2D-406A-4672-8E6C-854B1DF78A27";
layerId = "F70D2006-52F4-45C3-8781-C26145437470";
name = "23 Sep 22, 14:32";
shapes = (
{
closed = 1;
nodes = (
(39,36,o),
(108,-20,o),
(261,-20,cs),
(349,-20,o),
(433,5,o),
(506,46,c),
(506,-23,l),
(644,50,l),
(642,58,l),
(536,48,l),
(542,175,ls),
(551,355,o),
(481,421,o),
(320,421,cs),
(225,421,o),
(133,402,o),
(46,352,c),
(87,249,l),
(95,251,l),
(106,350,l),
(146,375,o),
(234,392,o),
(301,392,cs),
(453,392,o),
(512,332,o),
(506,175,c),
(522,185,l),
(482,210,o),
(396,239,o),
(289,239,cs),
(120,239,o),
(39,184,o),
(39,109,cs)
);
},
{
closed = 1;
nodes = (
(80,175,o),
(149,212,o),
(282,212,cs),
(375,212,o),
(457,190,o),
(506,163,c),
(506,75,l),
(433,33,o),
(363,10,o),
(274,10,cs),
(153,10,o),
(80,46,o),
(80,113,cs)
);
}
);
width = 648;
}
);
unicode = 97;
}
{
glyphname = h;
kernLeft = l;
kernRight = n;
layers = (
{
anchors = (
{
name = bottom;
pos = (398,0);
},
{
name = center;
pos = (398,375);
},
{
name = top;
pos = (398,691);
}
);
layerId = "0CCC0E2D-406A-4672-8E6C-854B1DF78A27";
shapes = (
{
closed = 1;
nodes = (
(138,296,l),
(235,360,o),
(322,391,o),
(419,391,cs),
(551,391,o),
(610,330,o),
(610,217,cs),
(610,50,l),
(460,8,l),
(462,0,l),
(778,1,l),
(780,9,l),
(649,49,l),
(649,223,ls),
(649,351,o),
(579,421,o),
(434,421,cs),
(341,421,o),
(243,392,o),
(138,323,c)
);
},
{
closed = 1;
nodes = (
(110,640,l),
(110,50,l),
(-30,6,l),
(-28,0,l),
(297,0,l),
(299,6,l),
(149,50,l),
(149,711,l),
(-31,640,l),
(-29,632,l)
);
}
);
width = 799;
},
{
anchors = (
{
name = bottom;
pos = (356,0);
},
{
name = center;
pos = (356,375);
},
{
name = top;
pos = (356,705);
}
);
layerId = m002;
shapes = (
{
closed = 1;
nodes = (
(150,284,l),
(245,347,o),
(344,379,o),
(413,379,cs),
(535,379,o),
(601,321,o),
(602,213,cs),
(604,50,l),
(454,8,l),
(456,0,l),
(818,1,l),
(820,9,l),
(689,49,l),
(689,210,ls),
(689,355,o),
(606,435,o),
(461,435,cs),
(364,435,o),
(258,397,o),
(150,323,c)
);
},
{
closed = 1;
nodes = (
(96,640,l),
(96,50,l),
(-44,9,l),
(-42,0,l),
(331,0,l),
(333,9,l),
(183,50,l),
(183,725,l),
(-45,640,l),
(-43,632,l)
);
}
);
width = 826;
},
{
anchors = (
{
name = bottom;
pos = (251,0);
},
{
name = center;
pos = (252,375);
},
{
name = top;
pos = (245,692);
}
);
layerId = m003;
shapes = (
{
closed = 1;
nodes = (
(139,276,l),
(189,343,o),
(228,371,o),
(268,371,cs),
(318,371,o),
(346,329,o),
(346,253,cs),
(346,45,l),
(266,8,l),
(268,0,l),
(517,0,l),
(519,8,l),
(418,44,l),
(418,264,ls),
(418,364,o),
(378,422,o),
(306,422,cs),
(250,422,o),
(198,387,o),
(139,312,c)
);
},
{
closed = 1;
nodes = (
(89,637,l),
(89,45,l),
(-21,6,l),
(-19,0,l),
(233,0,l),
(235,8,l),
(162,45,l),
(162,712,l),
(-22,637,l),
(-18,629,l)
);
}
);
width = 527;
},
{
anchors = (
{
name = bottom;
pos = (251,0);
},
{
name = center;
pos = (249,375);
},
{
name = top;
pos = (276,682);
}
);
layerId = "2C26E880-80A5-4D19-8A94-7D905A372841";
shapes = (
{
closed = 1;
nodes = (
(124,286,l),
(170,348,o),
(218,383,o),
(267,383,cs),
(322,383,o),
(345,346,o),
(345,257,cs),
(345,45,l),
(265,8,l),
(267,0,l),
(479,0,l),
(481,8,l),
(380,44,l),
(380,264,ls),
(380,366,o),
(349,412,o),
(280,412,cs),
(224,412,o),
(173,381,o),
(124,318,c)
);
},
{
closed = 1;
nodes = (
(99,627,l),
(99,47,l),
(-11,8,l),
(-9,0,l),
(238,0,l),
(240,8,l),
(133,47,l),
(133,702,l),
(-12,627,l),
(-8,619,l)
);
}
);
width = 500;
}
);
metricLeft = l;
metricRight = n;
unicode = 104;
}
{
glyphname = r;
kernLeft = n;
kernRight = r;
layers = (
{
associatedMasterId = "0CCC0E2D-406A-4672-8E6C-854B1DF78A27";
layerId = "F5228277-E8B0-4705-863D-FCA63B62FACF";
name = "Mar 17 18, 18:20";
shapes = (
{
closed = 1;
nodes = (
(200,355,l),
(200,35,l),
(50,6,l),
(52,0,l),
(418,0,l),
(420,5,l),
(270,35,l),
(270,375,l),
(279,410,l),
(50,355,l),
(52,350,l)
);
},
{
closed = 1;
nodes = (
(561,425,l),
(428,425,o),
(351,388,o),
(264,307,c),
(267,276,l),
(330,334,o),
(423,370,o),
(561,370,c)
);
}
);
width = 631;
},
{
associatedMasterId = "0CCC0E2D-406A-4672-8E6C-854B1DF78A27";
layerId = "C093D5AB-2D7B-4FFD-9775-6DF6C6123651";
name = "Mar 20 18, 19:24";
shapes = (
{
closed = 1;
nodes = (
(200,355,l),
(200,35,l),
(50,6,l),
(52,0,l),
(418,0,l),
(420,5,l),
(270,35,l),
(270,375,l),
(279,410,l),
(50,355,l),
(52,350,l)
);
},
{
closed = 1;
nodes = (
(541,425,l),
(437,393,o),
(340,355,o),
(264,277,c),
(267,246,l),
(328,309,o),
(424,338,o),
(541,370,c)
);
}
);
width = 631;
},
{
associatedMasterId = "0CCC0E2D-406A-4672-8E6C-854B1DF78A27";
layerId = "3B801681-A814-4B21-B1B1-9CF3872878A1";
name = "Extended Sep 30 18, 18:26";
shapes = (
{
closed = 1;
nodes = (
(200,340,l),
(200,49,l),
(50,8,l),
(52,0,l),
(448,0,l),
(450,7,l),
(270,50,l),
(270,360,l),
(279,410,l),
(50,340,l),
(52,335,l)
);
},
{
closed = 1;
nodes = (
(267,246,l),
(321,323,o),
(417,382,o),
(496,377,c),
(501,273,l),
(505,271,l),
(582,381,l),
(552,405,o),
(529,410,o),
(502,410,cs),
(417,410,o),
(328,366,o),
(264,277,c)
);
}
);
width = 640;
},
{
anchors = (
{
name = bottom;
pos = (288,0);
},
{
name = top;
pos = (305,410);
}
);
layerId = "0CCC0E2D-406A-4672-8E6C-854B1DF78A27";
shapes = (
{
closed = 1;
nodes = (
(219,241,l),
(313,346,o),
(406,396,o),
(494,392,c),
(469,409,l),
(491,258,l),
(499,256,l),
(548,416,l),
(537,420,o),
(518,422,o),
(496,422,cs),
(390,422,o),
(305,374,o),
(208,260,c)
);
},
{
closed = 1;
nodes = (
(224,421,l),
(44,341,l),
(46,333,l),
(185,341,l),
(185,49,l),
(55,8,l),
(57,0,l),
(422,0,l),
(424,7,l),
(224,50,l)
);
}
);
width = 572;
},
{
associatedMasterId = "0CCC0E2D-406A-4672-8E6C-854B1DF78A27";
layerId = "3F2FD781-F1EC-443A-A086-A037022FC1BC";
name = "Mar 17 18, 18:20";
shapes = (
{
closed = 1;
nodes = (
(200,355,l),
(200,35,l),
(50,6,l),
(52,0,l),
(418,0,l),
(420,5,l),
(270,35,l),
(270,375,l),
(279,410,l),
(50,355,l),
(52,350,l)
);
},
{
closed = 1;
nodes = (
(561,425,l),
(428,425,o),
(351,388,o),
(264,307,c),
(267,276,l),
(330,334,o),
(423,370,o),
(561,370,c)
);
}
);
width = 631;
},
{
associatedMasterId = "0CCC0E2D-406A-4672-8E6C-854B1DF78A27";
layerId = "6AEE371D-AE02-4ACF-859D-9216CB669FA8";
name = "Mar 20 18, 19:24";
shapes = (
{
closed = 1;
nodes = (
(200,355,l),
(200,35,l),
(50,6,l),
(52,0,l),
(418,0,l),
(420,5,l),
(270,35,l),
(270,375,l),
(279,410,l),
(50,355,l),
(52,350,l)
);
},
{
closed = 1;
nodes = (
(541,425,l),
(437,393,o),
(340,355,o),
(264,277,c),
(267,246,l),
(328,309,o),
(424,338,o),
(541,370,c)
);
}
);
width = 631;
},
{
associatedMasterId = "0CCC0E2D-406A-4672-8E6C-854B1DF78A27";
layerId = "5683F7AE-84BC-4CB0-A715-B09D34828A7D";
name = "Extended Sep 30 18, 18:26";
shapes = (
{
closed = 1;
nodes = (
(200,340,l),
(200,49,l),
(50,8,l),
(52,0,l),
(448,0,l),
(450,7,l),
(270,50,l),
(270,360,l),
(279,410,l),
(50,340,l),
(52,335,l)
);
},
{
closed = 1;
nodes = (
(267,246,l),
(321,323,o),
(417,382,o),
(496,377,c),
(501,273,l),
(505,271,l),
(582,381,l),
(552,405,o),
(529,410,o),
(502,410,cs),
(417,410,o),
(328,366,o),
(264,277,c)
);
}
);
width = 640;
},
{
associatedMasterId = "0CCC0E2D-406A-4672-8E6C-854B1DF78A27";
layerId = "64B96001-51F6-400E-949D-DB9226771836";
name = "Mar 17 18, 22:34";
shapes = (
{
closed = 1;
nodes = (
(100,357,l),
(100,30,l),
(10,5,l),
(14,0,l),
(217,0,l),
(220,5,l),
(150,30,l),
(150,378,l),
(157,404,l),
(30,362,l),
(32,360,l)
);
},
{
closed = 1;
nodes = (
(288,409,l),
(231,406,o),
(167,370,o),
(138,300,c),
(150,287,l),
(181,352,o),
(231,364,o),
(288,365,c)
);
}
);
width = 298;
},
{
associatedMasterId = m002;
layerId = "F8D60DFF-3E1A-4CAF-B662-57F77C8828BE";
name = "Mar 17 18, 18:20";
shapes = (
{
closed = 1;
nodes = (
(200,355,l),
(200,35,l),
(50,6,l),
(52,0,l),
(418,0,l),
(420,5,l),
(270,35,l),
(270,375,l),
(279,410,l),
(50,355,l),
(52,350,l)
);
},
{
closed = 1;
nodes = (
(561,425,l),
(428,425,o),
(351,388,o),
(264,307,c),
(267,276,l),
(330,334,o),
(423,370,o),
(561,370,c)
);
}
);
width = 631;
},
{
associatedMasterId = m002;
layerId = "D156CD7B-6632-4059-98E0-176DF326F91F";
name = "Mar 20 18, 19:24";
shapes = (
{
closed = 1;
nodes = (
(200,355,l),
(200,35,l),
(50,6,l),
(52,0,l),
(418,0,l),
(420,5,l),
(270,35,l),
(270,375,l),
(279,410,l),
(50,355,l),
(52,350,l)
);
},
{
closed = 1;
nodes = (
(541,425,l),
(437,393,o),
(340,355,o),
(264,277,c),
(267,246,l),
(328,309,o),
(424,338,o),
(541,370,c)
);
}
);
width = 631;
},
{
associatedMasterId = m002;
layerId = "BD666A25-45F2-4487-8B76-8D754BC2433A";
name = "Extended Sep 30 18, 18:26";
shapes = (
{
closed = 1;
nodes = (
(200,340,l),
(200,49,l),
(50,8,l),
(52,0,l),
(448,0,l),
(450,7,l),
(270,50,l),
(270,360,l),
(279,410,l),
(50,340,l),
(52,335,l)
);
},
{
closed = 1;
nodes = (
(267,246,l),
(321,323,o),
(417,382,o),
(496,377,c),
(501,273,l),
(505,271,l),
(582,381,l),
(552,405,o),
(529,410,o),
(502,410,cs),
(417,410,o),
(328,366,o),
(264,277,c)
);
}
);
width = 640;
},
{
anchors = (
{
name = bottom;
pos = (301,0);
},
{
name = top;
pos = (292,410);
}
);
layerId = m002;
shapes = (
{
closed = 1;
nodes = (
(244,227,l),
(330,337,o),
(431,375,o),
(535,349,c),
(510,423,l),
(532,258,l),
(540,256,l),
(589,427,l),
(576,432,o),
(552,436,o),
(537,436,cs),
(447,436,o),
(328,384,o),
(229,254,c)
);
},
{
closed = 1;
nodes = (
(259,435,l),
(31,355,l),
(33,347,l),
(172,355,l),
(172,49,l),
(42,8,l),
(44,0,l),
(457,0,l),
(459,7,l),
(259,50,l)
);
}
);
width = 600;
},
{
associatedMasterId = m002;
layerId = "88294745-94EE-4BB4-B204-8DACB6AA44AC";
name = "Mar 17 18, 18:20";
shapes = (
{
closed = 1;
nodes = (
(200,355,l),
(200,35,l),
(50,6,l),
(52,0,l),
(418,0,l),
(420,5,l),
(270,35,l),
(270,375,l),
(279,410,l),
(50,355,l),
(52,350,l)
);
},
{
closed = 1;
nodes = (
(561,425,l),
(428,425,o),
(351,388,o),
(264,307,c),
(267,276,l),
(330,334,o),
(423,370,o),
(561,370,c)
);
}
);
width = 631;
},
{
associatedMasterId = m002;
layerId = "FE613818-6E25-49C5-8D5A-75B99F8E9FF8";
name = "Mar 20 18, 19:24";
shapes = (
{
closed = 1;
nodes = (
(200,355,l),
(200,35,l),
(50,6,l),
(52,0,l),
(418,0,l),
(420,5,l),
(270,35,l),
(270,375,l),
(279,410,l),
(50,355,l),
(52,350,l)
);
},
{
closed = 1;
nodes = (
(541,425,l),
(437,393,o),
(340,355,o),
(264,277,c),
(267,246,l),
(328,309,o),
(424,338,o),
(541,370,c)
);
}
);
width = 631;
},
{
associatedMasterId = m002;
layerId = "11C1E8F2-E6F6-444E-9144-EDB8CB922444";
name = "Extended Sep 30 18, 18:26";
shapes = (
{
closed = 1;
nodes = (
(200,340,l),
(200,49,l),
(50,8,l),
(52,0,l),
(448,0,l),
(450,7,l),
(270,50,l),
(270,360,l),
(279,410,l),
(50,340,l),
(52,335,l)
);
},
{
closed = 1;
nodes = (
(267,246,l),
(321,323,o),
(417,382,o),
(496,377,c),
(501,273,l),
(505,271,l),
(582,381,l),
(552,405,o),
(529,410,o),
(502,410,cs),
(417,410,o),
(328,366,o),
(264,277,c)
);
}
);
width = 640;
},
{
associatedMasterId = m002;
layerId = "9E74ADFE-74E8-4E8F-82F3-3B93C833D8BB";
name = "Mar 17 18, 22:34";
shapes = (
{
closed = 1;
nodes = (
(100,357,l),
(100,30,l),
(10,5,l),
(14,0,l),
(217,0,l),
(220,5,l),
(150,30,l),
(150,378,l),
(157,404,l),
(30,362,l),
(32,360,l)
);
},
{
closed = 1;
nodes = (
(288,409,l),
(231,406,o),
(167,370,o),
(138,300,c),
(150,287,l),
(181,352,o),
(231,364,o),
(288,365,c)
);
}
);
width = 298;
},
{
associatedMasterId = m003;
layerId = "9A13DB3F-9FAA-4C89-BC1D-A874A6ACDC30";
name = "Mar 17 18, 18:20";
shapes = (
{
closed = 1;
nodes = (
(200,355,l),
(200,35,l),
(50,6,l),
(52,0,l),
(418,0,l),
(420,5,l),
(270,35,l),
(270,375,l),
(279,410,l),
(50,355,l),
(52,350,l)
);
},
{
closed = 1;
nodes = (
(561,425,l),
(428,425,o),
(351,388,o),
(264,307,c),
(267,276,l),
(330,334,o),
(423,370,o),
(561,370,c)
);
}
);
width = 631;
},
{
associatedMasterId = m003;
layerId = "CE9A862E-F97A-40BB-B06B-3C7D214DC8F5";
name = "Mar 20 18, 19:24";
shapes = (
{
closed = 1;
nodes = (
(200,355,l),
(200,35,l),
(50,6,l),
(52,0,l),
(418,0,l),
(420,5,l),
(270,35,l),
(270,375,l),
(279,410,l),
(50,355,l),
(52,350,l)
);
},
{
closed = 1;
nodes = (
(541,425,l),
(437,393,o),
(340,355,o),
(264,277,c),
(267,246,l),
(328,309,o),
(424,338,o),
(541,370,c)
);
}
);
width = 631;
},
{
associatedMasterId = m003;
layerId = "AAD0E1AA-E500-40ED-8351-1197AB611FDF";
name = "Extended Sep 30 18, 18:26";
shapes = (
{
closed = 1;
nodes = (
(200,340,l),
(200,49,l),
(50,8,l),
(52,0,l),
(448,0,l),
(450,7,l),
(270,50,l),
(270,360,l),
(279,410,l),
(50,340,l),
(52,335,l)
);
},
{
closed = 1;
nodes = (
(267,246,l),
(321,323,o),
(417,382,o),
(496,377,c),
(501,273,l),
(505,271,l),
(582,381,l),
(552,405,o),
(529,410,o),
(502,410,cs),
(417,410,o),
(328,366,o),
(264,277,c)
);
}
);
width = 640;
},
{
anchors = (
{
name = bottom;
pos = (180,0);
},
{
name = top;
pos = (236,400);
}
);
layerId = m003;
shapes = (
{
closed = 1;
nodes = (
(211,237,l),
(260,346,o),
(284,374,o),
(334,363,c),
(321,410,l),
(343,248,l),
(351,246,l),
(390,414,l),
(381,419,o),
(366,422,o),
(348,422,cs),
(286,422,o),
(247,385,o),
(196,255,c)
);
},
{
closed = 1;
nodes = (
(218,422,l),
(34,345,l),
(36,337,l),
(145,345,l),
(145,47,l),
(33,8,l),
(35,0,l),
(344,0,l),
(346,8,l),
(218,47,l)
);
}
);
width = 418;
},
{
associatedMasterId = m003;
layerId = "A097E159-3018-4A00-84F6-4EF6489BB9BD";
name = "Mar 17 18, 18:20";
shapes = (
{
closed = 1;
nodes = (
(200,355,l),
(200,35,l),
(50,6,l),
(52,0,l),
(418,0,l),
(420,5,l),
(270,35,l),
(270,375,l),
(279,410,l),
(50,355,l),
(52,350,l)
);
},
{
closed = 1;
nodes = (
(561,425,l),
(428,425,o),
(351,388,o),
(264,307,c),
(267,276,l),
(330,334,o),
(423,370,o),
(561,370,c)
);
}
);
width = 631;
},
{
associatedMasterId = m003;
layerId = "AD1AC73F-BF53-4EE3-BC0B-25517DDE7497";
name = "Mar 20 18, 19:24";
shapes = (
{
closed = 1;
nodes = (
(200,355,l),
(200,35,l),
(50,6,l),
(52,0,l),
(418,0,l),
(420,5,l),
(270,35,l),
(270,375,l),
(279,410,l),
(50,355,l),
(52,350,l)
);
},
{
closed = 1;
nodes = (
(541,425,l),
(437,393,o),
(340,355,o),
(264,277,c),
(267,246,l),
(328,309,o),
(424,338,o),
(541,370,c)
);
}
);
width = 631;
},
{
associatedMasterId = m003;
layerId = "56B69F48-584E-436C-9BA4-38A93AC9D4B8";
name = "Extended Sep 30 18, 18:26";
shapes = (
{
closed = 1;
nodes = (
(200,340,l),
(200,49,l),
(50,8,l),
(52,0,l),
(448,0,l),
(450,7,l),
(270,50,l),
(270,360,l),
(279,410,l),
(50,340,l),
(52,335,l)
);
},
{
closed = 1;
nodes = (
(267,246,l),
(321,323,o),
(417,382,o),
(496,377,c),
(501,273,l),
(505,271,l),
(582,381,l),
(552,405,o),
(529,410,o),
(502,410,cs),
(417,410,o),
(328,366,o),
(264,277,c)
);
}
);
width = 640;
},
{
associatedMasterId = m003;
layerId = "244C098E-E8E8-4449-B2F3-455FEB470BD5";
name = "Mar 17 18, 22:34";
shapes = (
{
closed = 1;
nodes = (
(100,357,l),
(100,30,l),
(10,5,l),
(14,0,l),
(217,0,l),
(220,5,l),
(150,30,l),
(150,378,l),
(157,404,l),
(30,362,l),
(32,360,l)
);
},
{
closed = 1;
nodes = (
(288,409,l),
(231,406,o),
(167,370,o),
(138,300,c),
(150,287,l),
(181,352,o),
(231,364,o),
(288,365,c)
);
}
);
width = 298;
},
{
anchors = (
{
name = bottom;
pos = (162,0);
},
{
name = top;
pos = (237,400);
}
);
layerId = "2C26E880-80A5-4D19-8A94-7D905A372841";
shapes = (
{
closed = 1;
nodes = (
(183,242,l),
(234,356,o),
(270,385,o),
(317,382,c),
(293,400,l),
(315,268,l),
(323,266,l),
(362,404,l),
(351,409,o),
(337,412,o),
(320,412,cs),
(266,412,o),
(217,376,o),
(172,260,c)
);
},
{
closed = 1;
nodes = (
(184,412,l),
(39,345,l),
(41,337,l),
(150,345,l),
(150,47,l),
(49,8,l),
(51,0,l),
(321,0,l),
(323,8,l),
(184,47,l)
);
}
);
width = 401;
},
{
anchors = (
{
name = bottom;
pos = (288,0);
},
{
name = top;
pos = (305,410);
}
);
associatedMasterId = "0CCC0E2D-406A-4672-8E6C-854B1DF78A27";
layerId = "E050540B-5AD1-4CC8-9E9B-3DEB405B5413";
name = "25 Sep 22, 12:28";
shapes = (
{
closed = 1;
nodes = (
(219,244,l),
(309,345,o),
(402,391,o),
(494,387,c),
(469,409,l),
(491,258,l),
(499,256,l),
(548,413,l),
(531,420,o),
(518,422,o),
(496,422,cs),
(392,422,o),
(296,363,o),
(208,260,c)
);
},
{
closed = 1;
nodes = (
(224,421,l),
(44,341,l),
(46,333,l),
(185,341,l),
(185,49,l),
(55,8,l),
(57,0,l),
(422,0,l),
(424,7,l),
(224,50,l)
);
}
);
width = 572;
}
);
metricLeft = n;
unicode = 114;
}
{
glyphname = v;
kernLeft = v;
kernRight = v;
layers = (
{
associatedMasterId = "0CCC0E2D-406A-4672-8E6C-854B1DF78A27";
layerId = "C4FF9C93-AB8F-4C8C-8482-2A9344FC21CD";
name = "Mar 14 18, 13:00";
shapes = (
{
closed = 1;
nodes = (
(-38,395,l),
(112,365,l),
(398,0,l),
(455,31,l),
(202,365,l),
(352,395,l),
(350,400,l),
(-36,400,l)
);
},
{
closed = 1;
nodes = (
(530,394,l),
(680,365,l),
(399,0,l),
(449,0,l),
(740,365,l),
(890,393,l),
(888,400,l),
(532,400,l)
);
}
);
width = 856;
},
{
associatedMasterId = "0CCC0E2D-406A-4672-8E6C-854B1DF78A27";
layerId = "F527537E-1890-4F15-82A9-0D26FB82BD39";
name = "Mar 14 18, 13:01";
shapes = (
{
closed = 1;
nodes = (
(39,395,l),
(186,365,l),
(464,-10,l),
(468,-10,l),
(501,39,l),
(266,365,l),
(412,395,l),
(410,400,l),
(41,400,l)
);
},
{
closed = 1;
nodes = (
(555,394,l),
(700,365,l),
(451,31,l),
(468,-10,l),
(760,365,l),
(906,393,l),
(904,400,l),
(557,400,l)
);
}
);
width = 936;
},
{
associatedMasterId = "0CCC0E2D-406A-4672-8E6C-854B1DF78A27";
layerId = "FBE15539-7B10-48DF-B6D9-9F0C320D3135";
name = "Extended Mar 14 18, 13:15";
shapes = (
{
closed = 1;
nodes = (
(25,395,l),
(175,365,l),
(464,0,l),
(468,0,l),
(502,49,l),
(258,365,l),
(410,395,l),
(408,400,l),
(27,400,l)
);
},
{
closed = 1;
nodes = (
(559,394,l),
(709,365,l),
(450,41,l),
(468,0,l),
(771,365,l),
(921,393,l),
(919,400,l),
(561,400,l)
);
}
);
width = 936;
},
{
anchors = (
{
name = bottom;
pos = (399,0);
},
{
name = top;
pos = (399,401);
}
);
layerId = "0CCC0E2D-406A-4672-8E6C-854B1DF78A27";
shapes = (
{
closed = 1;
nodes = (
(129,351,l),
(383,0,l),
(408,0,l),
(655,351,l),
(795,393,l),
(793,401,l),
(457,401,l),
(455,393,l),
(615,351,l),
(385,14,l),
(401,30,l),
(175,351,l),
(335,393,l),
(333,401,l),
(-9,401,l),
(-11,393,l)
);
}
);
width = 739;
},
{
associatedMasterId = "0CCC0E2D-406A-4672-8E6C-854B1DF78A27";
layerId = "A5A95338-FD0C-46BA-A0A6-E989D9BC8CE3";
name = "Mar 14 18, 13:00";
shapes = (
{
closed = 1;
nodes = (
(-38,395,l),
(112,365,l),
(398,0,l),
(455,31,l),
(202,365,l),
(352,395,l),
(350,400,l),
(-36,400,l)
);
},
{
closed = 1;
nodes = (
(530,394,l),
(680,365,l),
(399,0,l),
(449,0,l),
(740,365,l),
(890,393,l),
(888,400,l),
(532,400,l)
);
}
);
width = 856;
},
{
associatedMasterId = "0CCC0E2D-406A-4672-8E6C-854B1DF78A27";
layerId = "7F840D9A-9095-4889-BCA5-8831B19A1411";
name = "Mar 14 18, 13:01";
shapes = (
{
closed = 1;
nodes = (
(39,395,l),
(186,365,l),
(464,-10,l),
(468,-10,l),
(501,39,l),
(266,365,l),
(412,395,l),
(410,400,l),
(41,400,l)
);
},
{
closed = 1;
nodes = (
(555,394,l),
(700,365,l),
(451,31,l),
(468,-10,l),
(760,365,l),
(906,393,l),
(904,400,l),
(557,400,l)
);
}
);
width = 936;
},
{
associatedMasterId = "0CCC0E2D-406A-4672-8E6C-854B1DF78A27";
layerId = "DEF4E739-52D2-448F-89A1-6B081C0BE369";
name = "Extended Mar 14 18, 13:15";
shapes = (
{
closed = 1;
nodes = (
(25,395,l),
(175,365,l),
(464,0,l),
(468,0,l),
(502,49,l),
(258,365,l),
(410,395,l),
(408,400,l),
(27,400,l)
);
},
{
closed = 1;
nodes = (
(559,394,l),
(709,365,l),
(450,41,l),
(468,0,l),
(771,365,l),
(921,393,l),
(919,400,l),
(561,400,l)
);
}
);
width = 936;
},
{
anchors = (
{
name = bottom;
pos = (362,0);
},
{
name = top;
pos = (362,410);
}
);
associatedMasterId = "0CCC0E2D-406A-4672-8E6C-854B1DF78A27";
layerId = "5758CD3E-95C0-4595-A9AD-D635039AE44D";
name = "16 Jan 22, 11:27";
shapes = (
{
closed = 1;
nodes = (
(70,360,l),
(341,0,l),
(381,0,l),
(628,360,l),
(768,402,l),
(766,410,l),
(415,410,l),
(413,402,l),
(573,360,l),
(357,14,l),
(386,30,l),
(160,360,l),
(320,402,l),
(318,410,l),
(-68,410,l),
(-70,402,l)
);
}
);
width = 738;
},
{
associatedMasterId = m002;
layerId = "B1DE25FC-B13F-43A5-BE1F-8DBA508CC86F";
name = "Mar 14 18, 13:00";
shapes = (
{
closed = 1;
nodes = (
(-38,395,l),
(112,365,l),
(398,0,l),
(455,31,l),
(202,365,l),
(352,395,l),
(350,400,l),
(-36,400,l)
);
},
{
closed = 1;
nodes = (
(530,394,l),
(680,365,l),
(399,0,l),
(449,0,l),
(740,365,l),
(890,393,l),
(888,400,l),
(532,400,l)
);
}
);
width = 856;
},
{
associatedMasterId = m002;
layerId = "07F25D06-A5BE-41C6-8A5F-C12B54FA9620";
name = "Mar 14 18, 13:01";
shapes = (
{
closed = 1;
nodes = (
(39,395,l),
(186,365,l),
(464,-10,l),
(468,-10,l),
(501,39,l),
(266,365,l),
(412,395,l),
(410,400,l),
(41,400,l)
);
},
{
closed = 1;
nodes = (
(555,394,l),
(700,365,l),
(451,31,l),
(468,-10,l),
(760,365,l),
(906,393,l),
(904,400,l),
(557,400,l)
);
}
);
width = 936;
},
{
associatedMasterId = m002;
layerId = "57EB2F81-504C-4EFB-B3DA-24AA26B75F57";
name = "Extended Mar 14 18, 13:15";
shapes = (
{
closed = 1;
nodes = (
(25,395,l),
(175,365,l),
(464,0,l),
(468,0,l),
(502,49,l),
(258,365,l),
(410,395,l),
(408,400,l),
(27,400,l)
);
},
{
closed = 1;
nodes = (
(559,394,l),
(709,365,l),
(450,41,l),
(468,0,l),
(771,365,l),
(921,393,l),
(919,400,l),
(561,400,l)
);
}
);
width = 936;
},
{
anchors = (
{
name = bottom;
pos = (419,0);
},
{
name = top;
pos = (419,415);
}
);
layerId = m002;
shapes = (
{
closed = 1;
nodes = (
(115,365,l),
(385,0,l),
(434,0,l),
(691,365,l),
(831,407,l),
(829,415,l),
(469,415,l),
(467,407,l),
(627,365,l),
(409,14,l),
(446,30,l),
(230,365,l),
(390,407,l),
(388,415,l),
(-23,415,l),
(-25,407,l)
);
}
);
width = 761;
},
{
associatedMasterId = m002;
layerId = "6A25F20F-BF93-4CD6-AE58-895050AA68F8";
name = "Mar 14 18, 13:00";
shapes = (
{
closed = 1;
nodes = (
(-38,395,l),
(112,365,l),
(398,0,l),
(455,31,l),
(202,365,l),
(352,395,l),
(350,400,l),
(-36,400,l)
);
},
{
closed = 1;
nodes = (
(530,394,l),
(680,365,l),
(399,0,l),
(449,0,l),
(740,365,l),
(890,393,l),
(888,400,l),
(532,400,l)
);
}
);
width = 856;
},
{
associatedMasterId = m002;
layerId = "5C18FA35-5022-421F-9F45-8034FB009052";
name = "Mar 14 18, 13:01";
shapes = (
{
closed = 1;
nodes = (
(39,395,l),
(186,365,l),
(464,-10,l),
(468,-10,l),
(501,39,l),
(266,365,l),
(412,395,l),
(410,400,l),
(41,400,l)
);
},
{
closed = 1;
nodes = (
(555,394,l),
(700,365,l),
(451,31,l),
(468,-10,l),
(760,365,l),
(906,393,l),
(904,400,l),
(557,400,l)
);
}
);
width = 936;
},
{
associatedMasterId = m002;
layerId = "B569B216-8BB4-4D47-831D-093C0B282EC0";
name = "Extended Mar 14 18, 13:15";
shapes = (
{
closed = 1;
nodes = (
(25,395,l),
(175,365,l),
(464,0,l),
(468,0,l),
(502,49,l),
(258,365,l),
(410,395,l),
(408,400,l),
(27,400,l)
);
},
{
closed = 1;
nodes = (
(559,394,l),
(709,365,l),
(450,41,l),
(468,0,l),
(771,365,l),
(921,393,l),
(919,400,l),
(561,400,l)
);
}
);
width = 936;
},
{
anchors = (
{
name = bottom;
pos = (362,0);
},
{
name = top;
pos = (362,410);
}
);
associatedMasterId = m002;
layerId = "37A43696-BD3C-49F3-A280-C0774B6BB093";
name = "16 Jan 22, 11:27";
shapes = (
{
closed = 1;
nodes = (
(70,360,l),
(341,0,l),
(381,0,l),
(628,360,l),
(768,402,l),
(766,410,l),
(415,410,l),
(413,402,l),
(573,360,l),
(357,14,l),
(386,30,l),
(160,360,l),
(320,402,l),
(318,410,l),
(-68,410,l),
(-70,402,l)
);
}
);
width = 738;
},
{
associatedMasterId = m003;
layerId = "2437FC54-CC25-46CB-9EC0-6DA3BCC59C3A";
name = "Mar 14 18, 13:00";
shapes = (
{
closed = 1;
nodes = (
(-38,395,l),
(112,365,l),
(398,0,l),
(455,31,l),
(202,365,l),
(352,395,l),
(350,400,l),
(-36,400,l)
);
},
{
closed = 1;
nodes = (
(530,394,l),
(680,365,l),
(399,0,l),
(449,0,l),
(740,365,l),
(890,393,l),
(888,400,l),
(532,400,l)
);
}
);
width = 856;
},
{
associatedMasterId = m003;
layerId = "ABA7E8D8-E712-49F4-B0EE-B63D1251763A";
name = "Mar 14 18, 13:01";
shapes = (
{
closed = 1;
nodes = (
(39,395,l),
(186,365,l),
(464,-10,l),
(468,-10,l),
(501,39,l),
(266,365,l),
(412,395,l),
(410,400,l),
(41,400,l)
);
},
{
closed = 1;
nodes = (
(555,394,l),
(700,365,l),
(451,31,l),
(468,-10,l),
(760,365,l),
(906,393,l),
(904,400,l),
(557,400,l)
);
}
);
width = 936;
},
{
associatedMasterId = m003;
layerId = "EBCFD88D-8BD9-4DFA-A701-EEF9C4DE5F46";
name = "Extended Mar 14 18, 13:15";
shapes = (
{
closed = 1;
nodes = (
(25,395,l),
(175,365,l),
(464,0,l),
(468,0,l),
(502,49,l),
(258,365,l),
(410,395,l),
(408,400,l),
(27,400,l)
);
},
{
closed = 1;
nodes = (
(559,394,l),
(709,365,l),
(450,41,l),
(468,0,l),
(771,365,l),
(921,393,l),
(919,400,l),
(561,400,l)
);
}
);
width = 936;
},
{
anchors = (
{
name = bottom;
pos = (208,0);
},
{
name = top;
pos = (208,402);
}
);
layerId = m003;
shapes = (
{
closed = 1;
nodes = (
(30,357,l),
(175,0,l),
(222,0,l),
(356,357,l),
(426,394,l),
(424,402,l),
(231,402,l),
(229,394,l),
(309,357,l),
(196,14,l),
(225,30,l),
(108,357,l),
(188,394,l),
(186,402,l),
(-38,402,l),
(-40,394,l)
);
}
);
width = 394;
},
{
associatedMasterId = m003;
layerId = "278FFBF8-B821-4EE2-AA62-A45A645D567B";
name = "Mar 14 18, 13:00";
shapes = (
{
closed = 1;
nodes = (
(-38,395,l),
(112,365,l),
(398,0,l),
(455,31,l),
(202,365,l),
(352,395,l),
(350,400,l),
(-36,400,l)
);
},
{
closed = 1;
nodes = (
(530,394,l),
(680,365,l),
(399,0,l),
(449,0,l),
(740,365,l),
(890,393,l),
(888,400,l),
(532,400,l)
);
}
);
width = 856;
},
{
associatedMasterId = m003;
layerId = "7C75A46B-0E7B-4811-B4ED-81528D91C358";
name = "Mar 14 18, 13:01";
shapes = (
{
closed = 1;
nodes = (
(39,395,l),
(186,365,l),
(464,-10,l),
(468,-10,l),
(501,39,l),
(266,365,l),
(412,395,l),
(410,400,l),
(41,400,l)
);
},
{
closed = 1;
nodes = (
(555,394,l),
(700,365,l),
(451,31,l),
(468,-10,l),
(760,365,l),
(906,393,l),
(904,400,l),
(557,400,l)
);
}
);
width = 936;
},
{
associatedMasterId = m003;
layerId = "52A03F63-2964-4539-B8EC-9D716CBC16FC";
name = "Extended Mar 14 18, 13:15";
shapes = (
{
closed = 1;
nodes = (
(25,395,l),
(175,365,l),
(464,0,l),
(468,0,l),
(502,49,l),
(258,365,l),
(410,395,l),
(408,400,l),
(27,400,l)
);
},
{
closed = 1;
nodes = (
(559,394,l),
(709,365,l),
(450,41,l),
(468,0,l),
(771,365,l),
(921,393,l),
(919,400,l),
(561,400,l)
);
}
);
width = 936;
},
{
anchors = (
{
name = bottom;
pos = (362,0);
},
{
name = top;
pos = (362,410);
}
);
associatedMasterId = m003;
layerId = "104C6B23-54DF-4AF9-B040-60D4BA8FE64C";
name = "16 Jan 22, 11:27";
shapes = (
{
closed = 1;
nodes = (
(70,360,l),
(341,0,l),
(381,0,l),
(628,360,l),
(768,402,l),
(766,410,l),
(415,410,l),
(413,402,l),
(573,360,l),
(357,14,l),
(386,30,l),
(160,360,l),
(320,402,l),
(318,410,l),
(-68,410,l),
(-70,402,l)
);
}
);
width = 738;
},
{
anchors = (
{
name = bottom;
pos = (178,0);
},
{
name = top;
pos = (180,392);
}
);
layerId = "2C26E880-80A5-4D19-8A94-7D905A372841";
shapes = (
{
closed = 1;
nodes = (
(30,347,l),
(162,0,l),
(192,0,l),
(318,347,l),
(388,384,l),
(386,392,l),
(211,392,l),
(209,384,l),
(289,347,l),
(167,14,l),
(184,29,l),
(69,347,l),
(149,384,l),
(147,392,l),
(-38,392,l),
(-40,384,l)
);
}
);
width = 367;
}
);
unicode = 118;
}
{
glyphname = cent;
layers = (
{
layerId = "0CCC0E2D-406A-4672-8E6C-854B1DF78A27";
shapes = (
{
closed = 1;
nodes = (
(523,95,l),
(449,43,o),
(392,15,o),
(298,15,cs),
(171,15,o),
(89,91,o),
(89,205,cs),
(89,320,o),
(180,396,o),
(308,396,cs),
(378,396,o),
(414,384,o),
(449,369,c),
(469,252,l),
(477,250,l),
(512,380,l),
(443,407,o),
(393,421,o),
(314,421,cs),
(156,421,o),
(50,328,o),
(50,190,cs),
(50,63,o),
(146,-21,o),
(283,-21,cs),
(395,-21,o),
(464,29,o),
(534,84,c)
);
},
{
closed = 1;
nodes = (
(274,-100,l),
(307,-100,l),
(307,500,l),
(274,500,l)
);
}
);
width = 594;
},
{
layerId = m002;
shapes = (
{
closed = 1;
nodes = (
(532,114,l),
(472,65,o),
(411,43,o),
(334,43,cs),
(205,43,o),
(138,103,o),
(138,219,cs),
(138,333,o),
(200,391,o),
(323,391,cs),
(373,391,o),
(425,381,o),
(467,364,c),
(490,253,l),
(498,251,l),
(545,407,l),
(472,424,o),
(394,435,o),
(342,435,cs),
(178,435,o),
(51,327,o),
(51,187,cs),
(51,64,o),
(151,-20,o),
(297,-20,cs),
(390,-20,o),
(460,14,o),
(545,100,c)
);
},
{
closed = 1;
nodes = (
(295,-100,l),
(340,-100,l),
(340,500,l),
(295,500,l)
);
}
);
width = 620;
},
{
layerId = m003;
shapes = (
{
closed = 1;
nodes = (
(331,84,l),
(299,44,o),
(268,27,o),
(238,27,cs),
(180,27,o),
(125,95,o),
(125,219,cs),
(125,332,o),
(159,388,o),
(214,388,cs),
(245,388,o),
(262,383,o),
(273,376,c),
(291,275,l),
(298,273,l),
(329,399,l),
(301,413,o),
(255,422,o),
(229,422,cs),
(128,422,o),
(55,331,o),
(55,200,cs),
(55,70,o),
(121,-20,o),
(211,-20,cs),
(263,-20,o),
(301,11,o),
(342,76,c)
);
},
{
closed = 1;
nodes = (
(200,-100,l),
(236,-100,l),
(236,490,l),
(200,490,l)
);
}
);
width = 383;
},
{
background = {
anchors = (
{
name = bottom;
pos = (207,0);
},
{
name = top;
pos = (187,400);
}
);
};
layerId = "2C26E880-80A5-4D19-8A94-7D905A372841";
shapes = (
{
closed = 1;
nodes = (
(294,70,l),
(263,29,o),
(226,7,o),
(191,7,cs),
(122,7,o),
(74,87,o),
(73,202,cs),
(72,316,o),
(115,388,o),
(185,388,cs),
(204,388,o),
(225,383,o),
(236,375,c),
(254,270,l),
(262,268,l),
(289,393,l),
(265,404,o),
(225,412,o),
(192,412,cs),
(94,412,o),
(34,337,o),
(37,195,cs),
(40,64,o),
(95,-20,o),
(178,-20,cs),
(225,-20,o),
(273,10,o),
(304,62,c)
);
},
{
closed = 1;
nodes = (
(166,-100,l),
(197,-100,l),
(197,490,l),
(166,490,l)
);
}
);
width = 334;
},
{
associatedMasterId = m003;
layerId = "4D6CF3D3-CF22-4326-81E6-99C87E97FBD5";
name = "24 Sep 22, 16:44";
shapes = (
{
closed = 1;
nodes = (
(328,84,l),
(295,44,o),
(254,28,o),
(227,28,cs),
(166,28,o),
(125,101,o),
(123,212,cs),
(121,313,o),
(157,388,o),
(212,388,cs),
(233,388,o),
(256,383,o),
(271,376,c),
(291,275,l),
(299,273,l),
(335,399,l),
(301,413,o),
(257,422,o),
(229,422,cs),
(121,422,o),
(50,327,o),
(53,193,cs),
(56,65,o),
(118,-20,o),
(209,-20,cs),
(244,-20,o),
(298,11,o),
(340,76,c)
);
},
{
closed = 1;
nodes = (
(200,-100,l),
(236,-100,l),
(236,490,l),
(200,490,l)
);
}
);
width = 383;
}
);
unicode = 162;
}
{
glyphname = Oslash;
kernLeft = O;
kernRight = O;
layers = (
{
layerId = "0CCC0E2D-406A-4672-8E6C-854B1DF78A27";
shapes = (
{
closed = 1;
nodes = (
(233,-62,l),
(278,-62,l),
(748,669,l),
(703,669,l)
);
},
{
ref = O;
}
);
width = 927;
},
{
layerId = m002;
shapes = (
{
closed = 1;
nodes = (
(233,-62,l),
(278,-62,l),
(748,669,l),
(703,669,l)
);
},
{
ref = O;
}
);
width = 967;
},
{
layerId = m003;
shapes = (
{
closed = 1;
nodes = (
(123,-62,l),
(158,-62,l),
(407,669,l),
(372,669,l)
);
},
{
ref = O;
}
);
width = 529;
},
{
layerId = "2C26E880-80A5-4D19-8A94-7D905A372841";
shapes = (
{
closed = 1;
nodes = (
(123,-62,l),
(158,-62,l),
(407,669,l),
(372,669,l)
);
},
{
alignment = -1;
ref = O;
}
);
width = 500;
}
);
metricLeft = O;
metricRight = O;
unicode = 216;
}
{
glyphname = Thorn;
kernLeft = H;
kernRight = P;
layers = (
{
layerId = "0CCC0E2D-406A-4672-8E6C-854B1DF78A27";
shapes = (
{
closed = 1;
nodes = (
(32,0,l),
(370,0,l),
(372,8,l),
(222,50,l),
(222,134,l),
(523,135,ls),
(710,136,o),
(794,188,o),
(794,305,cs),
(794,425,o),
(706,479,o),
(513,479,cs),
(222,479,l),
(222,550,l),
(377,592,l),
(375,600,l),
(37,600,l),
(35,592,l),
(185,550,l),
(185,50,l),
(30,8,l)
);
},
{
closed = 1;
nodes = (
(222,452,l),
(513,452,ls),
(683,452,o),
(756,396,o),
(756,297,cs),
(756,207,o),
(689,164,o),
(533,164,cs),
(222,164,l)
);
}
);
width = 834;
},
{
layerId = m002;
shapes = (
{
closed = 1;
nodes = (
(16,0,l),
(411,0,l),
(413,8,l),
(217,50,l),
(217,133,l),
(478,134,ls),
(686,135,o),
(803,190,o),
(803,313,cs),
(803,434,o),
(674,480,o),
(484,480,cs),
(217,480,l),
(217,550,l),
(418,592,l),
(416,600,l),
(21,600,l),
(19,592,l),
(123,550,l),
(123,50,l),
(14,8,l)
);
},
{
closed = 1;
nodes = (
(217,434,l),
(436,434,ls),
(561,434,o),
(700,430,o),
(700,296,cs),
(700,201,o),
(569,178,o),
(456,178,cs),
(217,178,l)
);
}
);
width = 827;
},
{
layerId = m003;
shapes = (
{
closed = 1;
nodes = (
(12,0,l),
(342,0,l),
(344,8,l),
(197,45,l),
(197,132,l),
(273,133,ls),
(382,134,o),
(470,204,o),
(470,309,cs),
(470,409,o),
(390,478,o),
(271,478,cs),
(197,478,l),
(197,555,l),
(343,592,l),
(341,600,l),
(10,600,l),
(8,592,l),
(118,555,l),
(118,45,l),
(10,8,l)
);
},
{
closed = 1;
nodes = (
(197,442,l),
(261,441,ls),
(324,440,o),
(385,367,o),
(385,293,cs),
(385,219,o),
(327,163,o),
(259,169,cs),
(197,174,l)
);
}
);
width = 498;
},
{
background = {
anchors = (
{
name = bottom;
pos = (254,-121);
}
);
};
layerId = "2C26E880-80A5-4D19-8A94-7D905A372841";
shapes = (
{
closed = 1;
nodes = (
(22,0,l),
(279,0,l),
(281,8,l),
(171,45,l),
(171,136,l),
(265,137,ls),
(363,138,o),
(433,208,o),
(433,305,cs),
(433,402,o),
(364,479,o),
(276,479,cs),
(171,479,l),
(171,555,l),
(286,592,l),
(284,600,l),
(28,600,l),
(26,592,l),
(136,555,l),
(136,45,l),
(20,8,l)
);
},
{
closed = 1;
nodes = (
(171,449,l),
(264,453,ls),
(343,456,o),
(398,388,o),
(398,297,cs),
(398,220,o),
(348,160,o),
(274,164,cs),
(171,169,l)
);
}
);
width = 473;
}
);
metricLeft = P;
metricRight = P;
unicode = 222;
}
{
glyphname = germandbls;
kernLeft = f;
kernRight = s;
layers = (
{
layerId = "0CCC0E2D-406A-4672-8E6C-854B1DF78A27";
shapes = (
{
closed = 1;
nodes = (
(158,415,l),
(48,384,l),
(50,374,l),
(158,374,l),
(159,50,l),
(19,8,l),
(21,0,l),
(197,0,l),
(197,464,ls),
(197,613,o),
(248,684,o),
(352,684,cs),
(436,684,o),
(521,636,o),
(574,568,c),
(575,599,l),
(322,338,l),
(342,314,l),
(401,336,o),
(458,348,o),
(511,348,cs),
(635,348,o),
(711,283,o),
(711,174,cs),
(711,84,o),
(640,13,o),
(526,13,cs),
(473,13,o),
(408,25,o),
(342,51,c),
(327,173,l),
(319,175,l),
(273,41,l),
(357,-1,o),
(443,-21,o),
(519,-19,cs),
(655,-16,o),
(748,59,o),
(748,186,cs),
(748,306,o),
(653,379,o),
(532,379,cs),
(464,379,o),
(392,364,o),
(343,336,c),
(351,329,l),
(603,582,l),
(549,662,o),
(462,711,o),
(358,711,cs),
(224,711,o),
(158,629,o),
(158,464,cs)
);
}
);
width = 783;
},
{
associatedMasterId = "0CCC0E2D-406A-4672-8E6C-854B1DF78A27";
layerId = "F271D80F-EE02-4584-A14F-93EB0E9D1341";
name = "Apr 10 18, 13:12";
shapes = (
{
closed = 1;
nodes = (
(185,50,l),
(35,7,l),
(37,0,l),
(358,0,l),
(358,7,l),
(254,50,l),
(254,444,l),
(184,444,l)
);
},
{
closed = 1;
nodes = (
(93,396,l),
(184,365,l),
(254,365,l),
(223,365,l),
(223,400,l),
(95,400,l)
);
},
{
closed = 1;
nodes = (
(254,444,l),
(250,579,o),
(281,658,o),
(411,658,cs),
(497,658,o),
(612,604,o),
(617,534,cs),
(626,409,o),
(403,434,o),
(406,316,cs),
(408,234,o),
(498,206,o),
(584,206,cs),
(697,206,o),
(753,168,o),
(753,120,cs),
(753,56,o),
(698,20,o),
(589,20,cs),
(534,20,o),
(455,25,o),
(396,58,c),
(394,167,l),
(390,169,l),
(317,58,l),
(420,0,o),
(528,-10,o),
(589,-10,cs),
(730,-10,o),
(813,44,o),
(813,135,cs),
(813,211,o),
(733,266,o),
(597,266,cs),
(536,266,o),
(466,280,o),
(466,328,cs),
(466,414,o),
(676,378,o),
(676,532,cs),
(676,654,o),
(527,700,o),
(411,700,cs),
(281,700,o),
(184,605,o),
(184,444,c)
);
}
);
width = 853;
},
{
associatedMasterId = "0CCC0E2D-406A-4672-8E6C-854B1DF78A27";
layerId = "8C7DCAF1-B512-4704-89A2-E7DAF1B7030B";
name = "Jul 16 18, 12:53";
shapes = (
{
closed = 1;
nodes = (
(360,305,l),
(436,268,o),
(753,307,o),
(753,120,cs),
(753,66,o),
(678,20,o),
(589,20,cs),
(521,20,o),
(433,37,o),
(396,58,c),
(394,197,l),
(390,195,l),
(317,58,l),
(382,21,o),
(507,-10,o),
(589,-10,cs),
(711,-10,o),
(813,56,o),
(813,135,cs),
(813,346,o),
(480,321,o),
(408,350,c)
);
},
{
closed = 1;
nodes = (
(585,678,o),
(460,700,o),
(396,700,cs),
(254,700,o),
(189,612,o),
(189,444,c),
(259,444,l),
(254,619,o),
(278,658,o),
(396,658,cs),
(458,658,o),
(569,611,o),
(594,533,c),
(662,533,l)
);
},
{
closed = 1;
nodes = (
(190,50,l),
(40,7,l),
(42,0,l),
(347,1,l),
(349,9,l),
(259,49,l),
(259,444,l),
(189,444,l)
);
},
{
closed = 1;
nodes = (
(236,365,l),
(236,400,l),
(189,400,l),
(79,375,l),
(81,365,l)
);
},
{
closed = 1;
nodes = (
(360,305,l),
(453,330,l),
(662,533,l),
(594,533,l)
);
}
);
width = 853;
},
{
associatedMasterId = "0CCC0E2D-406A-4672-8E6C-854B1DF78A27";
layerId = "7575A160-4BD2-41A4-8D1A-5234553A5910";
name = "Apr 10 18, 13:12";
shapes = (
{
closed = 1;
nodes = (
(185,50,l),
(35,7,l),
(37,0,l),
(358,0,l),
(358,7,l),
(254,50,l),
(254,444,l),
(184,444,l)
);
},
{
closed = 1;
nodes = (
(93,396,l),
(184,365,l),
(254,365,l),
(223,365,l),
(223,400,l),
(95,400,l)
);
},
{
closed = 1;
nodes = (
(254,444,l),
(250,579,o),
(281,658,o),
(411,658,cs),
(497,658,o),
(612,604,o),
(617,534,cs),
(626,409,o),
(403,434,o),
(406,316,cs),
(408,234,o),
(498,206,o),
(584,206,cs),
(697,206,o),
(753,168,o),
(753,120,cs),
(753,56,o),
(698,20,o),
(589,20,cs),
(534,20,o),
(455,25,o),
(396,58,c),
(394,167,l),
(390,169,l),
(317,58,l),
(420,0,o),
(528,-10,o),
(589,-10,cs),
(730,-10,o),
(813,44,o),
(813,135,cs),
(813,211,o),
(733,266,o),
(597,266,cs),
(536,266,o),
(466,280,o),
(466,328,cs),
(466,414,o),
(676,378,o),
(676,532,cs),
(676,654,o),
(527,700,o),
(411,700,cs),
(281,700,o),
(184,605,o),
(184,444,c)
);
}
);
width = 853;
},
{
associatedMasterId = "0CCC0E2D-406A-4672-8E6C-854B1DF78A27";
layerId = "0AF0FE02-01A9-456D-A404-316B37FBA09E";
name = "Jul 16 18, 12:53";
shapes = (
{
closed = 1;
nodes = (
(360,305,l),
(436,268,o),
(753,307,o),
(753,120,cs),
(753,66,o),
(678,20,o),
(589,20,cs),
(521,20,o),
(433,37,o),
(396,58,c),
(394,197,l),
(390,195,l),
(317,58,l),
(382,21,o),
(507,-10,o),
(589,-10,cs),
(711,-10,o),
(813,56,o),
(813,135,cs),
(813,346,o),
(480,321,o),
(408,350,c)
);
},
{
closed = 1;
nodes = (
(585,678,o),
(460,700,o),
(396,700,cs),
(254,700,o),
(189,612,o),
(189,444,c),
(259,444,l),
(254,619,o),
(278,658,o),
(396,658,cs),
(458,658,o),
(569,611,o),
(594,533,c),
(662,533,l)
);
},
{
closed = 1;
nodes = (
(190,50,l),
(40,7,l),
(42,0,l),
(347,1,l),
(349,9,l),
(259,49,l),
(259,444,l),
(189,444,l)
);
},
{
closed = 1;
nodes = (
(236,365,l),
(236,400,l),
(189,400,l),
(79,375,l),
(81,365,l)
);
},
{
closed = 1;
nodes = (
(360,305,l),
(453,330,l),
(662,533,l),
(594,533,l)
);
}
);
width = 853;
},
{
associatedMasterId = "0CCC0E2D-406A-4672-8E6C-854B1DF78A27";
layerId = "1AF0BE0A-FDEE-4F4A-97C9-5AF32A353783";
name = "12 Dec 21, 20:55";
shapes = (
{
closed = 1;
nodes = (
(32,0,l),
(337,1,l),
(339,9,l),
(249,49,l),
(249,514,l),
(239,690,o),
(264,728,o),
(386,728,cs),
(467,728,o),
(564,666,o),
(584,603,c),
(350,325,l),
(640,320,o),
(743,262,o),
(743,120,cs),
(743,59,o),
(679,20,o),
(579,20,cs),
(510,20,o),
(423,37,o),
(386,58,c),
(384,197,l),
(380,195,l),
(307,58,l),
(383,14,o),
(476,-10,o),
(566,-10,cs),
(696,-10,o),
(803,56,o),
(803,135,cs),
(803,287,o),
(671,366,o),
(439,346,c),
(652,603,l),
(597,706,o),
(495,770,o),
(386,770,cs),
(258,770,o),
(179,673,o),
(179,514,cs),
(179,400,l),
(69,375,l),
(71,365,l),
(179,365,l),
(180,50,l),
(30,7,l)
);
}
);
width = 843;
},
{
layerId = m002;
shapes = (
{
closed = 1;
nodes = (
(145,415,l),
(35,378,l),
(37,368,l),
(145,368,l),
(146,50,l),
(6,8,l),
(8,0,l),
(232,0,l),
(232,464,ls),
(232,632,o),
(254,678,o),
(344,678,cs),
(430,678,o),
(510,636,o),
(569,544,c),
(586,615,l),
(316,338,l),
(336,301,l),
(426,336,o),
(472,348,o),
(512,348,cs),
(628,348,o),
(705,278,o),
(705,175,cs),
(705,74,o),
(647,27,o),
(539,27,cs),
(484,27,o),
(428,42,o),
(355,71,c),
(340,173,l),
(332,175,l),
(286,41,l),
(369,1,o),
(456,-21,o),
(532,-19,cs),
(676,-16,o),
(789,84,o),
(789,198,cs),
(789,307,o),
(690,393,o),
(545,393,cs),
(483,393,o),
(417,372,o),
(346,327,c),
(363,316,l),
(641,593,l),
(593,670,o),
(476,725,o),
(371,725,cs),
(231,725,o),
(145,625,o),
(145,464,cs)
);
}
);
width = 824;
},
{
associatedMasterId = m002;
layerId = "84DD01AA-5D57-4A7F-A45F-F467CBC9EBC8";
name = "Apr 10 18, 13:12";
shapes = (
{
closed = 1;
nodes = (
(185,50,l),
(35,7,l),
(37,0,l),
(358,0,l),
(358,7,l),
(254,50,l),
(254,444,l),
(184,444,l)
);
},
{
closed = 1;
nodes = (
(93,396,l),
(184,365,l),
(254,365,l),
(223,365,l),
(223,400,l),
(95,400,l)
);
},
{
closed = 1;
nodes = (
(254,444,l),
(250,579,o),
(281,658,o),
(411,658,cs),
(497,658,o),
(612,604,o),
(617,534,cs),
(626,409,o),
(403,434,o),
(406,316,cs),
(408,234,o),
(498,206,o),
(584,206,cs),
(697,206,o),
(753,168,o),
(753,120,cs),
(753,56,o),
(698,20,o),
(589,20,cs),
(534,20,o),
(455,25,o),
(396,58,c),
(394,167,l),
(390,169,l),
(317,58,l),
(420,0,o),
(528,-10,o),
(589,-10,cs),
(730,-10,o),
(813,44,o),
(813,135,cs),
(813,211,o),
(733,266,o),
(597,266,cs),
(536,266,o),
(466,280,o),
(466,328,cs),
(466,414,o),
(676,378,o),
(676,532,cs),
(676,654,o),
(527,700,o),
(411,700,cs),
(281,700,o),
(184,605,o),
(184,444,c)
);
}
);
width = 853;
},
{
associatedMasterId = m002;
layerId = "3D30E97C-9762-4222-ABEF-C61A65B8ECD0";
name = "Jul 16 18, 12:53";
shapes = (
{
closed = 1;
nodes = (
(360,305,l),
(436,268,o),
(753,307,o),
(753,120,cs),
(753,66,o),
(678,20,o),
(589,20,cs),
(521,20,o),
(433,37,o),
(396,58,c),
(394,197,l),
(390,195,l),
(317,58,l),
(382,21,o),
(507,-10,o),
(589,-10,cs),
(711,-10,o),
(813,56,o),
(813,135,cs),
(813,346,o),
(480,321,o),
(408,350,c)
);
},
{
closed = 1;
nodes = (
(585,678,o),
(460,700,o),
(396,700,cs),
(254,700,o),
(189,612,o),
(189,444,c),
(259,444,l),
(254,619,o),
(278,658,o),
(396,658,cs),
(458,658,o),
(569,611,o),
(594,533,c),
(662,533,l)
);
},
{
closed = 1;
nodes = (
(190,50,l),
(40,7,l),
(42,0,l),
(347,1,l),
(349,9,l),
(259,49,l),
(259,444,l),
(189,444,l)
);
},
{
closed = 1;
nodes = (
(236,365,l),
(236,400,l),
(189,400,l),
(79,375,l),
(81,365,l)
);
},
{
closed = 1;
nodes = (
(360,305,l),
(453,330,l),
(662,533,l),
(594,533,l)
);
}
);
width = 853;
},
{
associatedMasterId = m002;
layerId = "CB0EBDD2-B930-4F95-9717-7F40DC8E2CEE";
name = "Apr 10 18, 13:12";
shapes = (
{
closed = 1;
nodes = (
(185,50,l),
(35,7,l),
(37,0,l),
(358,0,l),
(358,7,l),
(254,50,l),
(254,444,l),
(184,444,l)
);
},
{
closed = 1;
nodes = (
(93,396,l),
(184,365,l),
(254,365,l),
(223,365,l),
(223,400,l),
(95,400,l)
);
},
{
closed = 1;
nodes = (
(254,444,l),
(250,579,o),
(281,658,o),
(411,658,cs),
(497,658,o),
(612,604,o),
(617,534,cs),
(626,409,o),
(403,434,o),
(406,316,cs),
(408,234,o),
(498,206,o),
(584,206,cs),
(697,206,o),
(753,168,o),
(753,120,cs),
(753,56,o),
(698,20,o),
(589,20,cs),
(534,20,o),
(455,25,o),
(396,58,c),
(394,167,l),
(390,169,l),
(317,58,l),
(420,0,o),
(528,-10,o),
(589,-10,cs),
(730,-10,o),
(813,44,o),
(813,135,cs),
(813,211,o),
(733,266,o),
(597,266,cs),
(536,266,o),
(466,280,o),
(466,328,cs),
(466,414,o),
(676,378,o),
(676,532,cs),
(676,654,o),
(527,700,o),
(411,700,cs),
(281,700,o),
(184,605,o),
(184,444,c)
);
}
);
width = 853;
},
{
associatedMasterId = m002;
layerId = "7AD17010-9E54-450A-9F43-8181FE4ACEEA";
name = "Jul 16 18, 12:53";
shapes = (
{
closed = 1;
nodes = (
(360,305,l),
(436,268,o),
(753,307,o),
(753,120,cs),
(753,66,o),
(678,20,o),
(589,20,cs),
(521,20,o),
(433,37,o),
(396,58,c),
(394,197,l),
(390,195,l),
(317,58,l),
(382,21,o),
(507,-10,o),
(589,-10,cs),
(711,-10,o),
(813,56,o),
(813,135,cs),
(813,346,o),
(480,321,o),
(408,350,c)
);
},
{
closed = 1;
nodes = (
(585,678,o),
(460,700,o),
(396,700,cs),
(254,700,o),
(189,612,o),
(189,444,c),
(259,444,l),
(254,619,o),
(278,658,o),
(396,658,cs),
(458,658,o),
(569,611,o),
(594,533,c),
(662,533,l)
);
},
{
closed = 1;
nodes = (
(190,50,l),
(40,7,l),
(42,0,l),
(347,1,l),
(349,9,l),
(259,49,l),
(259,444,l),
(189,444,l)
);
},
{
closed = 1;
nodes = (
(236,365,l),
(236,400,l),
(189,400,l),
(79,375,l),
(81,365,l)
);
},
{
closed = 1;
nodes = (
(360,305,l),
(453,330,l),
(662,533,l),
(594,533,l)
);
}
);
width = 853;
},
{
associatedMasterId = m002;
layerId = "7DB6E7B9-5D74-43B3-A468-6AC3CAC62662";
name = "12 Dec 21, 20:55";
shapes = (
{
closed = 1;
nodes = (
(32,0,l),
(337,1,l),
(339,9,l),
(249,49,l),
(249,514,l),
(239,690,o),
(264,728,o),
(386,728,cs),
(467,728,o),
(564,666,o),
(584,603,c),
(350,325,l),
(640,320,o),
(743,262,o),
(743,120,cs),
(743,59,o),
(679,20,o),
(579,20,cs),
(510,20,o),
(423,37,o),
(386,58,c),
(384,197,l),
(380,195,l),
(307,58,l),
(383,14,o),
(476,-10,o),
(566,-10,cs),
(696,-10,o),
(803,56,o),
(803,135,cs),
(803,287,o),
(671,366,o),
(439,346,c),
(652,603,l),
(597,706,o),
(495,770,o),
(386,770,cs),
(258,770,o),
(179,673,o),
(179,514,cs),
(179,400,l),
(69,375,l),
(71,365,l),
(179,365,l),
(180,50,l),
(30,7,l)
);
}
);
width = 843;
},
{
layerId = m003;
shapes = (
{
closed = 1;
nodes = (
(98,405,l),
(-12,375,l),
(-10,365,l),
(98,365,l),
(99,51,l),
(-23,8,l),
(-21,0,l),
(171,0,l),
(171,504,ls),
(171,635,o),
(190,679,o),
(247,679,cs),
(291,679,o),
(332,652,o),
(362,605,c),
(351,649,l),
(212,338,l),
(248,314,l),
(270,335,o),
(285,345,o),
(308,345,cs),
(361,345,o),
(393,282,o),
(393,175,cs),
(393,67,o),
(357,18,o),
(313,18,cs),
(295,18,o),
(275,22,o),
(264,29,c),
(244,140,l),
(236,142,l),
(202,13,l),
(224,-5,o),
(266,-19,o),
(298,-19,cs),
(391,-19,o),
(463,76,o),
(463,196,cs),
(463,305,o),
(404,389,o),
(327,389,cs),
(307,389,o),
(281,381,o),
(257,365,c),
(268,340,l),
(409,644,l),
(366,685,o),
(296,712,o),
(228,712,cs),
(127,712,o),
(98,651,o),
(98,448,cs)
);
}
);
width = 476;
},
{
associatedMasterId = m003;
layerId = "70A1E00B-40D2-4756-9DE0-E587B0BE7B96";
name = "Apr 10 18, 13:12";
shapes = (
{
closed = 1;
nodes = (
(185,50,l),
(35,7,l),
(37,0,l),
(358,0,l),
(358,7,l),
(254,50,l),
(254,444,l),
(184,444,l)
);
},
{
closed = 1;
nodes = (
(93,396,l),
(184,365,l),
(254,365,l),
(223,365,l),
(223,400,l),
(95,400,l)
);
},
{
closed = 1;
nodes = (
(254,444,l),
(250,579,o),
(281,658,o),
(411,658,cs),
(497,658,o),
(612,604,o),
(617,534,cs),
(626,409,o),
(403,434,o),
(406,316,cs),
(408,234,o),
(498,206,o),
(584,206,cs),
(697,206,o),
(753,168,o),
(753,120,cs),
(753,56,o),
(698,20,o),
(589,20,cs),
(534,20,o),
(455,25,o),
(396,58,c),
(394,167,l),
(390,169,l),
(317,58,l),
(420,0,o),
(528,-10,o),
(589,-10,cs),
(730,-10,o),
(813,44,o),
(813,135,cs),
(813,211,o),
(733,266,o),
(597,266,cs),
(536,266,o),
(466,280,o),
(466,328,cs),
(466,414,o),
(676,378,o),
(676,532,cs),
(676,654,o),
(527,700,o),
(411,700,cs),
(281,700,o),
(184,605,o),
(184,444,c)
);
}
);
width = 853;
},
{
associatedMasterId = m003;
layerId = "B3BF9660-6E6D-4864-86C2-0CEFFB3725F8";
name = "Jul 16 18, 12:53";
shapes = (
{
closed = 1;
nodes = (
(360,305,l),
(436,268,o),
(753,307,o),
(753,120,cs),
(753,66,o),
(678,20,o),
(589,20,cs),
(521,20,o),
(433,37,o),
(396,58,c),
(394,197,l),
(390,195,l),
(317,58,l),
(382,21,o),
(507,-10,o),
(589,-10,cs),
(711,-10,o),
(813,56,o),
(813,135,cs),
(813,346,o),
(480,321,o),
(408,350,c)
);
},
{
closed = 1;
nodes = (
(585,678,o),
(460,700,o),
(396,700,cs),
(254,700,o),
(189,612,o),
(189,444,c),
(259,444,l),
(254,619,o),
(278,658,o),
(396,658,cs),
(458,658,o),
(569,611,o),
(594,533,c),
(662,533,l)
);
},
{
closed = 1;
nodes = (
(190,50,l),
(40,7,l),
(42,0,l),
(347,1,l),
(349,9,l),
(259,49,l),
(259,444,l),
(189,444,l)
);
},
{
closed = 1;
nodes = (
(236,365,l),
(236,400,l),
(189,400,l),
(79,375,l),
(81,365,l)
);
},
{
closed = 1;
nodes = (
(360,305,l),
(453,330,l),
(662,533,l),
(594,533,l)
);
}
);
width = 853;
},
{
associatedMasterId = m003;
layerId = "1478B4E5-C0BE-488D-AFE7-05EB70D54213";
name = "Apr 10 18, 13:12";
shapes = (
{
closed = 1;
nodes = (
(185,50,l),
(35,7,l),
(37,0,l),
(358,0,l),
(358,7,l),
(254,50,l),
(254,444,l),
(184,444,l)
);
},
{
closed = 1;
nodes = (
(93,396,l),
(184,365,l),
(254,365,l),
(223,365,l),
(223,400,l),
(95,400,l)
);
},
{
closed = 1;
nodes = (
(254,444,l),
(250,579,o),
(281,658,o),
(411,658,cs),
(497,658,o),
(612,604,o),
(617,534,cs),
(626,409,o),
(403,434,o),
(406,316,cs),
(408,234,o),
(498,206,o),
(584,206,cs),
(697,206,o),
(753,168,o),
(753,120,cs),
(753,56,o),
(698,20,o),
(589,20,cs),
(534,20,o),
(455,25,o),
(396,58,c),
(394,167,l),
(390,169,l),
(317,58,l),
(420,0,o),
(528,-10,o),
(589,-10,cs),
(730,-10,o),
(813,44,o),
(813,135,cs),
(813,211,o),
(733,266,o),
(597,266,cs),
(536,266,o),
(466,280,o),
(466,328,cs),
(466,414,o),
(676,378,o),
(676,532,cs),
(676,654,o),
(527,700,o),
(411,700,cs),
(281,700,o),
(184,605,o),
(184,444,c)
);
}
);
width = 853;
},
{
associatedMasterId = m003;
layerId = "68180E5B-5D0B-4B89-A281-AC6CC7C4A670";
name = "Jul 16 18, 12:53";
shapes = (
{
closed = 1;
nodes = (
(360,305,l),
(436,268,o),
(753,307,o),
(753,120,cs),
(753,66,o),
(678,20,o),
(589,20,cs),
(521,20,o),
(433,37,o),
(396,58,c),
(394,197,l),
(390,195,l),
(317,58,l),
(382,21,o),
(507,-10,o),
(589,-10,cs),
(711,-10,o),
(813,56,o),
(813,135,cs),
(813,346,o),
(480,321,o),
(408,350,c)
);
},
{
closed = 1;
nodes = (
(585,678,o),
(460,700,o),
(396,700,cs),
(254,700,o),
(189,612,o),
(189,444,c),
(259,444,l),
(254,619,o),
(278,658,o),
(396,658,cs),
(458,658,o),
(569,611,o),
(594,533,c),
(662,533,l)
);
},
{
closed = 1;
nodes = (
(190,50,l),
(40,7,l),
(42,0,l),
(347,1,l),
(349,9,l),
(259,49,l),
(259,444,l),
(189,444,l)
);
},
{
closed = 1;
nodes = (
(236,365,l),
(236,400,l),
(189,400,l),
(79,375,l),
(81,365,l)
);
},
{
closed = 1;
nodes = (
(360,305,l),
(453,330,l),
(662,533,l),
(594,533,l)
);
}
);
width = 853;
},
{
associatedMasterId = m003;
layerId = "1524452B-C54E-41A7-B96E-F9CCBFD39934";
name = "12 Dec 21, 20:55";
shapes = (
{
closed = 1;
nodes = (
(32,0,l),
(337,1,l),
(339,9,l),
(249,49,l),
(249,514,l),
(239,690,o),
(264,728,o),
(386,728,cs),
(467,728,o),
(564,666,o),
(584,603,c),
(350,325,l),
(640,320,o),
(743,262,o),
(743,120,cs),
(743,59,o),
(679,20,o),
(579,20,cs),
(510,20,o),
(423,37,o),
(386,58,c),
(384,197,l),
(380,195,l),
(307,58,l),
(383,14,o),
(476,-10,o),
(566,-10,cs),
(696,-10,o),
(803,56,o),
(803,135,cs),
(803,287,o),
(671,366,o),
(439,346,c),
(652,603,l),
(597,706,o),
(495,770,o),
(386,770,cs),
(258,770,o),
(179,673,o),
(179,514,cs),
(179,400,l),
(69,375,l),
(71,365,l),
(179,365,l),
(180,50,l),
(30,7,l)
);
}
);
width = 843;
},
{
layerId = "2C26E880-80A5-4D19-8A94-7D905A372841";
shapes = (
{
closed = 1;
nodes = (
(101,407,l),
(-9,375,l),
(-7,367,l),
(101,367,l),
(101,47,l),
(-10,8,l),
(-8,0,l),
(136,0,l),
(136,504,ls),
(136,631,o),
(154,674,o),
(211,676,cs),
(261,678,o),
(323,650,o),
(335,621,c),
(326,658,l),
(207,338,l),
(235,328,l),
(247,348,o),
(272,359,o),
(298,359,cs),
(353,359,o),
(388,289,o),
(388,174,cs),
(388,63,o),
(355,7,o),
(293,7,cs),
(277,7,o),
(254,11,o),
(244,16,c),
(224,140,l),
(216,142,l),
(182,13,l),
(203,-5,o),
(251,-19,o),
(290,-19,cs),
(373,-19,o),
(422,56,o),
(422,187,cs),
(422,309,o),
(378,386,o),
(307,386,cs),
(265,386,o),
(245,372,o),
(231,344,c),
(245,354,l),
(359,648,l),
(339,677,o),
(274,702,o),
(216,702,cs),
(129,702,o),
(101,647,o),
(101,480,cs)
);
}
);
width = 445;
}
);
metricLeft = f;
unicode = 223;
}
{
glyphname = eth;
kernLeft = o;
layers = (
{
background = {
shapes = (
{
closed = 1;
nodes = (
(524,-20,o),
(650,70,o),
(650,196,cs),
(650,334,o),
(533,420,o),
(346,420,cs),
(168,420,o),
(40,327,o),
(40,198,cs),
(40,64,o),
(159,-20,o),
(348,-20,cs)
);
},
{
closed = 1;
nodes = (
(189,4,o),
(77,85,o),
(77,209,cs),
(77,319,o),
(184,396,o),
(336,396,cs),
(504,396,o),
(613,313,o),
(613,186,cs),
(613,79,o),
(508,4,o),
(359,4,cs)
);
}
);
};
layerId = "0CCC0E2D-406A-4672-8E6C-854B1DF78A27";
shapes = (
{
closed = 1;
nodes = (
(265,526,l),
(623,620,l),
(615,645,l),
(259,550,l)
);
},
{
closed = 1;
nodes = (
(175,694,l),
(440,624,o),
(611,444,o),
(611,221,cs),
(611,82,o),
(493,5,o),
(362,5,cs),
(182,5,o),
(80,94,o),
(80,220,cs),
(80,320,o),
(192,393,o),
(326,397,cs),
(459,401,o),
(561,353,o),
(617,274,c),
(630,312,l),
(565,389,o),
(464,421,o),
(340,421,cs),
(172,421,o),
(39,329,o),
(39,202,cs),
(39,67,o),
(154,-20,o),
(348,-20,cs),
(531,-20,o),
(650,78,o),
(650,248,cs),
(650,445,o),
(451,660,o),
(180,711,c)
);
}
);
width = 699;
},
{
associatedMasterId = "0CCC0E2D-406A-4672-8E6C-854B1DF78A27";
background = {
shapes = (
{
closed = 1;
nodes = (
(50,70,o),
(185,-20,o),
(376,-20,cs),
(580,-20,o),
(700,90,o),
(700,256,cs),
(700,372,o),
(640,469,o),
(548,530,c),
(624,559,l),
(612,585,l),
(517,549,l),
(456,582,o),
(385,600,o),
(309,600,c),
(309,577,l),
(365,577,o),
(418,559,o),
(465,529,c),
(366,491,l),
(380,466,l),
(493,509,l),
(546,466,o),
(588,407,o),
(610,339,c),
(562,394,o),
(465,430,o),
(368,430,cs),
(176,430,o),
(50,344,o),
(50,198,cs)
);
},
{
closed = 1;
nodes = (
(122,333,o),
(209,393,o),
(346,397,cs),
(460,400,o),
(595,346,o),
(628,242,c),
(628,238,o),
(628,235,o),
(628,231,cs),
(628,101,o),
(547,13,o),
(409,13,cs),
(241,13,o),
(122,100,o),
(122,224,cs)
);
}
);
};
layerId = "82DBDF08-0A78-4A86-8FA6-C20A6593B5F4";
name = "10 Jan 22, 17:44";
shapes = (
{
closed = 1;
nodes = (
(358,477,l),
(638,551,l),
(629,580,l),
(351,505,l)
);
},
{
closed = 1;
nodes = (
(323,577,l),
(495,563,o),
(626,401,o),
(626,231,cs),
(626,101,o),
(547,13,o),
(409,13,cs),
(241,13,o),
(122,100,o),
(122,224,cs),
(122,333,o),
(209,393,o),
(346,397,cs),
(454,400,o),
(588,351,o),
(637,230,c),
(645,307,l),
(565,405,o),
(460,430,o),
(368,430,cs),
(176,430,o),
(50,344,o),
(50,198,cs),
(50,70,o),
(185,-20,o),
(376,-20,cs),
(580,-20,o),
(700,90,o),
(700,256,cs),
(700,454,o),
(522,589,o),
(328,600,c)
);
}
);
width = 770;
},
{
background = {
shapes = (
{
closed = 1;
nodes = (
(544,-20,o),
(680,75,o),
(680,206,cs),
(680,343,o),
(558,430,o),
(358,430,cs),
(170,430,o),
(30,334,o),
(30,198,cs),
(30,67,o),
(160,-20,o),
(356,-20,cs)
);
},
{
closed = 1;
nodes = (
(214,13,o),
(102,95,o),
(102,224,cs),
(102,323,o),
(207,397,o),
(336,397,cs),
(511,397,o),
(608,318,o),
(608,181,cs),
(608,87,o),
(507,13,o),
(379,13,cs)
);
}
);
};
layerId = m002;
shapes = (
{
closed = 1;
nodes = (
(280,526,l),
(638,620,l),
(628,652,l),
(272,557,l)
);
},
{
closed = 1;
nodes = (
(188,699,l),
(423,643,o),
(605,442,o),
(605,237,cs),
(605,101,o),
(527,24,o),
(390,24,cs),
(230,24,o),
(115,109,o),
(115,227,cs),
(115,334,o),
(189,393,o),
(326,397,cs),
(475,401,o),
(581,337,o),
(618,220,c),
(643,326,l),
(567,402,o),
(479,435,o),
(353,435,cs),
(157,435,o),
(26,339,o),
(26,196,cs),
(26,67,o),
(162,-20,o),
(361,-20,cs),
(556,-20,o),
(691,101,o),
(691,276,cs),
(691,481,o),
(481,671,o),
(193,725,c)
);
}
);
width = 727;
},
{
associatedMasterId = m002;
background = {
shapes = (
{
closed = 1;
nodes = (
(50,70,o),
(185,-20,o),
(376,-20,cs),
(580,-20,o),
(700,90,o),
(700,256,cs),
(700,372,o),
(640,469,o),
(548,530,c),
(624,559,l),
(612,585,l),
(517,549,l),
(456,582,o),
(385,600,o),
(309,600,c),
(309,577,l),
(365,577,o),
(418,559,o),
(465,529,c),
(366,491,l),
(380,466,l),
(493,509,l),
(546,466,o),
(588,407,o),
(610,339,c),
(562,394,o),
(465,430,o),
(368,430,cs),
(176,430,o),
(50,344,o),
(50,198,cs)
);
},
{
closed = 1;
nodes = (
(122,333,o),
(209,393,o),
(346,397,cs),
(460,400,o),
(595,346,o),
(628,242,c),
(628,238,o),
(628,235,o),
(628,231,cs),
(628,101,o),
(547,13,o),
(409,13,cs),
(241,13,o),
(122,100,o),
(122,224,cs)
);
}
);
};
layerId = "18BADE3D-AD96-43C4-B0E1-6C6D53F212BF";
name = "10 Jan 22, 17:44";
shapes = (
{
closed = 1;
nodes = (
(358,477,l),
(638,551,l),
(629,580,l),
(351,505,l)
);
},
{
closed = 1;
nodes = (
(323,577,l),
(495,563,o),
(626,401,o),
(626,231,cs),
(626,101,o),
(547,13,o),
(409,13,cs),
(241,13,o),
(122,100,o),
(122,224,cs),
(122,333,o),
(209,393,o),
(346,397,cs),
(454,400,o),
(588,351,o),
(637,230,c),
(645,307,l),
(565,405,o),
(460,430,o),
(368,430,cs),
(176,430,o),
(50,344,o),
(50,198,cs),
(50,70,o),
(185,-20,o),
(376,-20,cs),
(580,-20,o),
(700,90,o),
(700,256,cs),
(700,454,o),
(522,589,o),
(328,600,c)
);
}
);
width = 770;
},
{
layerId = m003;
shapes = (
{
closed = 1;
nodes = (
(140,480,l),
(384,630,l),
(366,656,l),
(123,505,l)
);
},
{
closed = 1;
nodes = (
(126,699,l),
(237,637,o),
(313,444,o),
(313,223,cs),
(313,78,o),
(285,15,o),
(221,15,cs),
(143,15,o),
(104,81,o),
(104,215,cs),
(104,337,o),
(130,387,o),
(192,387,cs),
(262,387,o),
(317,322,o),
(324,231,c),
(347,323,l),
(314,389,o),
(267,422,o),
(204,422,cs),
(102,422,o),
(29,328,o),
(29,197,cs),
(29,71,o),
(104,-20,o),
(208,-20,cs),
(315,-20,o),
(389,87,o),
(389,240,cs),
(389,432,o),
(267,662,o),
(139,712,c)
);
}
);
width = 411;
},
{
associatedMasterId = m003;
background = {
shapes = (
{
closed = 1;
nodes = (
(50,70,o),
(185,-20,o),
(376,-20,cs),
(580,-20,o),
(700,90,o),
(700,256,cs),
(700,372,o),
(640,469,o),
(548,530,c),
(624,559,l),
(612,585,l),
(517,549,l),
(456,582,o),
(385,600,o),
(309,600,c),
(309,577,l),
(365,577,o),
(418,559,o),
(465,529,c),
(366,491,l),
(380,466,l),
(493,509,l),
(546,466,o),
(588,407,o),
(610,339,c),
(562,394,o),
(465,430,o),
(368,430,cs),
(176,430,o),
(50,344,o),
(50,198,cs)
);
},
{
closed = 1;
nodes = (
(122,333,o),
(209,393,o),
(346,397,cs),
(460,400,o),
(595,346,o),
(628,242,c),
(628,238,o),
(628,235,o),
(628,231,cs),
(628,101,o),
(547,13,o),
(409,13,cs),
(241,13,o),
(122,100,o),
(122,224,cs)
);
}
);
};
layerId = "5C8AE2EE-D9EE-4198-A6A4-56D01028C933";
name = "10 Jan 22, 17:44";
shapes = (
{
closed = 1;
nodes = (
(358,477,l),
(638,551,l),
(629,580,l),
(351,505,l)
);
},
{
closed = 1;
nodes = (
(323,577,l),
(495,563,o),
(626,401,o),
(626,231,cs),
(626,101,o),
(547,13,o),
(409,13,cs),
(241,13,o),
(122,100,o),
(122,224,cs),
(122,333,o),
(209,393,o),
(346,397,cs),
(454,400,o),
(588,351,o),
(637,230,c),
(645,307,l),
(565,405,o),
(460,430,o),
(368,430,cs),
(176,430,o),
(50,344,o),
(50,198,cs),
(50,70,o),
(185,-20,o),
(376,-20,cs),
(580,-20,o),
(700,90,o),
(700,256,cs),
(700,454,o),
(522,589,o),
(328,600,c)
);
}
);
width = 770;
},
{
background = {
shapes = (
{
closed = 1;
nodes = (
(283,-20,o),
(340,58,o),
(340,198,cs),
(340,336,o),
(288,411,o),
(193,411,cs),
(92,411,o),
(36,333,o),
(36,193,cs),
(36,56,o),
(89,-20,o),
(183,-20,cs)
);
},
{
closed = 1;
nodes = (
(112,5,o),
(66,76,o),
(66,200,cs),
(66,321,o),
(108,386,o),
(185,386,cs),
(265,386,o),
(310,315,o),
(310,191,cs),
(310,71,o),
(268,5,o),
(191,5,cs)
);
}
);
};
layerId = "2C26E880-80A5-4D19-8A94-7D905A372841";
shapes = (
{
closed = 1;
nodes = (
(119,480,l),
(363,630,l),
(346,651,l),
(104,500,l)
);
},
{
closed = 1;
nodes = (
(108,690,l),
(230,609,o),
(307,425,o),
(307,212,cs),
(307,80,o),
(268,6,o),
(196,6,cs),
(115,6,o),
(69,82,o),
(69,210,cs),
(69,325,o),
(108,386,o),
(182,386,cs),
(242,386,o),
(291,345,o),
(314,272,c),
(327,313,l),
(304,377,o),
(256,412,o),
(189,412,cs),
(91,412,o),
(34,336,o),
(34,202,cs),
(34,62,o),
(91,-20,o),
(188,-20,cs),
(287,-20,o),
(345,66,o),
(345,219,cs),
(345,431,o),
(251,629,o),
(116,702,c)
);
}
);
width = 384;
}
);
metricLeft = o;
unicode = 240;
}
{
glyphname = ogonekcomb;
layers = (
{
anchors = (
{
name = _ogonek;
pos = (178,0);
}
);
layerId = "0CCC0E2D-406A-4672-8E6C-854B1DF78A27";
shapes = (
{
closed = 1;
nodes = (
(312,-92,l),
(263,-160,o),
(224,-176,o),
(186,-176,cs),
(95,-176,o),
(82,-63,o),
(203,7,c),
(177,7,l),
(114,-31,o),
(80,-78,o),
(80,-125,cs),
(80,-174,o),
(115,-204,o),
(172,-204,cs),
(228,-204,o),
(279,-175,o),
(322,-100,c)
);
}
);
width = 310;
},
{
anchors = (
{
name = _ogonek;
pos = (178,0);
}
);
layerId = m002;
shapes = (
{
closed = 1;
nodes = (
(321,-60,l),
(264,-122,o),
(218,-130,o),
(189,-130,cs),
(123,-130,o),
(132,-52,o),
(219,7,c),
(177,7,l),
(107,-34,o),
(64,-90,o),
(64,-132,cs),
(64,-181,o),
(104,-220,o),
(156,-220,cs),
(202,-220,o),
(252,-192,o),
(338,-70,c)
);
}
);
width = 310;
},
{
anchors = (
{
name = _ogonek;
pos = (187,0);
}
);
layerId = m003;
shapes = (
{
closed = 1;
nodes = (
(296,-79,l),
(268,-121,o),
(233,-145,o),
(205,-145,cs),
(154,-145,o),
(167,-66,o),
(220,7,c),
(188,7,l),
(148,-40,o),
(121,-99,o),
(121,-141,cs),
(121,-182,o),
(145,-204,o),
(188,-204,cs),
(231,-204,o),
(280,-155,o),
(305,-84,c)
);
}
);
width = 313;
},
{
anchors = (
{
name = _ogonek;
pos = (140,0);
}
);
background = {
shapes = (
{
closed = 1;
nodes = (
(239,-84,l),
(203,-165,o),
(164,-182,o),
(139,-182,cs),
(72,-182,o),
(84,-80,o),
(160,7,c),
(140,7,l),
(94,-44,o),
(67,-99,o),
(67,-140,cs),
(67,-180,o),
(92,-204,o),
(134,-204,cs),
(178,-204,o),
(225,-156,o),
(248,-89,c)
);
}
);
};
layerId = "2C26E880-80A5-4D19-8A94-7D905A372841";
shapes = (
{
closed = 1;
nodes = (
(197,-104,l),
(181,-151,o),
(153,-177,o),
(115,-177,cs),
(54,-177,o),
(57,-86,o),
(165,7,c),
(138,7,l),
(64,-61,o),
(40,-100,o),
(40,-135,cs),
(40,-173,o),
(70,-204,o),
(107,-204,cs),
(158,-204,o),
(195,-167,o),
(213,-109,c)
);
}
);
width = 301;
}
);
unicode = 808;
}
{
glyphname = Germandbls;
kernLeft = H;
kernRight = S;
layers = (
{
layerId = "0CCC0E2D-406A-4672-8E6C-854B1DF78A27";
shapes = (
{
closed = 1;
nodes = (
(797,611,l),
(32,600,l),
(30,592,l),
(180,550,l),
(180,50,l),
(30,8,l),
(32,0,l),
(217,0,l),
(218,577,l),
(779,580,l),
(783,597,l),
(471,317,l),
(488,298,l),
(733,334,o),
(857,291,o),
(856,171,cs),
(855,65,o),
(755,10,o),
(624,10,cs),
(534,10,o),
(452,26,o),
(369,65,c),
(362,221,l),
(354,223,l),
(293,65,l),
(382,11,o),
(499,-20,o),
(614,-20,cs),
(775,-20,o),
(890,48,o),
(890,179,cs),
(890,315,o),
(753,367,o),
(507,327,c),
(510,314,l),
(816,585,l)
);
}
);
width = 930;
},
{
layerId = m002;
shapes = (
{
closed = 1;
nodes = (
(847,611,l),
(16,600,l),
(14,592,l),
(164,550,l),
(164,50,l),
(14,8,l),
(16,0,l),
(260,0,l),
(261,561,l),
(799,550,l),
(763,597,l),
(460,325,l),
(484,286,l),
(788,328,o),
(858,256,o),
(856,159,cs),
(855,98,o),
(768,30,o),
(659,30,cs),
(550,30,o),
(472,58,o),
(404,107,c),
(382,267,l),
(374,269,l),
(313,65,l),
(399,12,o),
(499,-20,o),
(603,-20,cs),
(823,-20,o),
(943,85,o),
(943,195,cs),
(943,300,o),
(851,406,o),
(527,339,c),
(556,314,l),
(866,574,l)
);
}
);
width = 981;
},
{
layerId = m003;
shapes = (
{
closed = 1;
nodes = (
(468,611,l),
(10,600,l),
(8,592,l),
(118,555,l),
(118,45,l),
(8,8,l),
(10,0,l),
(196,0,l),
(197,570,l),
(443,560,l),
(435,596,l),
(273,317,l),
(307,289,l),
(397,332,o),
(484,272,o),
(482,156,cs),
(481,71,o),
(449,26,o),
(378,26,cs),
(352,26,o),
(336,29,o),
(313,42,c),
(295,201,l),
(287,203,l),
(235,17,l),
(256,-2,o),
(322,-20,o),
(377,-20,cs),
(472,-20,o),
(551,75,o),
(551,191,cs),
(551,309,o),
(452,371,o),
(339,336,c),
(343,315,l),
(503,585,l)
);
}
);
width = 574;
},
{
layerId = "2C26E880-80A5-4D19-8A94-7D905A372841";
shapes = (
{
closed = 1;
nodes = (
(450,611,l),
(22,600,l),
(20,592,l),
(130,555,l),
(130,45,l),
(20,8,l),
(22,0,l),
(165,0,l),
(165,581,l),
(454,584,l),
(426,596,l),
(270,311,l),
(298,299,l),
(400,348,o),
(480,289,o),
(479,166,cs),
(478,60,o),
(427,10,o),
(364,10,cs),
(332,10,o),
(299,19,o),
(294,29,c),
(288,185,l),
(280,187,l),
(228,11,l),
(269,-11,o),
(305,-20,o),
(349,-20,cs),
(452,-20,o),
(515,55,o),
(515,180,cs),
(515,314,o),
(424,380,o),
(312,327,c),
(309,315,l),
(465,594,l)
);
}
);
width = 538;
}
);
metricLeft = H;
unicode = 7838;
}
{
glyphname = daggerdbl;
layers = (
{
layerId = "0CCC0E2D-406A-4672-8E6C-854B1DF78A27";
shapes = (
{
closed = 1;
nodes = (
(259,-80,l),
(272,-190,l),
(402,-232,l),
(400,-240,l),
(92,-240,l),
(90,-232,l),
(220,-190,l),
(233,-80,l),
(206,70,l),
(239,225,l),
(206,380,l),
(233,530,l),
(220,640,l),
(90,682,l),
(92,690,l),
(400,690,l),
(402,682,l),
(272,640,l),
(259,530,l),
(286,380,l),
(254,225,l),
(286,70,l)
);
},
{
closed = 1;
nodes = (
(70,-66,l),
(246,-78,l),
(422,-66,l),
(422,-106,l),
(246,-94,l),
(70,-106,l)
);
},
{
closed = 1;
nodes = (
(246,544,l),
(422,556,l),
(422,516,l),
(246,528,l),
(70,516,l),
(70,556,l)
);
}
);
width = 492;
},
{
layerId = m002;
shapes = (
{
closed = 1;
nodes = (
(289,-80,l),
(302,-206,l),
(418,-248,l),
(416,-256,l),
(108,-256,l),
(106,-248,l),
(220,-206,l),
(233,-80,l),
(174,54,l),
(242,225,l),
(174,396,l),
(233,530,l),
(220,656,l),
(106,698,l),
(108,706,l),
(416,706,l),
(418,698,l),
(302,656,l),
(289,530,l),
(348,396,l),
(280,225,l),
(348,54,l)
);
},
{
closed = 1;
nodes = (
(54,-58,l),
(262,-75,l),
(468,-57,l),
(468,-114,l),
(262,-97,l),
(54,-114,l)
);
},
{
closed = 1;
nodes = (
(262,547,l),
(468,564,l),
(468,507,l),
(262,525,l),
(54,508,l),
(54,564,l)
);
}
);
width = 522;
},
{
layerId = m003;
shapes = (
{
closed = 1;
nodes = (
(191,-80,l),
(215,-195,l),
(292,-232,l),
(290,-240,l),
(62,-240,l),
(60,-232,l),
(138,-195,l),
(161,-80,l),
(135,60,l),
(161,225,l),
(135,390,l),
(161,530,l),
(138,646,l),
(60,682,l),
(62,690,l),
(290,690,l),
(292,682,l),
(215,646,l),
(191,530,l),
(217,390,l),
(191,225,l),
(217,60,l)
);
},
{
closed = 1;
nodes = (
(56,-64,l),
(179,-79,l),
(301,-64,l),
(301,-112,l),
(179,-95,l),
(56,-111,l)
);
},
{
closed = 1;
nodes = (
(179,545,l),
(301,560,l),
(301,512,l),
(179,529,l),
(56,513,l),
(56,561,l)
);
}
);
width = 357;
},
{
layerId = "2C26E880-80A5-4D19-8A94-7D905A372841";
shapes = (
{
closed = 1;
nodes = (
(181,-80,l),
(202,-195,l),
(292,-232,l),
(290,-240,l),
(62,-240,l),
(60,-232,l),
(149,-195,l),
(171,-80,l),
(141,60,l),
(170,225,l),
(141,390,l),
(171,530,l),
(149,646,l),
(60,682,l),
(62,690,l),
(290,690,l),
(292,682,l),
(202,646,l),
(181,530,l),
(211,390,l),
(182,225,l),
(211,60,l)
);
},
{
closed = 1;
nodes = (
(76,-66,l),
(176,-78,l),
(275,-68,l),
(275,-102,l),
(176,-89,l),
(76,-101,l)
);
},
{
closed = 1;
nodes = (
(176,536,l),
(275,547,l),
(275,513,l),
(176,525,l),
(76,513,l),
(76,548,l)
);
}
);
width = 352;
}
);
unicode = 8225;
}
{
glyphname = lessequal;
layers = (
{
layerId = "0CCC0E2D-406A-4672-8E6C-854B1DF78A27";
shapes = (
{
closed = 1;
nodes = (
(426,161,l),
(98,305,l),
(98,286,l),
(426,429,l),
(426,462,l),
(76,308,l),
(76,283,l),
(426,128,l)
);
},
{
closed = 1;
nodes = (
(70,40,l),
(430,40,l),
(430,68,l),
(70,68,l)
);
}
);
width = 500;
},
{
layerId = m002;
shapes = (
{
closed = 1;
nodes = (
(469,177,l),
(79,319,l),
(79,269,l),
(469,413,l),
(469,488,l),
(57,333,l),
(57,255,l),
(469,102,l)
);
},
{
closed = 1;
nodes = (
(54,11,l),
(476,10,l),
(476,73,l),
(54,73,l)
);
}
);
width = 530;
},
{
layerId = m003;
shapes = (
{
closed = 1;
nodes = (
(423,181,l),
(82,310,l),
(82,271,l),
(423,400,l),
(423,461,l),
(62,321,l),
(62,259,l),
(423,121,l)
);
},
{
closed = 1;
nodes = (
(58,39,l),
(429,37,l),
(429,89,l),
(58,89,l)
);
}
);
width = 487;
},
{
layerId = "2C26E880-80A5-4D19-8A94-7D905A372841";
shapes = (
{
closed = 1;
nodes = (
(390,170,l),
(95,300,l),
(95,283,l),
(390,411,l),
(390,441,l),
(75,302,l),
(75,280,l),
(390,141,l)
);
},
{
closed = 1;
nodes = (
(69,61,l),
(394,61,l),
(394,85,l),
(69,85,l)
);
}
);
width = 463;
}
);
unicode = 8804;
}
{
glyphname = T_b.liga;
layers = (
{
layerId = "0CCC0E2D-406A-4672-8E6C-854B1DF78A27";
shapes = (
{
closed = 1;
nodes = (
(838,51,l),
(906,7,o),
(997,-20,o),
(1092,-20,cs),
(1276,-20,o),
(1400,72,o),
(1400,209,cs),
(1400,338,o),
(1293,420,o),
(1140,420,cs),
(1040,420,o),
(938,386,o),
(873,336,c),
(873,662,l),
(742,610,l),
(414,600,l),
(35,610,l),
(73,419,l),
(81,421,l),
(107,579,l),
(395,579,l),
(396,50,l),
(246,8,l),
(248,0,l),
(581,0,l),
(583,8,l),
(433,50,l),
(432,579,l),
(838,580,l)
);
},
{
closed = 1;
nodes = (
(873,303,l),
(922,351,o),
(1028,391,o),
(1127,391,cs),
(1256,391,o),
(1365,320,o),
(1365,198,cs),
(1365,84,o),
(1257,5,o),
(1102,5,cs),
(1019,5,o),
(927,30,o),
(873,67,c)
);
}
);
width = 1444;
},
{
layerId = "2C26E880-80A5-4D19-8A94-7D905A372841";
shapes = (
{
closed = 1;
nodes = (
(482,31,l),
(533,-5,o),
(572,-20,o),
(613,-20,cs),
(710,-20,o),
(774,67,o),
(774,200,cs),
(774,327,o),
(712,411,o),
(619,411,cs),
(577,411,o),
(532,393,o),
(512,369,c),
(512,661,l),
(413,608,l),
(241,600,l),
(35,612,l),
(74,421,l),
(82,423,l),
(102,575,l),
(223,578,l),
(223,45,l),
(113,8,l),
(115,0,l),
(366,0,l),
(368,8,l),
(258,45,l),
(258,578,l),
(482,575,l)
);
},
{
closed = 1;
nodes = (
(512,332,l),
(525,362,o),
(571,386,o),
(615,386,cs),
(694,386,o),
(744,309,o),
(744,188,cs),
(744,74,o),
(697,5,o),
(620,5,cs),
(582,5,o),
(538,22,o),
(512,47,c)
);
}
);
width = 813;
},
{
layerId = m003;
shapes = (
{
closed = 1;
nodes = (
(469,37,l),
(505,4,o),
(564,-20,o),
(624,-20,cs),
(729,-20,o),
(811,82,o),
(811,216,cs),
(811,339,o),
(749,422,o),
(656,422,cs),
(609,422,o),
(574,402,o),
(543,357,c),
(543,650,l),
(447,612,l),
(250,600,l),
(23,612,l),
(62,401,l),
(70,403,l),
(101,564,l),
(210,571,l),
(210,45,l),
(100,8,l),
(102,0,l),
(398,0,l),
(400,8,l),
(290,45,l),
(290,571,l),
(469,561,l)
);
},
{
closed = 1;
nodes = (
(543,311,l),
(569,354,o),
(597,375,o),
(631,375,cs),
(695,375,o),
(737,299,o),
(737,188,cs),
(737,84,o),
(698,20,o),
(629,20,cs),
(596,20,o),
(563,34,o),
(543,53,c)
);
}
);
width = 845;
},
{
layerId = m002;
shapes = (
{
closed = 1;
nodes = (
(912,59,l),
(972,10,o),
(1080,-20,o),
(1182,-20,cs),
(1384,-20,o),
(1536,92,o),
(1536,230,cs),
(1536,342,o),
(1427,436,o),
(1276,436,cs),
(1182,436,o),
(1082,399,o),
(1001,336,c),
(1001,700,l),
(746,606,l),
(473,600,l),
(19,610,l),
(65,390,l),
(73,392,l),
(107,550,l),
(425,558,l),
(426,50,l),
(276,8,l),
(278,0,l),
(671,0,l),
(673,8,l),
(523,50,l),
(522,558,l),
(912,551,l)
);
},
{
closed = 1;
nodes = (
(1001,285,l),
(1078,359,o),
(1150,385,o),
(1235,385,cs),
(1376,385,o),
(1447,307,o),
(1447,198,cs),
(1447,96,o),
(1353,24,o),
(1218,24,cs),
(1148,24,o),
(1053,39,o),
(1001,75,c)
);
}
);
width = 1565;
}
);
metricLeft = T;
metricRight = b;
}
{
glyphname = f_f_l.liga;
layers = (
{
layerId = "2C26E880-80A5-4D19-8A94-7D905A372841";
shapes = (
{
closed = 1;
nodes = (
(402,391,l),
(136,392,l),
(136,504,ls),
(136,607,o),
(165,645,o),
(240,646,cs),
(291,647,o),
(341,629,o),
(410,589,c),
(404,559,o),
(402,519,o),
(402,480,cs)
);
},
{
closed = 1;
nodes = (
(723,47,l),
(622,8,l),
(624,0,l),
(862,0,l),
(864,8,l),
(757,47,l),
(757,702,l),
(702,668,l),
(643,690,o),
(581,702,o),
(537,702,cs),
(474,702,o),
(436,679,o),
(418,620,c),
(343,659,o),
(291,672,o),
(246,672,cs),
(146,672,o),
(101,614,o),
(101,480,cs),
(101,407,l),
(-9,375,l),
(-7,367,l),
(101,367,l),
(101,47,l),
(-10,8,l),
(-8,0,l),
(261,0,l),
(263,8,l),
(136,47,l),
(136,367,l),
(402,366,l),
(402,47,l),
(292,8,l),
(294,0,l),
(572,0,l),
(574,8,l),
(437,47,l),
(437,367,l),
(560,366,l),
(573,274,l),
(581,272,l),
(611,391,l),
(437,392,l),
(437,504,ls),
(437,638,o),
(457,675,o),
(531,676,cs),
(584,677,o),
(651,661,o),
(723,624,c)
);
}
);
width = 865;
},
{
layerId = m003;
shapes = (
{
closed = 1;
nodes = (
(408,401,l),
(171,402,l),
(171,504,ls),
(171,603,o),
(201,649,o),
(260,649,cs),
(309,649,o),
(364,629,o),
(418,588,c),
(411,544,o),
(408,501,o),
(408,448,cs)
);
},
{
closed = 1;
nodes = (
(718,45,l),
(605,6,l),
(607,0,l),
(862,0,l),
(864,8,l),
(790,45,l),
(790,712,l),
(722,681,l),
(691,694,o),
(617,712,o),
(558,712,cs),
(501,712,o),
(461,690,o),
(436,639,c),
(350,674,o),
(312,682,o),
(258,682,cs),
(152,682,o),
(98,604,o),
(98,448,cs),
(98,405,l),
(-12,375,l),
(-10,365,l),
(98,365,l),
(99,51,l),
(-23,8,l),
(-21,0,l),
(274,0,l),
(276,8,l),
(171,50,l),
(171,368,l),
(408,367,l),
(409,51,l),
(299,8,l),
(301,0,l),
(594,0,l),
(596,8,l),
(480,50,l),
(480,368,l),
(566,367,l),
(584,275,l),
(592,273,l),
(633,401,l),
(480,402,l),
(480,504,ls),
(480,631,o),
(500,676,o),
(557,678,cs),
(613,680,o),
(676,655,o),
(718,625,c)
);
}
);
width = 851;
},
{
layerId = m002;
shapes = (
{
closed = 1;
nodes = (
(572,415,l),
(212,415,l),
(212,479,ls),
(212,577,o),
(264,648,o),
(378,648,cs),
(475,648,o),
(542,616,o),
(591,571,c),
(579,540,o),
(572,506,o),
(572,464,cs)
);
},
{
closed = 1;
nodes = (
(1142,53,l),
(992,8,l),
(994,0,l),
(1376,0,l),
(1378,8,l),
(1228,53,l),
(1228,720,l),
(1197,688,l),
(1074,717,o),
(1028,725,o),
(928,725,cs),
(784,725,o),
(681,692,o),
(623,623,c),
(572,667,o),
(493,695,o),
(421,695,cs),
(232,695,o),
(125,597,o),
(125,464,cs),
(125,415,l),
(15,378,l),
(17,368,l),
(125,368,l),
(126,50,l),
(6,8,l),
(8,0,l),
(430,0,l),
(432,8,l),
(212,49,l),
(212,375,l),
(572,375,l),
(573,50,l),
(453,8,l),
(455,0,l),
(877,0,l),
(879,8,l),
(659,49,l),
(659,372,l),
(948,372,l),
(965,270,l),
(973,268,l),
(1027,415,l),
(659,415,l),
(659,464,ls),
(659,608,o),
(725,678,o),
(898,678,cs),
(1033,678,o),
(1105,643,o),
(1142,598,c)
);
}
);
width = 1373;
},
{
layerId = "0CCC0E2D-406A-4672-8E6C-854B1DF78A27";
shapes = (
{
closed = 1;
nodes = (
(613,401,l),
(177,401,l),
(177,465,ls),
(177,593,o),
(286,654,o),
(404,654,cs),
(469,654,o),
(571,636,o),
(640,588,c),
(622,555,o),
(613,514,o),
(613,464,cs)
);
},
{
closed = 1;
nodes = (
(1148,50,l),
(998,8,l),
(1000,0,l),
(1335,0,l),
(1337,8,l),
(1187,50,l),
(1187,720,l),
(1111,683,l),
(1043,700,o),
(967,711,o),
(887,711,cs),
(785,711,o),
(706,679,o),
(660,620,c),
(553,669,o),
(480,681,o),
(408,681,cs),
(265,681,o),
(138,604,o),
(138,464,cs),
(138,415,l),
(28,384,l),
(30,374,l),
(138,374,l),
(139,50,l),
(19,8,l),
(21,0,l),
(395,0,l),
(397,8,l),
(177,49,l),
(177,375,l),
(613,375,l),
(614,50,l),
(494,8,l),
(496,0,l),
(870,0,l),
(872,8,l),
(652,49,l),
(652,375,l),
(910,375,l),
(927,273,l),
(935,271,l),
(975,401,l),
(652,401,l),
(652,464,ls),
(652,633,o),
(763,684,o),
(885,684,cs),
(957,684,o),
(1081,664,o),
(1148,631,c)
);
}
);
width = 1346;
}
);
metricLeft = f;
metricRight = l;
}
